<?xml version="1.0" encoding="utf-8" ?>
<svg baseProfile="tiny" height="2276" version="1.2" width="720" xmlns="http://www.w3.org/2000/svg" xmlns:ev="http://www.w3.org/2001/xml-events" xmlns:xlink="http://www.w3.org/1999/xlink"><defs /><rect fill="white" height="1118.0" rx="10" ry="10" width="700" x="10.0" y="10.0" /><rect fill="black" height="1118.0" rx="10" ry="10" width="700" x="10.0" y="1148.0" /><g id="Primary_1_Top_Swatch"><rect fill="#D4F9E2" height="120" rx="10" ry="10" width="120" x="20" y="20" /><text fill="black" font-family="Arial" font-size="15px" x="30" y="10">Primary 1</text><text fill="black" font-family="Arial" font-size="12px" x="30" y="158">#D4F9E2</text></g><g id="Primary_1_Bottom_Swatch"><rect fill="#D4F9E2" height="120" rx="10" ry="10" width="120" x="20" y="1158.0" /><text fill="white" font-family="Arial" font-size="15px" x="30" y="1148.0">Primary 1</text><text fill="white" font-family="Arial" font-size="12px" x="30" y="1296.0">#D4F9E2</text></g><g id="Primary_2_Top_Swatch"><rect fill="#A6EFC1" height="120" rx="10" ry="10" width="120" x="160" y="20" /><text fill="black" font-family="Arial" font-size="15px" x="170" y="10">Primary 2</text><text fill="black" font-family="Arial" font-size="12px" x="170" y="158">#A6EFC1</text></g><g id="Primary_2_Bottom_Swatch"><rect fill="#A6EFC1" height="120" rx="10" ry="10" width="120" x="160" y="1158.0" /><text fill="white" font-family="Arial" font-size="15px" x="170" y="1148.0">Primary 2</text><text fill="white" font-family="Arial" font-size="12px" x="170" y="1296.0">#A6EFC1</text></g><g id="Primary_3_Main__Top_Swatch"><rect fill="#2ECC71" height="120" rx="10" ry="10" width="120" x="300" y="20" /><text fill="black" font-family="Arial" font-size="15px" x="310" y="10">Primary 3 (Main)</text><text fill="black" font-family="Arial" font-size="12px" x="310" y="158">#2ECC71</text></g><g id="Primary_3_Main__Bottom_Swatch"><rect fill="#2ECC71" height="120" rx="10" ry="10" width="120" x="300" y="1158.0" /><text fill="white" font-family="Arial" font-size="15px" x="310" y="1148.0">Primary 3 (Main)</text><text fill="white" font-family="Arial" font-size="12px" x="310" y="1296.0">#2ECC71</text></g><g id="Primary_4_Top_Swatch"><rect fill="#249A57" height="120" rx="10" ry="10" width="120" x="440" y="20" /><text fill="black" font-family="Arial" font-size="15px" x="450" y="10">Primary 4</text><text fill="black" font-family="Arial" font-size="12px" x="450" y="158">#249A57</text></g><g id="Primary_4_Bottom_Swatch"><rect fill="#249A57" height="120" rx="10" ry="10" width="120" x="440" y="1158.0" /><text fill="white" font-family="Arial" font-size="15px" x="450" y="1148.0">Primary 4</text><text fill="white" font-family="Arial" font-size="12px" x="450" y="1296.0">#249A57</text></g><g id="Primary_5_Darker__Top_Swatch"><rect fill="#18713C" height="120" rx="10" ry="10" width="120" x="580" y="20" /><text fill="black" font-family="Arial" font-size="15px" x="590" y="10">Primary 5 (Darker)</text><text fill="black" font-family="Arial" font-size="12px" x="590" y="158">#18713C</text></g><g id="Primary_5_Darker__Bottom_Swatch"><rect fill="#18713C" height="120" rx="10" ry="10" width="120" x="580" y="1158.0" /><text fill="white" font-family="Arial" font-size="15px" x="590" y="1148.0">Primary 5 (Darker)</text><text fill="white" font-family="Arial" font-size="12px" x="590" y="1296.0">#18713C</text></g><g id="Secondary_1_Top_Swatch"><rect fill="#D6DFE6" height="120" rx="10" ry="10" width="120" x="20" y="208" /><text fill="black" font-family="Arial" font-size="15px" x="30" y="198">Secondary 1</text><text fill="black" font-family="Arial" font-size="12px" x="30" y="346">#D6DFE6</text></g><g id="Secondary_1_Bottom_Swatch"><rect fill="#D6DFE6" height="120" rx="10" ry="10" width="120" x="20" y="1346.0" /><text fill="white" font-family="Arial" font-size="15px" x="30" y="1336.0">Secondary 1</text><text fill="white" font-family="Arial" font-size="12px" x="30" y="1484.0">#D6DFE6</text></g><g id="Secondary_2_Top_Swatch"><rect fill="#92A3B5" height="120" rx="10" ry="10" width="120" x="160" y="208" /><text fill="black" font-family="Arial" font-size="15px" x="170" y="198">Secondary 2</text><text fill="black" font-family="Arial" font-size="12px" x="170" y="346">#92A3B5</text></g><g id="Secondary_2_Bottom_Swatch"><rect fill="#92A3B5" height="120" rx="10" ry="10" width="120" x="160" y="1346.0" /><text fill="white" font-family="Arial" font-size="15px" x="170" y="1336.0">Secondary 2</text><text fill="white" font-family="Arial" font-size="12px" x="170" y="1484.0">#92A3B5</text></g><g id="Secondary_3_Main__Top_Swatch"><rect fill="#34495E" height="120" rx="10" ry="10" width="120" x="300" y="208" /><text fill="black" font-family="Arial" font-size="15px" x="310" y="198">Secondary 3 (Main)</text><text fill="black" font-family="Arial" font-size="12px" x="310" y="346">#34495E</text></g><g id="Secondary_3_Main__Bottom_Swatch"><rect fill="#34495E" height="120" rx="10" ry="10" width="120" x="300" y="1346.0" /><text fill="white" font-family="Arial" font-size="15px" x="310" y="1336.0">Secondary 3 (Main)</text><text fill="white" font-family="Arial" font-size="12px" x="310" y="1484.0">#34495E</text></g><g id="Secondary_4_Top_Swatch"><rect fill="#2A3A4B" height="120" rx="10" ry="10" width="120" x="440" y="208" /><text fill="black" font-family="Arial" font-size="15px" x="450" y="198">Secondary 4</text><text fill="black" font-family="Arial" font-size="12px" x="450" y="346">#2A3A4B</text></g><g id="Secondary_4_Bottom_Swatch"><rect fill="#2A3A4B" height="120" rx="10" ry="10" width="120" x="440" y="1346.0" /><text fill="white" font-family="Arial" font-size="15px" x="450" y="1336.0">Secondary 4</text><text fill="white" font-family="Arial" font-size="12px" x="450" y="1484.0">#2A3A4B</text></g><g id="Secondary_5_Darker__Top_Swatch"><rect fill="#1E2B36" height="120" rx="10" ry="10" width="120" x="580" y="208" /><text fill="black" font-family="Arial" font-size="15px" x="590" y="198">Secondary 5 (Darker)</text><text fill="black" font-family="Arial" font-size="12px" x="590" y="346">#1E2B36</text></g><g id="Secondary_5_Darker__Bottom_Swatch"><rect fill="#1E2B36" height="120" rx="10" ry="10" width="120" x="580" y="1346.0" /><text fill="white" font-family="Arial" font-size="15px" x="590" y="1336.0">Secondary 5 (Darker)</text><text fill="white" font-family="Arial" font-size="12px" x="590" y="1484.0">#1E2B36</text></g><g id="Accent_1_Top_Swatch"><rect fill="#FFF6D6" height="120" rx="10" ry="10" width="120" x="20" y="396" /><text fill="black" font-family="Arial" font-size="15px" x="30" y="386">Accent 1</text><text fill="black" font-family="Arial" font-size="12px" x="30" y="534">#FFF6D6</text></g><g id="Accent_1_Bottom_Swatch"><rect fill="#FFF6D6" height="120" rx="10" ry="10" width="120" x="20" y="1534.0" /><text fill="white" font-family="Arial" font-size="15px" x="30" y="1524.0">Accent 1</text><text fill="white" font-family="Arial" font-size="12px" x="30" y="1672.0">#FFF6D6</text></g><g id="Accent_2_Top_Swatch"><rect fill="#FFEB99" height="120" rx="10" ry="10" width="120" x="160" y="396" /><text fill="black" font-family="Arial" font-size="15px" x="170" y="386">Accent 2</text><text fill="black" font-family="Arial" font-size="12px" x="170" y="534">#FFEB99</text></g><g id="Accent_2_Bottom_Swatch"><rect fill="#FFEB99" height="120" rx="10" ry="10" width="120" x="160" y="1534.0" /><text fill="white" font-family="Arial" font-size="15px" x="170" y="1524.0">Accent 2</text><text fill="white" font-family="Arial" font-size="12px" x="170" y="1672.0">#FFEB99</text></g><g id="Accent_3_Main__Top_Swatch"><rect fill="#F1C40F" height="120" rx="10" ry="10" width="120" x="300" y="396" /><text fill="black" font-family="Arial" font-size="15px" x="310" y="386">Accent 3 (Main)</text><text fill="black" font-family="Arial" font-size="12px" x="310" y="534">#F1C40F</text></g><g id="Accent_3_Main__Bottom_Swatch"><rect fill="#F1C40F" height="120" rx="10" ry="10" width="120" x="300" y="1534.0" /><text fill="white" font-family="Arial" font-size="15px" x="310" y="1524.0">Accent 3 (Main)</text><text fill="white" font-family="Arial" font-size="12px" x="310" y="1672.0">#F1C40F</text></g><g id="Accent_4_Top_Swatch"><rect fill="#C99F0C" height="120" rx="10" ry="10" width="120" x="440" y="396" /><text fill="black" font-family="Arial" font-size="15px" x="450" y="386">Accent 4</text><text fill="black" font-family="Arial" font-size="12px" x="450" y="534">#C99F0C</text></g><g id="Accent_4_Bottom_Swatch"><rect fill="#C99F0C" height="120" rx="10" ry="10" width="120" x="440" y="1534.0" /><text fill="white" font-family="Arial" font-size="15px" x="450" y="1524.0">Accent 4</text><text fill="white" font-family="Arial" font-size="12px" x="450" y="1672.0">#C99F0C</text></g><g id="Accent_5_Darker__Top_Swatch"><rect fill="#997B09" height="120" rx="10" ry="10" width="120" x="580" y="396" /><text fill="black" font-family="Arial" font-size="15px" x="590" y="386">Accent 5 (Darker)</text><text fill="black" font-family="Arial" font-size="12px" x="590" y="534">#997B09</text></g><g id="Accent_5_Darker__Bottom_Swatch"><rect fill="#997B09" height="120" rx="10" ry="10" width="120" x="580" y="1534.0" /><text fill="white" font-family="Arial" font-size="15px" x="590" y="1524.0">Accent 5 (Darker)</text><text fill="white" font-family="Arial" font-size="12px" x="590" y="1672.0">#997B09</text></g><g id="Highlight_1_Top_Swatch"><rect fill="#FFE6E2" height="120" rx="10" ry="10" width="120" x="20" y="584" /><text fill="black" font-family="Arial" font-size="15px" x="30" y="574">Highlight 1</text><text fill="black" font-family="Arial" font-size="12px" x="30" y="722">#FFE6E2</text></g><g id="Highlight_1_Bottom_Swatch"><rect fill="#FFE6E2" height="120" rx="10" ry="10" width="120" x="20" y="1722.0" /><text fill="white" font-family="Arial" font-size="15px" x="30" y="1712.0">Highlight 1</text><text fill="white" font-family="Arial" font-size="12px" x="30" y="1860.0">#FFE6E2</text></g><g id="Highlight_2_Top_Swatch"><rect fill="#FFB3A8" height="120" rx="10" ry="10" width="120" x="160" y="584" /><text fill="black" font-family="Arial" font-size="15px" x="170" y="574">Highlight 2</text><text fill="black" font-family="Arial" font-size="12px" x="170" y="722">#FFB3A8</text></g><g id="Highlight_2_Bottom_Swatch"><rect fill="#FFB3A8" height="120" rx="10" ry="10" width="120" x="160" y="1722.0" /><text fill="white" font-family="Arial" font-size="15px" x="170" y="1712.0">Highlight 2</text><text fill="white" font-family="Arial" font-size="12px" x="170" y="1860.0">#FFB3A8</text></g><g id="Highlight_3_Main__Top_Swatch"><rect fill="#FF6F61" height="120" rx="10" ry="10" width="120" x="300" y="584" /><text fill="black" font-family="Arial" font-size="15px" x="310" y="574">Highlight 3 (Main)</text><text fill="black" font-family="Arial" font-size="12px" x="310" y="722">#FF6F61</text></g><g id="Highlight_3_Main__Bottom_Swatch"><rect fill="#FF6F61" height="120" rx="10" ry="10" width="120" x="300" y="1722.0" /><text fill="white" font-family="Arial" font-size="15px" x="310" y="1712.0">Highlight 3 (Main)</text><text fill="white" font-family="Arial" font-size="12px" x="310" y="1860.0">#FF6F61</text></g><g id="Highlight_4_Top_Swatch"><rect fill="#CC594E" height="120" rx="10" ry="10" width="120" x="440" y="584" /><text fill="black" font-family="Arial" font-size="15px" x="450" y="574">Highlight 4</text><text fill="black" font-family="Arial" font-size="12px" x="450" y="722">#CC594E</text></g><g id="Highlight_4_Bottom_Swatch"><rect fill="#CC594E" height="120" rx="10" ry="10" width="120" x="440" y="1722.0" /><text fill="white" font-family="Arial" font-size="15px" x="450" y="1712.0">Highlight 4</text><text fill="white" font-family="Arial" font-size="12px" x="450" y="1860.0">#CC594E</text></g><g id="Highlight_5_Darker__Top_Swatch"><rect fill="#993F37" height="120" rx="10" ry="10" width="120" x="580" y="584" /><text fill="black" font-family="Arial" font-size="15px" x="590" y="574">Highlight 5 (Darker)</text><text fill="black" font-family="Arial" font-size="12px" x="590" y="722">#993F37</text></g><g id="Highlight_5_Darker__Bottom_Swatch"><rect fill="#993F37" height="120" rx="10" ry="10" width="120" x="580" y="1722.0" /><text fill="white" font-family="Arial" font-size="15px" x="590" y="1712.0">Highlight 5 (Darker)</text><text fill="white" font-family="Arial" font-size="12px" x="590" y="1860.0">#993F37</text></g><g id="Background_1_Top_Swatch"><rect fill="#FFFFFF" height="120" rx="10" ry="10" width="120" x="20" y="772" /><text fill="black" font-family="Arial" font-size="15px" x="30" y="762">Background 1</text><text fill="black" font-family="Arial" font-size="12px" x="30" y="910">#FFFFFF</text></g><g id="Background_1_Bottom_Swatch"><rect fill="#FFFFFF" height="120" rx="10" ry="10" width="120" x="20" y="1910.0" /><text fill="white" font-family="Arial" font-size="15px" x="30" y="1900.0">Background 1</text><text fill="white" font-family="Arial" font-size="12px" x="30" y="2048.0">#FFFFFF</text></g><g id="Background_2_Top_Swatch"><rect fill="#FAF4EE" height="120" rx="10" ry="10" width="120" x="160" y="772" /><text fill="black" font-family="Arial" font-size="15px" x="170" y="762">Background 2</text><text fill="black" font-family="Arial" font-size="12px" x="170" y="910">#FAF4EE</text></g><g id="Background_2_Bottom_Swatch"><rect fill="#FAF4EE" height="120" rx="10" ry="10" width="120" x="160" y="1910.0" /><text fill="white" font-family="Arial" font-size="15px" x="170" y="1900.0">Background 2</text><text fill="white" font-family="Arial" font-size="12px" x="170" y="2048.0">#FAF4EE</text></g><g id="Background_3_Main__Top_Swatch"><rect fill="#F4E5D3" height="120" rx="10" ry="10" width="120" x="300" y="772" /><text fill="black" font-family="Arial" font-size="15px" x="310" y="762">Background 3 (Main)</text><text fill="black" font-family="Arial" font-size="12px" x="310" y="910">#F4E5D3</text></g><g id="Background_3_Main__Bottom_Swatch"><rect fill="#F4E5D3" height="120" rx="10" ry="10" width="120" x="300" y="1910.0" /><text fill="white" font-family="Arial" font-size="15px" x="310" y="1900.0">Background 3 (Main)</text><text fill="white" font-family="Arial" font-size="12px" x="310" y="2048.0">#F4E5D3</text></g><g id="Background_4_Top_Swatch"><rect fill="#D7C4AE" height="120" rx="10" ry="10" width="120" x="440" y="772" /><text fill="black" font-family="Arial" font-size="15px" x="450" y="762">Background 4</text><text fill="black" font-family="Arial" font-size="12px" x="450" y="910">#D7C4AE</text></g><g id="Background_4_Bottom_Swatch"><rect fill="#D7C4AE" height="120" rx="10" ry="10" width="120" x="440" y="1910.0" /><text fill="white" font-family="Arial" font-size="15px" x="450" y="1900.0">Background 4</text><text fill="white" font-family="Arial" font-size="12px" x="450" y="2048.0">#D7C4AE</text></g><g id="Background_5_Darker__Top_Swatch"><rect fill="#BBA48B" height="120" rx="10" ry="10" width="120" x="580" y="772" /><text fill="black" font-family="Arial" font-size="15px" x="590" y="762">Background 5 (Darker)</text><text fill="black" font-family="Arial" font-size="12px" x="590" y="910">#BBA48B</text></g><g id="Background_5_Darker__Bottom_Swatch"><rect fill="#BBA48B" height="120" rx="10" ry="10" width="120" x="580" y="1910.0" /><text fill="white" font-family="Arial" font-size="15px" x="590" y="1900.0">Background 5 (Darker)</text><text fill="white" font-family="Arial" font-size="12px" x="590" y="2048.0">#BBA48B</text></g><g id="Neutral_1_Top_Swatch"><rect fill="#E6EAED" height="120" rx="10" ry="10" width="120" x="20" y="960" /><text fill="black" font-family="Arial" font-size="15px" x="30" y="950">Neutral 1</text><text fill="black" font-family="Arial" font-size="12px" x="30" y="1098">#E6EAED</text></g><g id="Neutral_1_Bottom_Swatch"><rect fill="#E6EAED" height="120" rx="10" ry="10" width="120" x="20" y="2098.0" /><text fill="white" font-family="Arial" font-size="15px" x="30" y="2088.0">Neutral 1</text><text fill="white" font-family="Arial" font-size="12px" x="30" y="2236.0">#E6EAED</text></g><g id="Neutral_2_Top_Swatch"><rect fill="#A6B1B9" height="120" rx="10" ry="10" width="120" x="160" y="960" /><text fill="black" font-family="Arial" font-size="15px" x="170" y="950">Neutral 2</text><text fill="black" font-family="Arial" font-size="12px" x="170" y="1098">#A6B1B9</text></g><g id="Neutral_2_Bottom_Swatch"><rect fill="#A6B1B9" height="120" rx="10" ry="10" width="120" x="160" y="2098.0" /><text fill="white" font-family="Arial" font-size="15px" x="170" y="2088.0">Neutral 2</text><text fill="white" font-family="Arial" font-size="12px" x="170" y="2236.0">#A6B1B9</text></g><g id="Neutral_3_Main__Top_Swatch"><rect fill="#2C3E50" height="120" rx="10" ry="10" width="120" x="300" y="960" /><text fill="black" font-family="Arial" font-size="15px" x="310" y="950">Neutral 3 (Main)</text><text fill="black" font-family="Arial" font-size="12px" x="310" y="1098">#2C3E50</text></g><g id="Neutral_3_Main__Bottom_Swatch"><rect fill="#2C3E50" height="120" rx="10" ry="10" width="120" x="300" y="2098.0" /><text fill="white" font-family="Arial" font-size="15px" x="310" y="2088.0">Neutral 3 (Main)</text><text fill="white" font-family="Arial" font-size="12px" x="310" y="2236.0">#2C3E50</text></g><g id="Neutral_4_Top_Swatch"><rect fill="#22303D" height="120" rx="10" ry="10" width="120" x="440" y="960" /><text fill="black" font-family="Arial" font-size="15px" x="450" y="950">Neutral 4</text><text fill="black" font-family="Arial" font-size="12px" x="450" y="1098">#22303D</text></g><g id="Neutral_4_Bottom_Swatch"><rect fill="#22303D" height="120" rx="10" ry="10" width="120" x="440" y="2098.0" /><text fill="white" font-family="Arial" font-size="15px" x="450" y="2088.0">Neutral 4</text><text fill="white" font-family="Arial" font-size="12px" x="450" y="2236.0">#22303D</text></g><g id="Neutral_5_Darker__Top_Swatch"><rect fill="#192329" height="120" rx="10" ry="10" width="120" x="580" y="960" /><text fill="black" font-family="Arial" font-size="15px" x="590" y="950">Neutral 5 (Darker)</text><text fill="black" font-family="Arial" font-size="12px" x="590" y="1098">#192329</text></g><g id="Neutral_5_Darker__Bottom_Swatch"><rect fill="#192329" height="120" rx="10" ry="10" width="120" x="580" y="2098.0" /><text fill="white" font-family="Arial" font-size="15px" x="590" y="2088.0">Neutral 5 (Darker)</text><text fill="white" font-family="Arial" font-size="12px" x="590" y="2236.0">#192329</text></g></svg>