<?xml version="1.0" encoding="utf-8" ?>
<svg baseProfile="tiny" height="2652" version="1.2" width="720" xmlns="http://www.w3.org/2000/svg" xmlns:ev="http://www.w3.org/2001/xml-events" xmlns:xlink="http://www.w3.org/1999/xlink"><defs /><rect fill="white" height="1306.0" rx="10" ry="10" width="700" x="10.0" y="10.0" /><rect fill="black" height="1306.0" rx="10" ry="10" width="700" x="10.0" y="1336.0" /><g id="Primary_1_Top_Swatch"><rect fill="#D4F9E2" height="120" rx="10" ry="10" width="120" x="20" y="20" /><text fill="black" font-family="Arial" font-size="15px" x="30" y="10">Primary 1</text><text fill="black" font-family="Arial" font-size="12px" x="30" y="158">#D4F9E2</text></g><g id="Primary_1_Bottom_Swatch"><rect fill="#D4F9E2" height="120" rx="10" ry="10" width="120" x="20" y="1346.0" /><text fill="white" font-family="Arial" font-size="15px" x="30" y="1336.0">Primary 1</text><text fill="white" font-family="Arial" font-size="12px" x="30" y="1484.0">#D4F9E2</text></g><g id="Primary_2_Top_Swatch"><rect fill="#A6EFC1" height="120" rx="10" ry="10" width="120" x="160" y="20" /><text fill="black" font-family="Arial" font-size="15px" x="170" y="10">Primary 2</text><text fill="black" font-family="Arial" font-size="12px" x="170" y="158">#A6EFC1</text></g><g id="Primary_2_Bottom_Swatch"><rect fill="#A6EFC1" height="120" rx="10" ry="10" width="120" x="160" y="1346.0" /><text fill="white" font-family="Arial" font-size="15px" x="170" y="1336.0">Primary 2</text><text fill="white" font-family="Arial" font-size="12px" x="170" y="1484.0">#A6EFC1</text></g><g id="Primary_3_Main__Top_Swatch"><rect fill="#2ECC71" height="120" rx="10" ry="10" width="120" x="300" y="20" /><text fill="black" font-family="Arial" font-size="15px" x="310" y="10">Primary 3 (Main)</text><text fill="black" font-family="Arial" font-size="12px" x="310" y="158">#2ECC71</text></g><g id="Primary_3_Main__Bottom_Swatch"><rect fill="#2ECC71" height="120" rx="10" ry="10" width="120" x="300" y="1346.0" /><text fill="white" font-family="Arial" font-size="15px" x="310" y="1336.0">Primary 3 (Main)</text><text fill="white" font-family="Arial" font-size="12px" x="310" y="1484.0">#2ECC71</text></g><g id="Primary_4_Top_Swatch"><rect fill="#249A57" height="120" rx="10" ry="10" width="120" x="440" y="20" /><text fill="black" font-family="Arial" font-size="15px" x="450" y="10">Primary 4</text><text fill="black" font-family="Arial" font-size="12px" x="450" y="158">#249A57</text></g><g id="Primary_4_Bottom_Swatch"><rect fill="#249A57" height="120" rx="10" ry="10" width="120" x="440" y="1346.0" /><text fill="white" font-family="Arial" font-size="15px" x="450" y="1336.0">Primary 4</text><text fill="white" font-family="Arial" font-size="12px" x="450" y="1484.0">#249A57</text></g><g id="Primary_5_Darker__Top_Swatch"><rect fill="#18713C" height="120" rx="10" ry="10" width="120" x="580" y="20" /><text fill="black" font-family="Arial" font-size="15px" x="590" y="10">Primary 5 (Darker)</text><text fill="black" font-family="Arial" font-size="12px" x="590" y="158">#18713C</text></g><g id="Primary_5_Darker__Bottom_Swatch"><rect fill="#18713C" height="120" rx="10" ry="10" width="120" x="580" y="1346.0" /><text fill="white" font-family="Arial" font-size="15px" x="590" y="1336.0">Primary 5 (Darker)</text><text fill="white" font-family="Arial" font-size="12px" x="590" y="1484.0">#18713C</text></g><g id="Secondary_1_Top_Swatch"><rect fill="#D6DFE6" height="120" rx="10" ry="10" width="120" x="20" y="208" /><text fill="black" font-family="Arial" font-size="15px" x="30" y="198">Secondary 1</text><text fill="black" font-family="Arial" font-size="12px" x="30" y="346">#D6DFE6</text></g><g id="Secondary_1_Bottom_Swatch"><rect fill="#D6DFE6" height="120" rx="10" ry="10" width="120" x="20" y="1534.0" /><text fill="white" font-family="Arial" font-size="15px" x="30" y="1524.0">Secondary 1</text><text fill="white" font-family="Arial" font-size="12px" x="30" y="1672.0">#D6DFE6</text></g><g id="Secondary_2_Top_Swatch"><rect fill="#92A3B5" height="120" rx="10" ry="10" width="120" x="160" y="208" /><text fill="black" font-family="Arial" font-size="15px" x="170" y="198">Secondary 2</text><text fill="black" font-family="Arial" font-size="12px" x="170" y="346">#92A3B5</text></g><g id="Secondary_2_Bottom_Swatch"><rect fill="#92A3B5" height="120" rx="10" ry="10" width="120" x="160" y="1534.0" /><text fill="white" font-family="Arial" font-size="15px" x="170" y="1524.0">Secondary 2</text><text fill="white" font-family="Arial" font-size="12px" x="170" y="1672.0">#92A3B5</text></g><g id="Secondary_3_Main__Top_Swatch"><rect fill="#1B263B" height="120" rx="10" ry="10" width="120" x="300" y="208" /><text fill="black" font-family="Arial" font-size="15px" x="310" y="198">Secondary 3 (Main)</text><text fill="black" font-family="Arial" font-size="12px" x="310" y="346">#1B263B</text></g><g id="Secondary_3_Main__Bottom_Swatch"><rect fill="#1B263B" height="120" rx="10" ry="10" width="120" x="300" y="1534.0" /><text fill="white" font-family="Arial" font-size="15px" x="310" y="1524.0">Secondary 3 (Main)</text><text fill="white" font-family="Arial" font-size="12px" x="310" y="1672.0">#1B263B</text></g><g id="Secondary_4_Top_Swatch"><rect fill="#131C29" height="120" rx="10" ry="10" width="120" x="440" y="208" /><text fill="black" font-family="Arial" font-size="15px" x="450" y="198">Secondary 4</text><text fill="black" font-family="Arial" font-size="12px" x="450" y="346">#131C29</text></g><g id="Secondary_4_Bottom_Swatch"><rect fill="#131C29" height="120" rx="10" ry="10" width="120" x="440" y="1534.0" /><text fill="white" font-family="Arial" font-size="15px" x="450" y="1524.0">Secondary 4</text><text fill="white" font-family="Arial" font-size="12px" x="450" y="1672.0">#131C29</text></g><g id="Secondary_5_Darker__Top_Swatch"><rect fill="#0D1219" height="120" rx="10" ry="10" width="120" x="580" y="208" /><text fill="black" font-family="Arial" font-size="15px" x="590" y="198">Secondary 5 (Darker)</text><text fill="black" font-family="Arial" font-size="12px" x="590" y="346">#0D1219</text></g><g id="Secondary_5_Darker__Bottom_Swatch"><rect fill="#0D1219" height="120" rx="10" ry="10" width="120" x="580" y="1534.0" /><text fill="white" font-family="Arial" font-size="15px" x="590" y="1524.0">Secondary 5 (Darker)</text><text fill="white" font-family="Arial" font-size="12px" x="590" y="1672.0">#0D1219</text></g><g id="Accent_1_Top_Swatch"><rect fill="#FFE3E6" height="120" rx="10" ry="10" width="120" x="20" y="396" /><text fill="black" font-family="Arial" font-size="15px" x="30" y="386">Accent 1</text><text fill="black" font-family="Arial" font-size="12px" x="30" y="534">#FFE3E6</text></g><g id="Accent_1_Bottom_Swatch"><rect fill="#FFE3E6" height="120" rx="10" ry="10" width="120" x="20" y="1722.0" /><text fill="white" font-family="Arial" font-size="15px" x="30" y="1712.0">Accent 1</text><text fill="white" font-family="Arial" font-size="12px" x="30" y="1860.0">#FFE3E6</text></g><g id="Accent_2_Top_Swatch"><rect fill="#FFB3B6" height="120" rx="10" ry="10" width="120" x="160" y="396" /><text fill="black" font-family="Arial" font-size="15px" x="170" y="386">Accent 2</text><text fill="black" font-family="Arial" font-size="12px" x="170" y="534">#FFB3B6</text></g><g id="Accent_2_Bottom_Swatch"><rect fill="#FFB3B6" height="120" rx="10" ry="10" width="120" x="160" y="1722.0" /><text fill="white" font-family="Arial" font-size="15px" x="170" y="1712.0">Accent 2</text><text fill="white" font-family="Arial" font-size="12px" x="170" y="1860.0">#FFB3B6</text></g><g id="Accent_3_Main__Top_Swatch"><rect fill="#E63946" height="120" rx="10" ry="10" width="120" x="300" y="396" /><text fill="black" font-family="Arial" font-size="15px" x="310" y="386">Accent 3 (Main)</text><text fill="black" font-family="Arial" font-size="12px" x="310" y="534">#E63946</text></g><g id="Accent_3_Main__Bottom_Swatch"><rect fill="#E63946" height="120" rx="10" ry="10" width="120" x="300" y="1722.0" /><text fill="white" font-family="Arial" font-size="15px" x="310" y="1712.0">Accent 3 (Main)</text><text fill="white" font-family="Arial" font-size="12px" x="310" y="1860.0">#E63946</text></g><g id="Accent_4_Top_Swatch"><rect fill="#B52835" height="120" rx="10" ry="10" width="120" x="440" y="396" /><text fill="black" font-family="Arial" font-size="15px" x="450" y="386">Accent 4</text><text fill="black" font-family="Arial" font-size="12px" x="450" y="534">#B52835</text></g><g id="Accent_4_Bottom_Swatch"><rect fill="#B52835" height="120" rx="10" ry="10" width="120" x="440" y="1722.0" /><text fill="white" font-family="Arial" font-size="15px" x="450" y="1712.0">Accent 4</text><text fill="white" font-family="Arial" font-size="12px" x="450" y="1860.0">#B52835</text></g><g id="Accent_5_Darker__Top_Swatch"><rect fill="#891B25" height="120" rx="10" ry="10" width="120" x="580" y="396" /><text fill="black" font-family="Arial" font-size="15px" x="590" y="386">Accent 5 (Darker)</text><text fill="black" font-family="Arial" font-size="12px" x="590" y="534">#891B25</text></g><g id="Accent_5_Darker__Bottom_Swatch"><rect fill="#891B25" height="120" rx="10" ry="10" width="120" x="580" y="1722.0" /><text fill="white" font-family="Arial" font-size="15px" x="590" y="1712.0">Accent 5 (Darker)</text><text fill="white" font-family="Arial" font-size="12px" x="590" y="1860.0">#891B25</text></g><g id="Highlight_1_Top_Swatch"><rect fill="#FFF5E6" height="120" rx="10" ry="10" width="120" x="20" y="584" /><text fill="black" font-family="Arial" font-size="15px" x="30" y="574">Highlight 1</text><text fill="black" font-family="Arial" font-size="12px" x="30" y="722">#FFF5E6</text></g><g id="Highlight_1_Bottom_Swatch"><rect fill="#FFF5E6" height="120" rx="10" ry="10" width="120" x="20" y="1910.0" /><text fill="white" font-family="Arial" font-size="15px" x="30" y="1900.0">Highlight 1</text><text fill="white" font-family="Arial" font-size="12px" x="30" y="2048.0">#FFF5E6</text></g><g id="Highlight_2_Top_Swatch"><rect fill="#FFE1B3" height="120" rx="10" ry="10" width="120" x="160" y="584" /><text fill="black" font-family="Arial" font-size="15px" x="170" y="574">Highlight 2</text><text fill="black" font-family="Arial" font-size="12px" x="170" y="722">#FFE1B3</text></g><g id="Highlight_2_Bottom_Swatch"><rect fill="#FFE1B3" height="120" rx="10" ry="10" width="120" x="160" y="1910.0" /><text fill="white" font-family="Arial" font-size="15px" x="170" y="1900.0">Highlight 2</text><text fill="white" font-family="Arial" font-size="12px" x="170" y="2048.0">#FFE1B3</text></g><g id="Highlight_3_Main__Top_Swatch"><rect fill="#F5B041" height="120" rx="10" ry="10" width="120" x="300" y="584" /><text fill="black" font-family="Arial" font-size="15px" x="310" y="574">Highlight 3 (Main)</text><text fill="black" font-family="Arial" font-size="12px" x="310" y="722">#F5B041</text></g><g id="Highlight_3_Main__Bottom_Swatch"><rect fill="#F5B041" height="120" rx="10" ry="10" width="120" x="300" y="1910.0" /><text fill="white" font-family="Arial" font-size="15px" x="310" y="1900.0">Highlight 3 (Main)</text><text fill="white" font-family="Arial" font-size="12px" x="310" y="2048.0">#F5B041</text></g><g id="Highlight_4_Top_Swatch"><rect fill="#C99033" height="120" rx="10" ry="10" width="120" x="440" y="584" /><text fill="black" font-family="Arial" font-size="15px" x="450" y="574">Highlight 4</text><text fill="black" font-family="Arial" font-size="12px" x="450" y="722">#C99033</text></g><g id="Highlight_4_Bottom_Swatch"><rect fill="#C99033" height="120" rx="10" ry="10" width="120" x="440" y="1910.0" /><text fill="white" font-family="Arial" font-size="15px" x="450" y="1900.0">Highlight 4</text><text fill="white" font-family="Arial" font-size="12px" x="450" y="2048.0">#C99033</text></g><g id="Highlight_5_Darker__Top_Swatch"><rect fill="#996B26" height="120" rx="10" ry="10" width="120" x="580" y="584" /><text fill="black" font-family="Arial" font-size="15px" x="590" y="574">Highlight 5 (Darker)</text><text fill="black" font-family="Arial" font-size="12px" x="590" y="722">#996B26</text></g><g id="Highlight_5_Darker__Bottom_Swatch"><rect fill="#996B26" height="120" rx="10" ry="10" width="120" x="580" y="1910.0" /><text fill="white" font-family="Arial" font-size="15px" x="590" y="1900.0">Highlight 5 (Darker)</text><text fill="white" font-family="Arial" font-size="12px" x="590" y="2048.0">#996B26</text></g><g id="Warm_1_Top_Swatch"><rect fill="#FDEEEF" height="120" rx="10" ry="10" width="120" x="20" y="772" /><text fill="black" font-family="Arial" font-size="15px" x="30" y="762">Warm 1</text><text fill="black" font-family="Arial" font-size="12px" x="30" y="910">#FDEEEF</text></g><g id="Warm_1_Bottom_Swatch"><rect fill="#FDEEEF" height="120" rx="10" ry="10" width="120" x="20" y="2098.0" /><text fill="white" font-family="Arial" font-size="15px" x="30" y="2088.0">Warm 1</text><text fill="white" font-family="Arial" font-size="12px" x="30" y="2236.0">#FDEEEF</text></g><g id="Warm_2_Top_Swatch"><rect fill="#F7CACE" height="120" rx="10" ry="10" width="120" x="160" y="772" /><text fill="black" font-family="Arial" font-size="15px" x="170" y="762">Warm 2</text><text fill="black" font-family="Arial" font-size="12px" x="170" y="910">#F7CACE</text></g><g id="Warm_2_Bottom_Swatch"><rect fill="#F7CACE" height="120" rx="10" ry="10" width="120" x="160" y="2098.0" /><text fill="white" font-family="Arial" font-size="15px" x="170" y="2088.0">Warm 2</text><text fill="white" font-family="Arial" font-size="12px" x="170" y="2236.0">#F7CACE</text></g><g id="Warm_3_Main__Top_Swatch"><rect fill="#C88389" height="120" rx="10" ry="10" width="120" x="300" y="772" /><text fill="black" font-family="Arial" font-size="15px" x="310" y="762">Warm 3 (Main)</text><text fill="black" font-family="Arial" font-size="12px" x="310" y="910">#C88389</text></g><g id="Warm_3_Main__Bottom_Swatch"><rect fill="#C88389" height="120" rx="10" ry="10" width="120" x="300" y="2098.0" /><text fill="white" font-family="Arial" font-size="15px" x="310" y="2088.0">Warm 3 (Main)</text><text fill="white" font-family="Arial" font-size="12px" x="310" y="2236.0">#C88389</text></g><g id="Warm_4_Top_Swatch"><rect fill="#9A666A" height="120" rx="10" ry="10" width="120" x="440" y="772" /><text fill="black" font-family="Arial" font-size="15px" x="450" y="762">Warm 4</text><text fill="black" font-family="Arial" font-size="12px" x="450" y="910">#9A666A</text></g><g id="Warm_4_Bottom_Swatch"><rect fill="#9A666A" height="120" rx="10" ry="10" width="120" x="440" y="2098.0" /><text fill="white" font-family="Arial" font-size="15px" x="450" y="2088.0">Warm 4</text><text fill="white" font-family="Arial" font-size="12px" x="450" y="2236.0">#9A666A</text></g><g id="Warm_5_Darker__Top_Swatch"><rect fill="#6F4A4D" height="120" rx="10" ry="10" width="120" x="580" y="772" /><text fill="black" font-family="Arial" font-size="15px" x="590" y="762">Warm 5 (Darker)</text><text fill="black" font-family="Arial" font-size="12px" x="590" y="910">#6F4A4D</text></g><g id="Warm_5_Darker__Bottom_Swatch"><rect fill="#6F4A4D" height="120" rx="10" ry="10" width="120" x="580" y="2098.0" /><text fill="white" font-family="Arial" font-size="15px" x="590" y="2088.0">Warm 5 (Darker)</text><text fill="white" font-family="Arial" font-size="12px" x="590" y="2236.0">#6F4A4D</text></g><g id="Neutral_1_Top_Swatch"><rect fill="#F2F5F5" height="120" rx="10" ry="10" width="120" x="20" y="960" /><text fill="black" font-family="Arial" font-size="15px" x="30" y="950">Neutral 1</text><text fill="black" font-family="Arial" font-size="12px" x="30" y="1098">#F2F5F5</text></g><g id="Neutral_1_Bottom_Swatch"><rect fill="#F2F5F5" height="120" rx="10" ry="10" width="120" x="20" y="2286.0" /><text fill="white" font-family="Arial" font-size="15px" x="30" y="2276.0">Neutral 1</text><text fill="white" font-family="Arial" font-size="12px" x="30" y="2424.0">#F2F5F5</text></g><g id="Neutral_2_Top_Swatch"><rect fill="#CCD7D8" height="120" rx="10" ry="10" width="120" x="160" y="960" /><text fill="black" font-family="Arial" font-size="15px" x="170" y="950">Neutral 2</text><text fill="black" font-family="Arial" font-size="12px" x="170" y="1098">#CCD7D8</text></g><g id="Neutral_2_Bottom_Swatch"><rect fill="#CCD7D8" height="120" rx="10" ry="10" width="120" x="160" y="2286.0" /><text fill="white" font-family="Arial" font-size="15px" x="170" y="2276.0">Neutral 2</text><text fill="white" font-family="Arial" font-size="12px" x="170" y="2424.0">#CCD7D8</text></g><g id="Neutral_3_Main__Top_Swatch"><rect fill="#AAB7B8" height="120" rx="10" ry="10" width="120" x="300" y="960" /><text fill="black" font-family="Arial" font-size="15px" x="310" y="950">Neutral 3 (Main)</text><text fill="black" font-family="Arial" font-size="12px" x="310" y="1098">#AAB7B8</text></g><g id="Neutral_3_Main__Bottom_Swatch"><rect fill="#AAB7B8" height="120" rx="10" ry="10" width="120" x="300" y="2286.0" /><text fill="white" font-family="Arial" font-size="15px" x="310" y="2276.0">Neutral 3 (Main)</text><text fill="white" font-family="Arial" font-size="12px" x="310" y="2424.0">#AAB7B8</text></g><g id="Neutral_4_Top_Swatch"><rect fill="#889394" height="120" rx="10" ry="10" width="120" x="440" y="960" /><text fill="black" font-family="Arial" font-size="15px" x="450" y="950">Neutral 4</text><text fill="black" font-family="Arial" font-size="12px" x="450" y="1098">#889394</text></g><g id="Neutral_4_Bottom_Swatch"><rect fill="#889394" height="120" rx="10" ry="10" width="120" x="440" y="2286.0" /><text fill="white" font-family="Arial" font-size="15px" x="450" y="2276.0">Neutral 4</text><text fill="white" font-family="Arial" font-size="12px" x="450" y="2424.0">#889394</text></g><g id="Neutral_5_Darker__Top_Swatch"><rect fill="#656D6E" height="120" rx="10" ry="10" width="120" x="580" y="960" /><text fill="black" font-family="Arial" font-size="15px" x="590" y="950">Neutral 5 (Darker)</text><text fill="black" font-family="Arial" font-size="12px" x="590" y="1098">#656D6E</text></g><g id="Neutral_5_Darker__Bottom_Swatch"><rect fill="#656D6E" height="120" rx="10" ry="10" width="120" x="580" y="2286.0" /><text fill="white" font-family="Arial" font-size="15px" x="590" y="2276.0">Neutral 5 (Darker)</text><text fill="white" font-family="Arial" font-size="12px" x="590" y="2424.0">#656D6E</text></g><g id="Depth_1_Top_Swatch"><rect fill="#E6EAEA" height="120" rx="10" ry="10" width="120" x="20" y="1148" /><text fill="black" font-family="Arial" font-size="15px" x="30" y="1138">Depth 1</text><text fill="black" font-family="Arial" font-size="12px" x="30" y="1286">#E6EAEA</text></g><g id="Depth_1_Bottom_Swatch"><rect fill="#E6EAEA" height="120" rx="10" ry="10" width="120" x="20" y="2474.0" /><text fill="white" font-family="Arial" font-size="15px" x="30" y="2464.0">Depth 1</text><text fill="white" font-family="Arial" font-size="12px" x="30" y="2612.0">#E6EAEA</text></g><g id="Depth_2_Top_Swatch"><rect fill="#B0B7C0" height="120" rx="10" ry="10" width="120" x="160" y="1148" /><text fill="black" font-family="Arial" font-size="15px" x="170" y="1138">Depth 2</text><text fill="black" font-family="Arial" font-size="12px" x="170" y="1286">#B0B7C0</text></g><g id="Depth_2_Bottom_Swatch"><rect fill="#B0B7C0" height="120" rx="10" ry="10" width="120" x="160" y="2474.0" /><text fill="white" font-family="Arial" font-size="15px" x="170" y="2464.0">Depth 2</text><text fill="white" font-family="Arial" font-size="12px" x="170" y="2612.0">#B0B7C0</text></g><g id="Depth_3_Main__Top_Swatch"><rect fill="#2C3E50" height="120" rx="10" ry="10" width="120" x="300" y="1148" /><text fill="black" font-family="Arial" font-size="15px" x="310" y="1138">Depth 3 (Main)</text><text fill="black" font-family="Arial" font-size="12px" x="310" y="1286">#2C3E50</text></g><g id="Depth_3_Main__Bottom_Swatch"><rect fill="#2C3E50" height="120" rx="10" ry="10" width="120" x="300" y="2474.0" /><text fill="white" font-family="Arial" font-size="15px" x="310" y="2464.0">Depth 3 (Main)</text><text fill="white" font-family="Arial" font-size="12px" x="310" y="2612.0">#2C3E50</text></g><g id="Depth_4_Top_Swatch"><rect fill="#1E2B3C" height="120" rx="10" ry="10" width="120" x="440" y="1148" /><text fill="black" font-family="Arial" font-size="15px" x="450" y="1138">Depth 4</text><text fill="black" font-family="Arial" font-size="12px" x="450" y="1286">#1E2B3C</text></g><g id="Depth_4_Bottom_Swatch"><rect fill="#1E2B3C" height="120" rx="10" ry="10" width="120" x="440" y="2474.0" /><text fill="white" font-family="Arial" font-size="15px" x="450" y="2464.0">Depth 4</text><text fill="white" font-family="Arial" font-size="12px" x="450" y="2612.0">#1E2B3C</text></g><g id="Depth_5_Darker__Top_Swatch"><rect fill="#131D28" height="120" rx="10" ry="10" width="120" x="580" y="1148" /><text fill="black" font-family="Arial" font-size="15px" x="590" y="1138">Depth 5 (Darker)</text><text fill="black" font-family="Arial" font-size="12px" x="590" y="1286">#131D28</text></g><g id="Depth_5_Darker__Bottom_Swatch"><rect fill="#131D28" height="120" rx="10" ry="10" width="120" x="580" y="2474.0" /><text fill="white" font-family="Arial" font-size="15px" x="590" y="2464.0">Depth 5 (Darker)</text><text fill="white" font-family="Arial" font-size="12px" x="590" y="2612.0">#131D28</text></g></svg>