<?xml version="1.0" encoding="utf-8" ?>
<svg baseProfile="tiny" height="1524" version="1.2" width="720" xmlns="http://www.w3.org/2000/svg" xmlns:ev="http://www.w3.org/2001/xml-events" xmlns:xlink="http://www.w3.org/1999/xlink"><defs /><rect fill="white" height="742.0" rx="10" ry="10" width="700" x="10.0" y="10.0" /><rect fill="black" height="742.0" rx="10" ry="10" width="700" x="10.0" y="772.0" /><g id="Primary_1_Top_Swatch"><rect fill="#FFFFFF" height="120" rx="10" ry="10" width="120" x="20" y="20" /><text fill="black" font-family="Arial" font-size="15px" x="30" y="10">Primary 1</text><text fill="black" font-family="Arial" font-size="12px" x="30" y="158">#FFFFFF</text></g><g id="Primary_1_Bottom_Swatch"><rect fill="#FFFFFF" height="120" rx="10" ry="10" width="120" x="20" y="782.0" /><text fill="white" font-family="Arial" font-size="15px" x="30" y="772.0">Primary 1</text><text fill="white" font-family="Arial" font-size="12px" x="30" y="920.0">#FFFFFF</text></g><g id="Primary_2_Top_Swatch"><rect fill="#F2F2F2" height="120" rx="10" ry="10" width="120" x="160" y="20" /><text fill="black" font-family="Arial" font-size="15px" x="170" y="10">Primary 2</text><text fill="black" font-family="Arial" font-size="12px" x="170" y="158">#F2F2F2</text></g><g id="Primary_2_Bottom_Swatch"><rect fill="#F2F2F2" height="120" rx="10" ry="10" width="120" x="160" y="782.0" /><text fill="white" font-family="Arial" font-size="15px" x="170" y="772.0">Primary 2</text><text fill="white" font-family="Arial" font-size="12px" x="170" y="920.0">#F2F2F2</text></g><g id="Primary_3_Main__Top_Swatch"><rect fill="#FF0000" height="120" rx="10" ry="10" width="120" x="300" y="20" /><text fill="black" font-family="Arial" font-size="15px" x="310" y="10">Primary 3 (Main)</text><text fill="black" font-family="Arial" font-size="12px" x="310" y="158">#FF0000</text></g><g id="Primary_3_Main__Bottom_Swatch"><rect fill="#FF0000" height="120" rx="10" ry="10" width="120" x="300" y="782.0" /><text fill="white" font-family="Arial" font-size="15px" x="310" y="772.0">Primary 3 (Main)</text><text fill="white" font-family="Arial" font-size="12px" x="310" y="920.0">#FF0000</text></g><g id="Primary_4_Top_Swatch"><rect fill="#CC0000" height="120" rx="10" ry="10" width="120" x="440" y="20" /><text fill="black" font-family="Arial" font-size="15px" x="450" y="10">Primary 4</text><text fill="black" font-family="Arial" font-size="12px" x="450" y="158">#CC0000</text></g><g id="Primary_4_Bottom_Swatch"><rect fill="#CC0000" height="120" rx="10" ry="10" width="120" x="440" y="782.0" /><text fill="white" font-family="Arial" font-size="15px" x="450" y="772.0">Primary 4</text><text fill="white" font-family="Arial" font-size="12px" x="450" y="920.0">#CC0000</text></g><g id="Primary_5_Darker__Top_Swatch"><rect fill="#990000" height="120" rx="10" ry="10" width="120" x="580" y="20" /><text fill="black" font-family="Arial" font-size="15px" x="590" y="10">Primary 5 (Darker)</text><text fill="black" font-family="Arial" font-size="12px" x="590" y="158">#990000</text></g><g id="Primary_5_Darker__Bottom_Swatch"><rect fill="#990000" height="120" rx="10" ry="10" width="120" x="580" y="782.0" /><text fill="white" font-family="Arial" font-size="15px" x="590" y="772.0">Primary 5 (Darker)</text><text fill="white" font-family="Arial" font-size="12px" x="590" y="920.0">#990000</text></g><g id="Secondary_1_Top_Swatch"><rect fill="#A9A9A9" height="120" rx="10" ry="10" width="120" x="20" y="208" /><text fill="black" font-family="Arial" font-size="15px" x="30" y="198">Secondary 1</text><text fill="black" font-family="Arial" font-size="12px" x="30" y="346">#A9A9A9</text></g><g id="Secondary_1_Bottom_Swatch"><rect fill="#A9A9A9" height="120" rx="10" ry="10" width="120" x="20" y="970.0" /><text fill="white" font-family="Arial" font-size="15px" x="30" y="960.0">Secondary 1</text><text fill="white" font-family="Arial" font-size="12px" x="30" y="1108.0">#A9A9A9</text></g><g id="Secondary_2_Top_Swatch"><rect fill="#666666" height="120" rx="10" ry="10" width="120" x="160" y="208" /><text fill="black" font-family="Arial" font-size="15px" x="170" y="198">Secondary 2</text><text fill="black" font-family="Arial" font-size="12px" x="170" y="346">#666666</text></g><g id="Secondary_2_Bottom_Swatch"><rect fill="#666666" height="120" rx="10" ry="10" width="120" x="160" y="970.0" /><text fill="white" font-family="Arial" font-size="15px" x="170" y="960.0">Secondary 2</text><text fill="white" font-family="Arial" font-size="12px" x="170" y="1108.0">#666666</text></g><g id="Secondary_3_Main__Top_Swatch"><rect fill="#333333" height="120" rx="10" ry="10" width="120" x="300" y="208" /><text fill="black" font-family="Arial" font-size="15px" x="310" y="198">Secondary 3 (Main)</text><text fill="black" font-family="Arial" font-size="12px" x="310" y="346">#333333</text></g><g id="Secondary_3_Main__Bottom_Swatch"><rect fill="#333333" height="120" rx="10" ry="10" width="120" x="300" y="970.0" /><text fill="white" font-family="Arial" font-size="15px" x="310" y="960.0">Secondary 3 (Main)</text><text fill="white" font-family="Arial" font-size="12px" x="310" y="1108.0">#333333</text></g><g id="Secondary_4_Top_Swatch"><rect fill="#000000" height="120" rx="10" ry="10" width="120" x="440" y="208" /><text fill="black" font-family="Arial" font-size="15px" x="450" y="198">Secondary 4</text><text fill="black" font-family="Arial" font-size="12px" x="450" y="346">#000000</text></g><g id="Secondary_4_Bottom_Swatch"><rect fill="#000000" height="120" rx="10" ry="10" width="120" x="440" y="970.0" /><text fill="white" font-family="Arial" font-size="15px" x="450" y="960.0">Secondary 4</text><text fill="white" font-family="Arial" font-size="12px" x="450" y="1108.0">#000000</text></g><g id="Secondary_5_Darker__Top_Swatch"><rect fill="#1A1A1A" height="120" rx="10" ry="10" width="120" x="580" y="208" /><text fill="black" font-family="Arial" font-size="15px" x="590" y="198">Secondary 5 (Darker)</text><text fill="black" font-family="Arial" font-size="12px" x="590" y="346">#1A1A1A</text></g><g id="Secondary_5_Darker__Bottom_Swatch"><rect fill="#1A1A1A" height="120" rx="10" ry="10" width="120" x="580" y="970.0" /><text fill="white" font-family="Arial" font-size="15px" x="590" y="960.0">Secondary 5 (Darker)</text><text fill="white" font-family="Arial" font-size="12px" x="590" y="1108.0">#1A1A1A</text></g><g id="Accent_1_Top_Swatch"><rect fill="#66CCFF" height="120" rx="10" ry="10" width="120" x="20" y="396" /><text fill="black" font-family="Arial" font-size="15px" x="30" y="386">Accent 1</text><text fill="black" font-family="Arial" font-size="12px" x="30" y="534">#66CCFF</text></g><g id="Accent_1_Bottom_Swatch"><rect fill="#66CCFF" height="120" rx="10" ry="10" width="120" x="20" y="1158.0" /><text fill="white" font-family="Arial" font-size="15px" x="30" y="1148.0">Accent 1</text><text fill="white" font-family="Arial" font-size="12px" x="30" y="1296.0">#66CCFF</text></g><g id="Accent_2_Top_Swatch"><rect fill="#3399FF" height="120" rx="10" ry="10" width="120" x="160" y="396" /><text fill="black" font-family="Arial" font-size="15px" x="170" y="386">Accent 2</text><text fill="black" font-family="Arial" font-size="12px" x="170" y="534">#3399FF</text></g><g id="Accent_2_Bottom_Swatch"><rect fill="#3399FF" height="120" rx="10" ry="10" width="120" x="160" y="1158.0" /><text fill="white" font-family="Arial" font-size="15px" x="170" y="1148.0">Accent 2</text><text fill="white" font-family="Arial" font-size="12px" x="170" y="1296.0">#3399FF</text></g><g id="Accent_3_Main__Top_Swatch"><rect fill="#0066CC" height="120" rx="10" ry="10" width="120" x="300" y="396" /><text fill="black" font-family="Arial" font-size="15px" x="310" y="386">Accent 3 (Main)</text><text fill="black" font-family="Arial" font-size="12px" x="310" y="534">#0066CC</text></g><g id="Accent_3_Main__Bottom_Swatch"><rect fill="#0066CC" height="120" rx="10" ry="10" width="120" x="300" y="1158.0" /><text fill="white" font-family="Arial" font-size="15px" x="310" y="1148.0">Accent 3 (Main)</text><text fill="white" font-family="Arial" font-size="12px" x="310" y="1296.0">#0066CC</text></g><g id="Accent_4_Top_Swatch"><rect fill="#004080" height="120" rx="10" ry="10" width="120" x="440" y="396" /><text fill="black" font-family="Arial" font-size="15px" x="450" y="386">Accent 4</text><text fill="black" font-family="Arial" font-size="12px" x="450" y="534">#004080</text></g><g id="Accent_4_Bottom_Swatch"><rect fill="#004080" height="120" rx="10" ry="10" width="120" x="440" y="1158.0" /><text fill="white" font-family="Arial" font-size="15px" x="450" y="1148.0">Accent 4</text><text fill="white" font-family="Arial" font-size="12px" x="450" y="1296.0">#004080</text></g><g id="Accent_5_Darker__Top_Swatch"><rect fill="#002040" height="120" rx="10" ry="10" width="120" x="580" y="396" /><text fill="black" font-family="Arial" font-size="15px" x="590" y="386">Accent 5 (Darker)</text><text fill="black" font-family="Arial" font-size="12px" x="590" y="534">#002040</text></g><g id="Accent_5_Darker__Bottom_Swatch"><rect fill="#002040" height="120" rx="10" ry="10" width="120" x="580" y="1158.0" /><text fill="white" font-family="Arial" font-size="15px" x="590" y="1148.0">Accent 5 (Darker)</text><text fill="white" font-family="Arial" font-size="12px" x="590" y="1296.0">#002040</text></g><g id="Background_1_Top_Swatch"><rect fill="#F2F2F2" height="120" rx="10" ry="10" width="120" x="20" y="584" /><text fill="black" font-family="Arial" font-size="15px" x="30" y="574">Background 1</text><text fill="black" font-family="Arial" font-size="12px" x="30" y="722">#F2F2F2</text></g><g id="Background_1_Bottom_Swatch"><rect fill="#F2F2F2" height="120" rx="10" ry="10" width="120" x="20" y="1346.0" /><text fill="white" font-family="Arial" font-size="15px" x="30" y="1336.0">Background 1</text><text fill="white" font-family="Arial" font-size="12px" x="30" y="1484.0">#F2F2F2</text></g><g id="Background_2_Top_Swatch"><rect fill="#E0E0E0" height="120" rx="10" ry="10" width="120" x="160" y="584" /><text fill="black" font-family="Arial" font-size="15px" x="170" y="574">Background 2</text><text fill="black" font-family="Arial" font-size="12px" x="170" y="722">#E0E0E0</text></g><g id="Background_2_Bottom_Swatch"><rect fill="#E0E0E0" height="120" rx="10" ry="10" width="120" x="160" y="1346.0" /><text fill="white" font-family="Arial" font-size="15px" x="170" y="1336.0">Background 2</text><text fill="white" font-family="Arial" font-size="12px" x="170" y="1484.0">#E0E0E0</text></g><g id="Background_3_Main__Top_Swatch"><rect fill="#D0D0D0" height="120" rx="10" ry="10" width="120" x="300" y="584" /><text fill="black" font-family="Arial" font-size="15px" x="310" y="574">Background 3 (Main)</text><text fill="black" font-family="Arial" font-size="12px" x="310" y="722">#D0D0D0</text></g><g id="Background_3_Main__Bottom_Swatch"><rect fill="#D0D0D0" height="120" rx="10" ry="10" width="120" x="300" y="1346.0" /><text fill="white" font-family="Arial" font-size="15px" x="310" y="1336.0">Background 3 (Main)</text><text fill="white" font-family="Arial" font-size="12px" x="310" y="1484.0">#D0D0D0</text></g><g id="Background_4_Top_Swatch"><rect fill="#B0B0B0" height="120" rx="10" ry="10" width="120" x="440" y="584" /><text fill="black" font-family="Arial" font-size="15px" x="450" y="574">Background 4</text><text fill="black" font-family="Arial" font-size="12px" x="450" y="722">#B0B0B0</text></g><g id="Background_4_Bottom_Swatch"><rect fill="#B0B0B0" height="120" rx="10" ry="10" width="120" x="440" y="1346.0" /><text fill="white" font-family="Arial" font-size="15px" x="450" y="1336.0">Background 4</text><text fill="white" font-family="Arial" font-size="12px" x="450" y="1484.0">#B0B0B0</text></g><g id="Background_5_Darker__Top_Swatch"><rect fill="#808080" height="120" rx="10" ry="10" width="120" x="580" y="584" /><text fill="black" font-family="Arial" font-size="15px" x="590" y="574">Background 5 (Darker)</text><text fill="black" font-family="Arial" font-size="12px" x="590" y="722">#808080</text></g><g id="Background_5_Darker__Bottom_Swatch"><rect fill="#808080" height="120" rx="10" ry="10" width="120" x="580" y="1346.0" /><text fill="white" font-family="Arial" font-size="15px" x="590" y="1336.0">Background 5 (Darker)</text><text fill="white" font-family="Arial" font-size="12px" x="590" y="1484.0">#808080</text></g></svg>