<?xml version="1.0" encoding="utf-8" ?>
<svg baseProfile="tiny" height="2276" version="1.2" width="720" xmlns="http://www.w3.org/2000/svg" xmlns:ev="http://www.w3.org/2001/xml-events" xmlns:xlink="http://www.w3.org/1999/xlink"><defs /><rect fill="white" height="1118.0" rx="10" ry="10" width="700" x="10.0" y="10.0" /><rect fill="black" height="1118.0" rx="10" ry="10" width="700" x="10.0" y="1148.0" /><g id="Primary_1_Top_Swatch"><rect fill="#D4F9E2" height="120" rx="10" ry="10" width="120" x="20" y="20" /><text fill="black" font-family="Arial" font-size="15px" x="30" y="10">Primary 1</text><text fill="black" font-family="Arial" font-size="12px" x="30" y="158">#D4F9E2</text></g><g id="Primary_1_Bottom_Swatch"><rect fill="#D4F9E2" height="120" rx="10" ry="10" width="120" x="20" y="1158.0" /><text fill="white" font-family="Arial" font-size="15px" x="30" y="1148.0">Primary 1</text><text fill="white" font-family="Arial" font-size="12px" x="30" y="1296.0">#D4F9E2</text></g><g id="Primary_2_Top_Swatch"><rect fill="#8EE0B1" height="120" rx="10" ry="10" width="120" x="160" y="20" /><text fill="black" font-family="Arial" font-size="15px" x="170" y="10">Primary 2</text><text fill="black" font-family="Arial" font-size="12px" x="170" y="158">#8EE0B1</text></g><g id="Primary_2_Bottom_Swatch"><rect fill="#8EE0B1" height="120" rx="10" ry="10" width="120" x="160" y="1158.0" /><text fill="white" font-family="Arial" font-size="15px" x="170" y="1148.0">Primary 2</text><text fill="white" font-family="Arial" font-size="12px" x="170" y="1296.0">#8EE0B1</text></g><g id="Primary_3_Main__Top_Swatch"><rect fill="#2ECC71" height="120" rx="10" ry="10" width="120" x="300" y="20" /><text fill="black" font-family="Arial" font-size="15px" x="310" y="10">Primary 3 (Main)</text><text fill="black" font-family="Arial" font-size="12px" x="310" y="158">#2ECC71</text></g><g id="Primary_3_Main__Bottom_Swatch"><rect fill="#2ECC71" height="120" rx="10" ry="10" width="120" x="300" y="1158.0" /><text fill="white" font-family="Arial" font-size="15px" x="310" y="1148.0">Primary 3 (Main)</text><text fill="white" font-family="Arial" font-size="12px" x="310" y="1296.0">#2ECC71</text></g><g id="Primary_4_Top_Swatch"><rect fill="#249A57" height="120" rx="10" ry="10" width="120" x="440" y="20" /><text fill="black" font-family="Arial" font-size="15px" x="450" y="10">Primary 4</text><text fill="black" font-family="Arial" font-size="12px" x="450" y="158">#249A57</text></g><g id="Primary_4_Bottom_Swatch"><rect fill="#249A57" height="120" rx="10" ry="10" width="120" x="440" y="1158.0" /><text fill="white" font-family="Arial" font-size="15px" x="450" y="1148.0">Primary 4</text><text fill="white" font-family="Arial" font-size="12px" x="450" y="1296.0">#249A57</text></g><g id="Primary_5_Darker__Top_Swatch"><rect fill="#18713C" height="120" rx="10" ry="10" width="120" x="580" y="20" /><text fill="black" font-family="Arial" font-size="15px" x="590" y="10">Primary 5 (Darker)</text><text fill="black" font-family="Arial" font-size="12px" x="590" y="158">#18713C</text></g><g id="Primary_5_Darker__Bottom_Swatch"><rect fill="#18713C" height="120" rx="10" ry="10" width="120" x="580" y="1158.0" /><text fill="white" font-family="Arial" font-size="15px" x="590" y="1148.0">Primary 5 (Darker)</text><text fill="white" font-family="Arial" font-size="12px" x="590" y="1296.0">#18713C</text></g><g id="Secondary_1_Top_Swatch"><rect fill="#E0E9F1" height="120" rx="10" ry="10" width="120" x="20" y="208" /><text fill="black" font-family="Arial" font-size="15px" x="30" y="198">Secondary 1</text><text fill="black" font-family="Arial" font-size="12px" x="30" y="346">#E0E9F1</text></g><g id="Secondary_1_Bottom_Swatch"><rect fill="#E0E9F1" height="120" rx="10" ry="10" width="120" x="20" y="1346.0" /><text fill="white" font-family="Arial" font-size="15px" x="30" y="1336.0">Secondary 1</text><text fill="white" font-family="Arial" font-size="12px" x="30" y="1484.0">#E0E9F1</text></g><g id="Secondary_2_Top_Swatch"><rect fill="#9EB2C5" height="120" rx="10" ry="10" width="120" x="160" y="208" /><text fill="black" font-family="Arial" font-size="15px" x="170" y="198">Secondary 2</text><text fill="black" font-family="Arial" font-size="12px" x="170" y="346">#9EB2C5</text></g><g id="Secondary_2_Bottom_Swatch"><rect fill="#9EB2C5" height="120" rx="10" ry="10" width="120" x="160" y="1346.0" /><text fill="white" font-family="Arial" font-size="15px" x="170" y="1336.0">Secondary 2</text><text fill="white" font-family="Arial" font-size="12px" x="170" y="1484.0">#9EB2C5</text></g><g id="Secondary_3_Main__Top_Swatch"><rect fill="#2A3C55" height="120" rx="10" ry="10" width="120" x="300" y="208" /><text fill="black" font-family="Arial" font-size="15px" x="310" y="198">Secondary 3 (Main)</text><text fill="black" font-family="Arial" font-size="12px" x="310" y="346">#2A3C55</text></g><g id="Secondary_3_Main__Bottom_Swatch"><rect fill="#2A3C55" height="120" rx="10" ry="10" width="120" x="300" y="1346.0" /><text fill="white" font-family="Arial" font-size="15px" x="310" y="1336.0">Secondary 3 (Main)</text><text fill="white" font-family="Arial" font-size="12px" x="310" y="1484.0">#2A3C55</text></g><g id="Secondary_4_Top_Swatch"><rect fill="#1B2736" height="120" rx="10" ry="10" width="120" x="440" y="208" /><text fill="black" font-family="Arial" font-size="15px" x="450" y="198">Secondary 4</text><text fill="black" font-family="Arial" font-size="12px" x="450" y="346">#1B2736</text></g><g id="Secondary_4_Bottom_Swatch"><rect fill="#1B2736" height="120" rx="10" ry="10" width="120" x="440" y="1346.0" /><text fill="white" font-family="Arial" font-size="15px" x="450" y="1336.0">Secondary 4</text><text fill="white" font-family="Arial" font-size="12px" x="450" y="1484.0">#1B2736</text></g><g id="Secondary_5_Darker__Top_Swatch"><rect fill="#10151E" height="120" rx="10" ry="10" width="120" x="580" y="208" /><text fill="black" font-family="Arial" font-size="15px" x="590" y="198">Secondary 5 (Darker)</text><text fill="black" font-family="Arial" font-size="12px" x="590" y="346">#10151E</text></g><g id="Secondary_5_Darker__Bottom_Swatch"><rect fill="#10151E" height="120" rx="10" ry="10" width="120" x="580" y="1346.0" /><text fill="white" font-family="Arial" font-size="15px" x="590" y="1336.0">Secondary 5 (Darker)</text><text fill="white" font-family="Arial" font-size="12px" x="590" y="1484.0">#10151E</text></g><g id="Accent_1_Top_Swatch"><rect fill="#FFE8EB" height="120" rx="10" ry="10" width="120" x="20" y="396" /><text fill="black" font-family="Arial" font-size="15px" x="30" y="386">Accent 1</text><text fill="black" font-family="Arial" font-size="12px" x="30" y="534">#FFE8EB</text></g><g id="Accent_1_Bottom_Swatch"><rect fill="#FFE8EB" height="120" rx="10" ry="10" width="120" x="20" y="1534.0" /><text fill="white" font-family="Arial" font-size="15px" x="30" y="1524.0">Accent 1</text><text fill="white" font-family="Arial" font-size="12px" x="30" y="1672.0">#FFE8EB</text></g><g id="Accent_2_Top_Swatch"><rect fill="#FF8994" height="120" rx="10" ry="10" width="120" x="160" y="396" /><text fill="black" font-family="Arial" font-size="15px" x="170" y="386">Accent 2</text><text fill="black" font-family="Arial" font-size="12px" x="170" y="534">#FF8994</text></g><g id="Accent_2_Bottom_Swatch"><rect fill="#FF8994" height="120" rx="10" ry="10" width="120" x="160" y="1534.0" /><text fill="white" font-family="Arial" font-size="15px" x="170" y="1524.0">Accent 2</text><text fill="white" font-family="Arial" font-size="12px" x="170" y="1672.0">#FF8994</text></g><g id="Accent_3_Main__Top_Swatch"><rect fill="#E63946" height="120" rx="10" ry="10" width="120" x="300" y="396" /><text fill="black" font-family="Arial" font-size="15px" x="310" y="386">Accent 3 (Main)</text><text fill="black" font-family="Arial" font-size="12px" x="310" y="534">#E63946</text></g><g id="Accent_3_Main__Bottom_Swatch"><rect fill="#E63946" height="120" rx="10" ry="10" width="120" x="300" y="1534.0" /><text fill="white" font-family="Arial" font-size="15px" x="310" y="1524.0">Accent 3 (Main)</text><text fill="white" font-family="Arial" font-size="12px" x="310" y="1672.0">#E63946</text></g><g id="Accent_4_Top_Swatch"><rect fill="#A72430" height="120" rx="10" ry="10" width="120" x="440" y="396" /><text fill="black" font-family="Arial" font-size="15px" x="450" y="386">Accent 4</text><text fill="black" font-family="Arial" font-size="12px" x="450" y="534">#A72430</text></g><g id="Accent_4_Bottom_Swatch"><rect fill="#A72430" height="120" rx="10" ry="10" width="120" x="440" y="1534.0" /><text fill="white" font-family="Arial" font-size="15px" x="450" y="1524.0">Accent 4</text><text fill="white" font-family="Arial" font-size="12px" x="450" y="1672.0">#A72430</text></g><g id="Accent_5_Darker__Top_Swatch"><rect fill="#6A141C" height="120" rx="10" ry="10" width="120" x="580" y="396" /><text fill="black" font-family="Arial" font-size="15px" x="590" y="386">Accent 5 (Darker)</text><text fill="black" font-family="Arial" font-size="12px" x="590" y="534">#6A141C</text></g><g id="Accent_5_Darker__Bottom_Swatch"><rect fill="#6A141C" height="120" rx="10" ry="10" width="120" x="580" y="1534.0" /><text fill="white" font-family="Arial" font-size="15px" x="590" y="1524.0">Accent 5 (Darker)</text><text fill="white" font-family="Arial" font-size="12px" x="590" y="1672.0">#6A141C</text></g><g id="Highlight_1_Top_Swatch"><rect fill="#FFF5E6" height="120" rx="10" ry="10" width="120" x="20" y="584" /><text fill="black" font-family="Arial" font-size="15px" x="30" y="574">Highlight 1</text><text fill="black" font-family="Arial" font-size="12px" x="30" y="722">#FFF5E6</text></g><g id="Highlight_1_Bottom_Swatch"><rect fill="#FFF5E6" height="120" rx="10" ry="10" width="120" x="20" y="1722.0" /><text fill="white" font-family="Arial" font-size="15px" x="30" y="1712.0">Highlight 1</text><text fill="white" font-family="Arial" font-size="12px" x="30" y="1860.0">#FFF5E6</text></g><g id="Highlight_2_Top_Swatch"><rect fill="#FFC78C" height="120" rx="10" ry="10" width="120" x="160" y="584" /><text fill="black" font-family="Arial" font-size="15px" x="170" y="574">Highlight 2</text><text fill="black" font-family="Arial" font-size="12px" x="170" y="722">#FFC78C</text></g><g id="Highlight_2_Bottom_Swatch"><rect fill="#FFC78C" height="120" rx="10" ry="10" width="120" x="160" y="1722.0" /><text fill="white" font-family="Arial" font-size="15px" x="170" y="1712.0">Highlight 2</text><text fill="white" font-family="Arial" font-size="12px" x="170" y="1860.0">#FFC78C</text></g><g id="Highlight_3_Main__Top_Swatch"><rect fill="#F5A041" height="120" rx="10" ry="10" width="120" x="300" y="584" /><text fill="black" font-family="Arial" font-size="15px" x="310" y="574">Highlight 3 (Main)</text><text fill="black" font-family="Arial" font-size="12px" x="310" y="722">#F5A041</text></g><g id="Highlight_3_Main__Bottom_Swatch"><rect fill="#F5A041" height="120" rx="10" ry="10" width="120" x="300" y="1722.0" /><text fill="white" font-family="Arial" font-size="15px" x="310" y="1712.0">Highlight 3 (Main)</text><text fill="white" font-family="Arial" font-size="12px" x="310" y="1860.0">#F5A041</text></g><g id="Highlight_4_Top_Swatch"><rect fill="#B37733" height="120" rx="10" ry="10" width="120" x="440" y="584" /><text fill="black" font-family="Arial" font-size="15px" x="450" y="574">Highlight 4</text><text fill="black" font-family="Arial" font-size="12px" x="450" y="722">#B37733</text></g><g id="Highlight_4_Bottom_Swatch"><rect fill="#B37733" height="120" rx="10" ry="10" width="120" x="440" y="1722.0" /><text fill="white" font-family="Arial" font-size="15px" x="450" y="1712.0">Highlight 4</text><text fill="white" font-family="Arial" font-size="12px" x="450" y="1860.0">#B37733</text></g><g id="Highlight_5_Darker__Top_Swatch"><rect fill="#7A551E" height="120" rx="10" ry="10" width="120" x="580" y="584" /><text fill="black" font-family="Arial" font-size="15px" x="590" y="574">Highlight 5 (Darker)</text><text fill="black" font-family="Arial" font-size="12px" x="590" y="722">#7A551E</text></g><g id="Highlight_5_Darker__Bottom_Swatch"><rect fill="#7A551E" height="120" rx="10" ry="10" width="120" x="580" y="1722.0" /><text fill="white" font-family="Arial" font-size="15px" x="590" y="1712.0">Highlight 5 (Darker)</text><text fill="white" font-family="Arial" font-size="12px" x="590" y="1860.0">#7A551E</text></g><g id="Neutral_1_Top_Swatch"><rect fill="#F9FAFA" height="120" rx="10" ry="10" width="120" x="20" y="772" /><text fill="black" font-family="Arial" font-size="15px" x="30" y="762">Neutral 1</text><text fill="black" font-family="Arial" font-size="12px" x="30" y="910">#F9FAFA</text></g><g id="Neutral_1_Bottom_Swatch"><rect fill="#F9FAFA" height="120" rx="10" ry="10" width="120" x="20" y="1910.0" /><text fill="white" font-family="Arial" font-size="15px" x="30" y="1900.0">Neutral 1</text><text fill="white" font-family="Arial" font-size="12px" x="30" y="2048.0">#F9FAFA</text></g><g id="Neutral_2_Top_Swatch"><rect fill="#C5D1D2" height="120" rx="10" ry="10" width="120" x="160" y="772" /><text fill="black" font-family="Arial" font-size="15px" x="170" y="762">Neutral 2</text><text fill="black" font-family="Arial" font-size="12px" x="170" y="910">#C5D1D2</text></g><g id="Neutral_2_Bottom_Swatch"><rect fill="#C5D1D2" height="120" rx="10" ry="10" width="120" x="160" y="1910.0" /><text fill="white" font-family="Arial" font-size="15px" x="170" y="1900.0">Neutral 2</text><text fill="white" font-family="Arial" font-size="12px" x="170" y="2048.0">#C5D1D2</text></g><g id="Neutral_3_Main__Top_Swatch"><rect fill="#8FA0A2" height="120" rx="10" ry="10" width="120" x="300" y="772" /><text fill="black" font-family="Arial" font-size="15px" x="310" y="762">Neutral 3 (Main)</text><text fill="black" font-family="Arial" font-size="12px" x="310" y="910">#8FA0A2</text></g><g id="Neutral_3_Main__Bottom_Swatch"><rect fill="#8FA0A2" height="120" rx="10" ry="10" width="120" x="300" y="1910.0" /><text fill="white" font-family="Arial" font-size="15px" x="310" y="1900.0">Neutral 3 (Main)</text><text fill="white" font-family="Arial" font-size="12px" x="310" y="2048.0">#8FA0A2</text></g><g id="Neutral_4_Top_Swatch"><rect fill="#606A6B" height="120" rx="10" ry="10" width="120" x="440" y="772" /><text fill="black" font-family="Arial" font-size="15px" x="450" y="762">Neutral 4</text><text fill="black" font-family="Arial" font-size="12px" x="450" y="910">#606A6B</text></g><g id="Neutral_4_Bottom_Swatch"><rect fill="#606A6B" height="120" rx="10" ry="10" width="120" x="440" y="1910.0" /><text fill="white" font-family="Arial" font-size="15px" x="450" y="1900.0">Neutral 4</text><text fill="white" font-family="Arial" font-size="12px" x="450" y="2048.0">#606A6B</text></g><g id="Neutral_5_Darker__Top_Swatch"><rect fill="#303435" height="120" rx="10" ry="10" width="120" x="580" y="772" /><text fill="black" font-family="Arial" font-size="15px" x="590" y="762">Neutral 5 (Darker)</text><text fill="black" font-family="Arial" font-size="12px" x="590" y="910">#303435</text></g><g id="Neutral_5_Darker__Bottom_Swatch"><rect fill="#303435" height="120" rx="10" ry="10" width="120" x="580" y="1910.0" /><text fill="white" font-family="Arial" font-size="15px" x="590" y="1900.0">Neutral 5 (Darker)</text><text fill="white" font-family="Arial" font-size="12px" x="590" y="2048.0">#303435</text></g><g id="Depth_1_Top_Swatch"><rect fill="#EFF2F3" height="120" rx="10" ry="10" width="120" x="20" y="960" /><text fill="black" font-family="Arial" font-size="15px" x="30" y="950">Depth 1</text><text fill="black" font-family="Arial" font-size="12px" x="30" y="1098">#EFF2F3</text></g><g id="Depth_1_Bottom_Swatch"><rect fill="#EFF2F3" height="120" rx="10" ry="10" width="120" x="20" y="2098.0" /><text fill="white" font-family="Arial" font-size="15px" x="30" y="2088.0">Depth 1</text><text fill="white" font-family="Arial" font-size="12px" x="30" y="2236.0">#EFF2F3</text></g><g id="Depth_2_Top_Swatch"><rect fill="#A9B1BB" height="120" rx="10" ry="10" width="120" x="160" y="960" /><text fill="black" font-family="Arial" font-size="15px" x="170" y="950">Depth 2</text><text fill="black" font-family="Arial" font-size="12px" x="170" y="1098">#A9B1BB</text></g><g id="Depth_2_Bottom_Swatch"><rect fill="#A9B1BB" height="120" rx="10" ry="10" width="120" x="160" y="2098.0" /><text fill="white" font-family="Arial" font-size="15px" x="170" y="2088.0">Depth 2</text><text fill="white" font-family="Arial" font-size="12px" x="170" y="2236.0">#A9B1BB</text></g><g id="Depth_3_Main__Top_Swatch"><rect fill="#50677F" height="120" rx="10" ry="10" width="120" x="300" y="960" /><text fill="black" font-family="Arial" font-size="15px" x="310" y="950">Depth 3 (Main)</text><text fill="black" font-family="Arial" font-size="12px" x="310" y="1098">#50677F</text></g><g id="Depth_3_Main__Bottom_Swatch"><rect fill="#50677F" height="120" rx="10" ry="10" width="120" x="300" y="2098.0" /><text fill="white" font-family="Arial" font-size="15px" x="310" y="2088.0">Depth 3 (Main)</text><text fill="white" font-family="Arial" font-size="12px" x="310" y="2236.0">#50677F</text></g><g id="Depth_4_Top_Swatch"><rect fill="#32495C" height="120" rx="10" ry="10" width="120" x="440" y="960" /><text fill="black" font-family="Arial" font-size="15px" x="450" y="950">Depth 4</text><text fill="black" font-family="Arial" font-size="12px" x="450" y="1098">#32495C</text></g><g id="Depth_4_Bottom_Swatch"><rect fill="#32495C" height="120" rx="10" ry="10" width="120" x="440" y="2098.0" /><text fill="white" font-family="Arial" font-size="15px" x="450" y="2088.0">Depth 4</text><text fill="white" font-family="Arial" font-size="12px" x="450" y="2236.0">#32495C</text></g><g id="Depth_5_Darker__Top_Swatch"><rect fill="#192533" height="120" rx="10" ry="10" width="120" x="580" y="960" /><text fill="black" font-family="Arial" font-size="15px" x="590" y="950">Depth 5 (Darker)</text><text fill="black" font-family="Arial" font-size="12px" x="590" y="1098">#192533</text></g><g id="Depth_5_Darker__Bottom_Swatch"><rect fill="#192533" height="120" rx="10" ry="10" width="120" x="580" y="2098.0" /><text fill="white" font-family="Arial" font-size="15px" x="590" y="2088.0">Depth 5 (Darker)</text><text fill="white" font-family="Arial" font-size="12px" x="590" y="2236.0">#192533</text></g></svg>