<?xml version="1.0" encoding="utf-8" ?>
<svg baseProfile="tiny" height="3028" version="1.2" width="720" xmlns="http://www.w3.org/2000/svg" xmlns:ev="http://www.w3.org/2001/xml-events" xmlns:xlink="http://www.w3.org/1999/xlink"><defs /><rect fill="white" height="1494.0" rx="10" ry="10" width="700" x="10.0" y="10.0" /><rect fill="black" height="1494.0" rx="10" ry="10" width="700" x="10.0" y="1524.0" /><g id="Primary_1_Top_Swatch"><rect fill="#F2FAF7" height="120" rx="10" ry="10" width="120" x="20" y="20" /><text fill="black" font-family="Arial" font-size="15px" x="30" y="10">Primary 1</text><text fill="black" font-family="Arial" font-size="12px" x="30" y="158">#F2FAF7</text></g><g id="Primary_1_Bottom_Swatch"><rect fill="#F2FAF7" height="120" rx="10" ry="10" width="120" x="20" y="1534.0" /><text fill="white" font-family="Arial" font-size="15px" x="30" y="1524.0">Primary 1</text><text fill="white" font-family="Arial" font-size="12px" x="30" y="1672.0">#F2FAF7</text></g><g id="Primary_2_Top_Swatch"><rect fill="#E0F3EC" height="120" rx="10" ry="10" width="120" x="160" y="20" /><text fill="black" font-family="Arial" font-size="15px" x="170" y="10">Primary 2</text><text fill="black" font-family="Arial" font-size="12px" x="170" y="158">#E0F3EC</text></g><g id="Primary_2_Bottom_Swatch"><rect fill="#E0F3EC" height="120" rx="10" ry="10" width="120" x="160" y="1534.0" /><text fill="white" font-family="Arial" font-size="15px" x="170" y="1524.0">Primary 2</text><text fill="white" font-family="Arial" font-size="12px" x="170" y="1672.0">#E0F3EC</text></g><g id="Primary_3_Top_Swatch"><rect fill="#C2E7D8" height="120" rx="10" ry="10" width="120" x="300" y="20" /><text fill="black" font-family="Arial" font-size="15px" x="310" y="10">Primary 3</text><text fill="black" font-family="Arial" font-size="12px" x="310" y="158">#C2E7D8</text></g><g id="Primary_3_Bottom_Swatch"><rect fill="#C2E7D8" height="120" rx="10" ry="10" width="120" x="300" y="1534.0" /><text fill="white" font-family="Arial" font-size="15px" x="310" y="1524.0">Primary 3</text><text fill="white" font-family="Arial" font-size="12px" x="310" y="1672.0">#C2E7D8</text></g><g id="Primary_4_Top_Swatch"><rect fill="#A4DBC4" height="120" rx="10" ry="10" width="120" x="440" y="20" /><text fill="black" font-family="Arial" font-size="15px" x="450" y="10">Primary 4</text><text fill="black" font-family="Arial" font-size="12px" x="450" y="158">#A4DBC4</text></g><g id="Primary_4_Bottom_Swatch"><rect fill="#A4DBC4" height="120" rx="10" ry="10" width="120" x="440" y="1534.0" /><text fill="white" font-family="Arial" font-size="15px" x="450" y="1524.0">Primary 4</text><text fill="white" font-family="Arial" font-size="12px" x="450" y="1672.0">#A4DBC4</text></g><g id="Primary_5_Top_Swatch"><rect fill="#86CFB1" height="120" rx="10" ry="10" width="120" x="580" y="20" /><text fill="black" font-family="Arial" font-size="15px" x="590" y="10">Primary 5</text><text fill="black" font-family="Arial" font-size="12px" x="590" y="158">#86CFB1</text></g><g id="Primary_5_Bottom_Swatch"><rect fill="#86CFB1" height="120" rx="10" ry="10" width="120" x="580" y="1534.0" /><text fill="white" font-family="Arial" font-size="15px" x="590" y="1524.0">Primary 5</text><text fill="white" font-family="Arial" font-size="12px" x="590" y="1672.0">#86CFB1</text></g><g id="Primary_6_Top_Swatch"><rect fill="#68C39D" height="120" rx="10" ry="10" width="120" x="20" y="208" /><text fill="black" font-family="Arial" font-size="15px" x="30" y="198">Primary 6</text><text fill="black" font-family="Arial" font-size="12px" x="30" y="346">#68C39D</text></g><g id="Primary_6_Bottom_Swatch"><rect fill="#68C39D" height="120" rx="10" ry="10" width="120" x="20" y="1722.0" /><text fill="white" font-family="Arial" font-size="15px" x="30" y="1712.0">Primary 6</text><text fill="white" font-family="Arial" font-size="12px" x="30" y="1860.0">#68C39D</text></g><g id="Primary_7_Top_Swatch"><rect fill="#4EA182" height="120" rx="10" ry="10" width="120" x="160" y="208" /><text fill="black" font-family="Arial" font-size="15px" x="170" y="198">Primary 7</text><text fill="black" font-family="Arial" font-size="12px" x="170" y="346">#4EA182</text></g><g id="Primary_7_Bottom_Swatch"><rect fill="#4EA182" height="120" rx="10" ry="10" width="120" x="160" y="1722.0" /><text fill="white" font-family="Arial" font-size="15px" x="170" y="1712.0">Primary 7</text><text fill="white" font-family="Arial" font-size="12px" x="170" y="1860.0">#4EA182</text></g><g id="Primary_8_Top_Swatch"><rect fill="#3B7C65" height="120" rx="10" ry="10" width="120" x="300" y="208" /><text fill="black" font-family="Arial" font-size="15px" x="310" y="198">Primary 8</text><text fill="black" font-family="Arial" font-size="12px" x="310" y="346">#3B7C65</text></g><g id="Primary_8_Bottom_Swatch"><rect fill="#3B7C65" height="120" rx="10" ry="10" width="120" x="300" y="1722.0" /><text fill="white" font-family="Arial" font-size="15px" x="310" y="1712.0">Primary 8</text><text fill="white" font-family="Arial" font-size="12px" x="310" y="1860.0">#3B7C65</text></g><g id="Primary_9_Top_Swatch"><rect fill="#2A5747" height="120" rx="10" ry="10" width="120" x="440" y="208" /><text fill="black" font-family="Arial" font-size="15px" x="450" y="198">Primary 9</text><text fill="black" font-family="Arial" font-size="12px" x="450" y="346">#2A5747</text></g><g id="Primary_9_Bottom_Swatch"><rect fill="#2A5747" height="120" rx="10" ry="10" width="120" x="440" y="1722.0" /><text fill="white" font-family="Arial" font-size="15px" x="450" y="1712.0">Primary 9</text><text fill="white" font-family="Arial" font-size="12px" x="450" y="1860.0">#2A5747</text></g><g id="Primary_10_Top_Swatch"><rect fill="#1A332A" height="120" rx="10" ry="10" width="120" x="580" y="208" /><text fill="black" font-family="Arial" font-size="15px" x="590" y="198">Primary 10</text><text fill="black" font-family="Arial" font-size="12px" x="590" y="346">#1A332A</text></g><g id="Primary_10_Bottom_Swatch"><rect fill="#1A332A" height="120" rx="10" ry="10" width="120" x="580" y="1722.0" /><text fill="white" font-family="Arial" font-size="15px" x="590" y="1712.0">Primary 10</text><text fill="white" font-family="Arial" font-size="12px" x="590" y="1860.0">#1A332A</text></g><g id="Secondary_1_Top_Swatch"><rect fill="#F3F9FA" height="120" rx="10" ry="10" width="120" x="20" y="396" /><text fill="black" font-family="Arial" font-size="15px" x="30" y="386">Secondary 1</text><text fill="black" font-family="Arial" font-size="12px" x="30" y="534">#F3F9FA</text></g><g id="Secondary_1_Bottom_Swatch"><rect fill="#F3F9FA" height="120" rx="10" ry="10" width="120" x="20" y="1910.0" /><text fill="white" font-family="Arial" font-size="15px" x="30" y="1900.0">Secondary 1</text><text fill="white" font-family="Arial" font-size="12px" x="30" y="2048.0">#F3F9FA</text></g><g id="Secondary_2_Top_Swatch"><rect fill="#DFF0F2" height="120" rx="10" ry="10" width="120" x="160" y="396" /><text fill="black" font-family="Arial" font-size="15px" x="170" y="386">Secondary 2</text><text fill="black" font-family="Arial" font-size="12px" x="170" y="534">#DFF0F2</text></g><g id="Secondary_2_Bottom_Swatch"><rect fill="#DFF0F2" height="120" rx="10" ry="10" width="120" x="160" y="1910.0" /><text fill="white" font-family="Arial" font-size="15px" x="170" y="1900.0">Secondary 2</text><text fill="white" font-family="Arial" font-size="12px" x="170" y="2048.0">#DFF0F2</text></g><g id="Secondary_3_Top_Swatch"><rect fill="#C0E1E5" height="120" rx="10" ry="10" width="120" x="300" y="396" /><text fill="black" font-family="Arial" font-size="15px" x="310" y="386">Secondary 3</text><text fill="black" font-family="Arial" font-size="12px" x="310" y="534">#C0E1E5</text></g><g id="Secondary_3_Bottom_Swatch"><rect fill="#C0E1E5" height="120" rx="10" ry="10" width="120" x="300" y="1910.0" /><text fill="white" font-family="Arial" font-size="15px" x="310" y="1900.0">Secondary 3</text><text fill="white" font-family="Arial" font-size="12px" x="310" y="2048.0">#C0E1E5</text></g><g id="Secondary_4_Top_Swatch"><rect fill="#A1D2D9" height="120" rx="10" ry="10" width="120" x="440" y="396" /><text fill="black" font-family="Arial" font-size="15px" x="450" y="386">Secondary 4</text><text fill="black" font-family="Arial" font-size="12px" x="450" y="534">#A1D2D9</text></g><g id="Secondary_4_Bottom_Swatch"><rect fill="#A1D2D9" height="120" rx="10" ry="10" width="120" x="440" y="1910.0" /><text fill="white" font-family="Arial" font-size="15px" x="450" y="1900.0">Secondary 4</text><text fill="white" font-family="Arial" font-size="12px" x="450" y="2048.0">#A1D2D9</text></g><g id="Secondary_5_Top_Swatch"><rect fill="#82C3CC" height="120" rx="10" ry="10" width="120" x="580" y="396" /><text fill="black" font-family="Arial" font-size="15px" x="590" y="386">Secondary 5</text><text fill="black" font-family="Arial" font-size="12px" x="590" y="534">#82C3CC</text></g><g id="Secondary_5_Bottom_Swatch"><rect fill="#82C3CC" height="120" rx="10" ry="10" width="120" x="580" y="1910.0" /><text fill="white" font-family="Arial" font-size="15px" x="590" y="1900.0">Secondary 5</text><text fill="white" font-family="Arial" font-size="12px" x="590" y="2048.0">#82C3CC</text></g><g id="Secondary_6_Top_Swatch"><rect fill="#63B4BF" height="120" rx="10" ry="10" width="120" x="20" y="584" /><text fill="black" font-family="Arial" font-size="15px" x="30" y="574">Secondary 6</text><text fill="black" font-family="Arial" font-size="12px" x="30" y="722">#63B4BF</text></g><g id="Secondary_6_Bottom_Swatch"><rect fill="#63B4BF" height="120" rx="10" ry="10" width="120" x="20" y="2098.0" /><text fill="white" font-family="Arial" font-size="15px" x="30" y="2088.0">Secondary 6</text><text fill="white" font-family="Arial" font-size="12px" x="30" y="2236.0">#63B4BF</text></g><g id="Secondary_7_Top_Swatch"><rect fill="#4A9AA5" height="120" rx="10" ry="10" width="120" x="160" y="584" /><text fill="black" font-family="Arial" font-size="15px" x="170" y="574">Secondary 7</text><text fill="black" font-family="Arial" font-size="12px" x="170" y="722">#4A9AA5</text></g><g id="Secondary_7_Bottom_Swatch"><rect fill="#4A9AA5" height="120" rx="10" ry="10" width="120" x="160" y="2098.0" /><text fill="white" font-family="Arial" font-size="15px" x="170" y="2088.0">Secondary 7</text><text fill="white" font-family="Arial" font-size="12px" x="170" y="2236.0">#4A9AA5</text></g><g id="Secondary_8_Top_Swatch"><rect fill="#38767F" height="120" rx="10" ry="10" width="120" x="300" y="584" /><text fill="black" font-family="Arial" font-size="15px" x="310" y="574">Secondary 8</text><text fill="black" font-family="Arial" font-size="12px" x="310" y="722">#38767F</text></g><g id="Secondary_8_Bottom_Swatch"><rect fill="#38767F" height="120" rx="10" ry="10" width="120" x="300" y="2098.0" /><text fill="white" font-family="Arial" font-size="15px" x="310" y="2088.0">Secondary 8</text><text fill="white" font-family="Arial" font-size="12px" x="310" y="2236.0">#38767F</text></g><g id="Secondary_9_Top_Swatch"><rect fill="#285157" height="120" rx="10" ry="10" width="120" x="440" y="584" /><text fill="black" font-family="Arial" font-size="15px" x="450" y="574">Secondary 9</text><text fill="black" font-family="Arial" font-size="12px" x="450" y="722">#285157</text></g><g id="Secondary_9_Bottom_Swatch"><rect fill="#285157" height="120" rx="10" ry="10" width="120" x="440" y="2098.0" /><text fill="white" font-family="Arial" font-size="15px" x="450" y="2088.0">Secondary 9</text><text fill="white" font-family="Arial" font-size="12px" x="450" y="2236.0">#285157</text></g><g id="Secondary_10_Top_Swatch"><rect fill="#193130" height="120" rx="10" ry="10" width="120" x="580" y="584" /><text fill="black" font-family="Arial" font-size="15px" x="590" y="574">Secondary 10</text><text fill="black" font-family="Arial" font-size="12px" x="590" y="722">#193130</text></g><g id="Secondary_10_Bottom_Swatch"><rect fill="#193130" height="120" rx="10" ry="10" width="120" x="580" y="2098.0" /><text fill="white" font-family="Arial" font-size="15px" x="590" y="2088.0">Secondary 10</text><text fill="white" font-family="Arial" font-size="12px" x="590" y="2236.0">#193130</text></g><g id="Accent_1_Top_Swatch"><rect fill="#FFF8F3" height="120" rx="10" ry="10" width="120" x="20" y="772" /><text fill="black" font-family="Arial" font-size="15px" x="30" y="762">Accent 1</text><text fill="black" font-family="Arial" font-size="12px" x="30" y="910">#FFF8F3</text></g><g id="Accent_1_Bottom_Swatch"><rect fill="#FFF8F3" height="120" rx="10" ry="10" width="120" x="20" y="2286.0" /><text fill="white" font-family="Arial" font-size="15px" x="30" y="2276.0">Accent 1</text><text fill="white" font-family="Arial" font-size="12px" x="30" y="2424.0">#FFF8F3</text></g><g id="Accent_2_Top_Swatch"><rect fill="#FFEBDC" height="120" rx="10" ry="10" width="120" x="160" y="772" /><text fill="black" font-family="Arial" font-size="15px" x="170" y="762">Accent 2</text><text fill="black" font-family="Arial" font-size="12px" x="170" y="910">#FFEBDC</text></g><g id="Accent_2_Bottom_Swatch"><rect fill="#FFEBDC" height="120" rx="10" ry="10" width="120" x="160" y="2286.0" /><text fill="white" font-family="Arial" font-size="15px" x="170" y="2276.0">Accent 2</text><text fill="white" font-family="Arial" font-size="12px" x="170" y="2424.0">#FFEBDC</text></g><g id="Accent_3_Top_Swatch"><rect fill="#FFD5B5" height="120" rx="10" ry="10" width="120" x="300" y="772" /><text fill="black" font-family="Arial" font-size="15px" x="310" y="762">Accent 3</text><text fill="black" font-family="Arial" font-size="12px" x="310" y="910">#FFD5B5</text></g><g id="Accent_3_Bottom_Swatch"><rect fill="#FFD5B5" height="120" rx="10" ry="10" width="120" x="300" y="2286.0" /><text fill="white" font-family="Arial" font-size="15px" x="310" y="2276.0">Accent 3</text><text fill="white" font-family="Arial" font-size="12px" x="310" y="2424.0">#FFD5B5</text></g><g id="Accent_4_Top_Swatch"><rect fill="#FFBF8D" height="120" rx="10" ry="10" width="120" x="440" y="772" /><text fill="black" font-family="Arial" font-size="15px" x="450" y="762">Accent 4</text><text fill="black" font-family="Arial" font-size="12px" x="450" y="910">#FFBF8D</text></g><g id="Accent_4_Bottom_Swatch"><rect fill="#FFBF8D" height="120" rx="10" ry="10" width="120" x="440" y="2286.0" /><text fill="white" font-family="Arial" font-size="15px" x="450" y="2276.0">Accent 4</text><text fill="white" font-family="Arial" font-size="12px" x="450" y="2424.0">#FFBF8D</text></g><g id="Accent_5_Top_Swatch"><rect fill="#FFA966" height="120" rx="10" ry="10" width="120" x="580" y="772" /><text fill="black" font-family="Arial" font-size="15px" x="590" y="762">Accent 5</text><text fill="black" font-family="Arial" font-size="12px" x="590" y="910">#FFA966</text></g><g id="Accent_5_Bottom_Swatch"><rect fill="#FFA966" height="120" rx="10" ry="10" width="120" x="580" y="2286.0" /><text fill="white" font-family="Arial" font-size="15px" x="590" y="2276.0">Accent 5</text><text fill="white" font-family="Arial" font-size="12px" x="590" y="2424.0">#FFA966</text></g><g id="Accent_6_Top_Swatch"><rect fill="#FF9340" height="120" rx="10" ry="10" width="120" x="20" y="960" /><text fill="black" font-family="Arial" font-size="15px" x="30" y="950">Accent 6</text><text fill="black" font-family="Arial" font-size="12px" x="30" y="1098">#FF9340</text></g><g id="Accent_6_Bottom_Swatch"><rect fill="#FF9340" height="120" rx="10" ry="10" width="120" x="20" y="2474.0" /><text fill="white" font-family="Arial" font-size="15px" x="30" y="2464.0">Accent 6</text><text fill="white" font-family="Arial" font-size="12px" x="30" y="2612.0">#FF9340</text></g><g id="Accent_7_Top_Swatch"><rect fill="#DB7932" height="120" rx="10" ry="10" width="120" x="160" y="960" /><text fill="black" font-family="Arial" font-size="15px" x="170" y="950">Accent 7</text><text fill="black" font-family="Arial" font-size="12px" x="170" y="1098">#DB7932</text></g><g id="Accent_7_Bottom_Swatch"><rect fill="#DB7932" height="120" rx="10" ry="10" width="120" x="160" y="2474.0" /><text fill="white" font-family="Arial" font-size="15px" x="170" y="2464.0">Accent 7</text><text fill="white" font-family="Arial" font-size="12px" x="170" y="2612.0">#DB7932</text></g><g id="Accent_8_Top_Swatch"><rect fill="#A75A26" height="120" rx="10" ry="10" width="120" x="300" y="960" /><text fill="black" font-family="Arial" font-size="15px" x="310" y="950">Accent 8</text><text fill="black" font-family="Arial" font-size="12px" x="310" y="1098">#A75A26</text></g><g id="Accent_8_Bottom_Swatch"><rect fill="#A75A26" height="120" rx="10" ry="10" width="120" x="300" y="2474.0" /><text fill="white" font-family="Arial" font-size="15px" x="310" y="2464.0">Accent 8</text><text fill="white" font-family="Arial" font-size="12px" x="310" y="2612.0">#A75A26</text></g><g id="Accent_9_Top_Swatch"><rect fill="#73401C" height="120" rx="10" ry="10" width="120" x="440" y="960" /><text fill="black" font-family="Arial" font-size="15px" x="450" y="950">Accent 9</text><text fill="black" font-family="Arial" font-size="12px" x="450" y="1098">#73401C</text></g><g id="Accent_9_Bottom_Swatch"><rect fill="#73401C" height="120" rx="10" ry="10" width="120" x="440" y="2474.0" /><text fill="white" font-family="Arial" font-size="15px" x="450" y="2464.0">Accent 9</text><text fill="white" font-family="Arial" font-size="12px" x="450" y="2612.0">#73401C</text></g><g id="Accent_10_Top_Swatch"><rect fill="#3F240F" height="120" rx="10" ry="10" width="120" x="580" y="960" /><text fill="black" font-family="Arial" font-size="15px" x="590" y="950">Accent 10</text><text fill="black" font-family="Arial" font-size="12px" x="590" y="1098">#3F240F</text></g><g id="Accent_10_Bottom_Swatch"><rect fill="#3F240F" height="120" rx="10" ry="10" width="120" x="580" y="2474.0" /><text fill="white" font-family="Arial" font-size="15px" x="590" y="2464.0">Accent 10</text><text fill="white" font-family="Arial" font-size="12px" x="590" y="2612.0">#3F240F</text></g><g id="Neutral_1_Top_Swatch"><rect fill="#FFFFFF" height="120" rx="10" ry="10" width="120" x="20" y="1148" /><text fill="black" font-family="Arial" font-size="15px" x="30" y="1138">Neutral 1</text><text fill="black" font-family="Arial" font-size="12px" x="30" y="1286">#FFFFFF</text></g><g id="Neutral_1_Bottom_Swatch"><rect fill="#FFFFFF" height="120" rx="10" ry="10" width="120" x="20" y="2662.0" /><text fill="white" font-family="Arial" font-size="15px" x="30" y="2652.0">Neutral 1</text><text fill="white" font-family="Arial" font-size="12px" x="30" y="2800.0">#FFFFFF</text></g><g id="Neutral_2_Top_Swatch"><rect fill="#F5F5F5" height="120" rx="10" ry="10" width="120" x="160" y="1148" /><text fill="black" font-family="Arial" font-size="15px" x="170" y="1138">Neutral 2</text><text fill="black" font-family="Arial" font-size="12px" x="170" y="1286">#F5F5F5</text></g><g id="Neutral_2_Bottom_Swatch"><rect fill="#F5F5F5" height="120" rx="10" ry="10" width="120" x="160" y="2662.0" /><text fill="white" font-family="Arial" font-size="15px" x="170" y="2652.0">Neutral 2</text><text fill="white" font-family="Arial" font-size="12px" x="170" y="2800.0">#F5F5F5</text></g><g id="Neutral_3_Top_Swatch"><rect fill="#EEEEEE" height="120" rx="10" ry="10" width="120" x="300" y="1148" /><text fill="black" font-family="Arial" font-size="15px" x="310" y="1138">Neutral 3</text><text fill="black" font-family="Arial" font-size="12px" x="310" y="1286">#EEEEEE</text></g><g id="Neutral_3_Bottom_Swatch"><rect fill="#EEEEEE" height="120" rx="10" ry="10" width="120" x="300" y="2662.0" /><text fill="white" font-family="Arial" font-size="15px" x="310" y="2652.0">Neutral 3</text><text fill="white" font-family="Arial" font-size="12px" x="310" y="2800.0">#EEEEEE</text></g><g id="Neutral_4_Top_Swatch"><rect fill="#E0E0E0" height="120" rx="10" ry="10" width="120" x="440" y="1148" /><text fill="black" font-family="Arial" font-size="15px" x="450" y="1138">Neutral 4</text><text fill="black" font-family="Arial" font-size="12px" x="450" y="1286">#E0E0E0</text></g><g id="Neutral_4_Bottom_Swatch"><rect fill="#E0E0E0" height="120" rx="10" ry="10" width="120" x="440" y="2662.0" /><text fill="white" font-family="Arial" font-size="15px" x="450" y="2652.0">Neutral 4</text><text fill="white" font-family="Arial" font-size="12px" x="450" y="2800.0">#E0E0E0</text></g><g id="Neutral_5_Top_Swatch"><rect fill="#BDBDBD" height="120" rx="10" ry="10" width="120" x="580" y="1148" /><text fill="black" font-family="Arial" font-size="15px" x="590" y="1138">Neutral 5</text><text fill="black" font-family="Arial" font-size="12px" x="590" y="1286">#BDBDBD</text></g><g id="Neutral_5_Bottom_Swatch"><rect fill="#BDBDBD" height="120" rx="10" ry="10" width="120" x="580" y="2662.0" /><text fill="white" font-family="Arial" font-size="15px" x="590" y="2652.0">Neutral 5</text><text fill="white" font-family="Arial" font-size="12px" x="590" y="2800.0">#BDBDBD</text></g><g id="Neutral_6_Top_Swatch"><rect fill="#9E9E9E" height="120" rx="10" ry="10" width="120" x="20" y="1336" /><text fill="black" font-family="Arial" font-size="15px" x="30" y="1326">Neutral 6</text><text fill="black" font-family="Arial" font-size="12px" x="30" y="1474">#9E9E9E</text></g><g id="Neutral_6_Bottom_Swatch"><rect fill="#9E9E9E" height="120" rx="10" ry="10" width="120" x="20" y="2850.0" /><text fill="white" font-family="Arial" font-size="15px" x="30" y="2840.0">Neutral 6</text><text fill="white" font-family="Arial" font-size="12px" x="30" y="2988.0">#9E9E9E</text></g><g id="Neutral_7_Top_Swatch"><rect fill="#757575" height="120" rx="10" ry="10" width="120" x="160" y="1336" /><text fill="black" font-family="Arial" font-size="15px" x="170" y="1326">Neutral 7</text><text fill="black" font-family="Arial" font-size="12px" x="170" y="1474">#757575</text></g><g id="Neutral_7_Bottom_Swatch"><rect fill="#757575" height="120" rx="10" ry="10" width="120" x="160" y="2850.0" /><text fill="white" font-family="Arial" font-size="15px" x="170" y="2840.0">Neutral 7</text><text fill="white" font-family="Arial" font-size="12px" x="170" y="2988.0">#757575</text></g><g id="Neutral_8_Top_Swatch"><rect fill="#616161" height="120" rx="10" ry="10" width="120" x="300" y="1336" /><text fill="black" font-family="Arial" font-size="15px" x="310" y="1326">Neutral 8</text><text fill="black" font-family="Arial" font-size="12px" x="310" y="1474">#616161</text></g><g id="Neutral_8_Bottom_Swatch"><rect fill="#616161" height="120" rx="10" ry="10" width="120" x="300" y="2850.0" /><text fill="white" font-family="Arial" font-size="15px" x="310" y="2840.0">Neutral 8</text><text fill="white" font-family="Arial" font-size="12px" x="310" y="2988.0">#616161</text></g><g id="Neutral_9_Top_Swatch"><rect fill="#424242" height="120" rx="10" ry="10" width="120" x="440" y="1336" /><text fill="black" font-family="Arial" font-size="15px" x="450" y="1326">Neutral 9</text><text fill="black" font-family="Arial" font-size="12px" x="450" y="1474">#424242</text></g><g id="Neutral_9_Bottom_Swatch"><rect fill="#424242" height="120" rx="10" ry="10" width="120" x="440" y="2850.0" /><text fill="white" font-family="Arial" font-size="15px" x="450" y="2840.0">Neutral 9</text><text fill="white" font-family="Arial" font-size="12px" x="450" y="2988.0">#424242</text></g><g id="Neutral_10_Top_Swatch"><rect fill="#212121" height="120" rx="10" ry="10" width="120" x="580" y="1336" /><text fill="black" font-family="Arial" font-size="15px" x="590" y="1326">Neutral 10</text><text fill="black" font-family="Arial" font-size="12px" x="590" y="1474">#212121</text></g><g id="Neutral_10_Bottom_Swatch"><rect fill="#212121" height="120" rx="10" ry="10" width="120" x="580" y="2850.0" /><text fill="white" font-family="Arial" font-size="15px" x="590" y="2840.0">Neutral 10</text><text fill="white" font-family="Arial" font-size="12px" x="590" y="2988.0">#212121</text></g></svg>