<?xml version="1.0" encoding="utf-8" ?>
<svg baseProfile="tiny" height="3780" version="1.2" width="720" xmlns="http://www.w3.org/2000/svg" xmlns:ev="http://www.w3.org/2001/xml-events" xmlns:xlink="http://www.w3.org/1999/xlink"><defs /><rect fill="white" height="1870.0" rx="10" ry="10" width="700" x="10.0" y="10.0" /><rect fill="black" height="1870.0" rx="10" ry="10" width="700" x="10.0" y="1900.0" /><g id="Primary_1_Top_Swatch"><rect fill="#FAFFFD" height="120" rx="10" ry="10" width="120" x="20" y="20" /><text fill="black" font-family="Arial" font-size="15px" x="30" y="10">Primary 1</text><text fill="black" font-family="Arial" font-size="12px" x="30" y="158">#FAFFFD</text></g><g id="Primary_1_Bottom_Swatch"><rect fill="#FAFFFD" height="120" rx="10" ry="10" width="120" x="20" y="1910.0" /><text fill="white" font-family="Arial" font-size="15px" x="30" y="1900.0">Primary 1</text><text fill="white" font-family="Arial" font-size="12px" x="30" y="2048.0">#FAFFFD</text></g><g id="Primary_2_Top_Swatch"><rect fill="#F2FAF7" height="120" rx="10" ry="10" width="120" x="160" y="20" /><text fill="black" font-family="Arial" font-size="15px" x="170" y="10">Primary 2</text><text fill="black" font-family="Arial" font-size="12px" x="170" y="158">#F2FAF7</text></g><g id="Primary_2_Bottom_Swatch"><rect fill="#F2FAF7" height="120" rx="10" ry="10" width="120" x="160" y="1910.0" /><text fill="white" font-family="Arial" font-size="15px" x="170" y="1900.0">Primary 2</text><text fill="white" font-family="Arial" font-size="12px" x="170" y="2048.0">#F2FAF7</text></g><g id="Primary_3_Top_Swatch"><rect fill="#A4DBC4" height="120" rx="10" ry="10" width="120" x="300" y="20" /><text fill="black" font-family="Arial" font-size="15px" x="310" y="10">Primary 3</text><text fill="black" font-family="Arial" font-size="12px" x="310" y="158">#A4DBC4</text></g><g id="Primary_3_Bottom_Swatch"><rect fill="#A4DBC4" height="120" rx="10" ry="10" width="120" x="300" y="1910.0" /><text fill="white" font-family="Arial" font-size="15px" x="310" y="1900.0">Primary 3</text><text fill="white" font-family="Arial" font-size="12px" x="310" y="2048.0">#A4DBC4</text></g><g id="Primary_4_Main__Top_Swatch"><rect fill="#2ECC71" height="120" rx="10" ry="10" width="120" x="440" y="20" /><text fill="black" font-family="Arial" font-size="15px" x="450" y="10">Primary 4 (Main)</text><text fill="black" font-family="Arial" font-size="12px" x="450" y="158">#2ECC71</text></g><g id="Primary_4_Main__Bottom_Swatch"><rect fill="#2ECC71" height="120" rx="10" ry="10" width="120" x="440" y="1910.0" /><text fill="white" font-family="Arial" font-size="15px" x="450" y="1900.0">Primary 4 (Main)</text><text fill="white" font-family="Arial" font-size="12px" x="450" y="2048.0">#2ECC71</text></g><g id="Primary_5_Top_Swatch"><rect fill="#3B7C65" height="120" rx="10" ry="10" width="120" x="580" y="20" /><text fill="black" font-family="Arial" font-size="15px" x="590" y="10">Primary 5</text><text fill="black" font-family="Arial" font-size="12px" x="590" y="158">#3B7C65</text></g><g id="Primary_5_Bottom_Swatch"><rect fill="#3B7C65" height="120" rx="10" ry="10" width="120" x="580" y="1910.0" /><text fill="white" font-family="Arial" font-size="15px" x="590" y="1900.0">Primary 5</text><text fill="white" font-family="Arial" font-size="12px" x="590" y="2048.0">#3B7C65</text></g><g id="Primary_6_Top_Swatch"><rect fill="#1A332A" height="120" rx="10" ry="10" width="120" x="20" y="208" /><text fill="black" font-family="Arial" font-size="15px" x="30" y="198">Primary 6</text><text fill="black" font-family="Arial" font-size="12px" x="30" y="346">#1A332A</text></g><g id="Primary_6_Bottom_Swatch"><rect fill="#1A332A" height="120" rx="10" ry="10" width="120" x="20" y="2098.0" /><text fill="white" font-family="Arial" font-size="15px" x="30" y="2088.0">Primary 6</text><text fill="white" font-family="Arial" font-size="12px" x="30" y="2236.0">#1A332A</text></g><g id="Primary_7_Darker__Top_Swatch"><rect fill="#0F2118" height="120" rx="10" ry="10" width="120" x="160" y="208" /><text fill="black" font-family="Arial" font-size="15px" x="170" y="198">Primary 7 (Darker)</text><text fill="black" font-family="Arial" font-size="12px" x="170" y="346">#0F2118</text></g><g id="Primary_7_Darker__Bottom_Swatch"><rect fill="#0F2118" height="120" rx="10" ry="10" width="120" x="160" y="2098.0" /><text fill="white" font-family="Arial" font-size="15px" x="170" y="2088.0">Primary 7 (Darker)</text><text fill="white" font-family="Arial" font-size="12px" x="170" y="2236.0">#0F2118</text></g><g id="Secondary_1_Top_Swatch"><rect fill="#F9FEFE" height="120" rx="10" ry="10" width="120" x="300" y="208" /><text fill="black" font-family="Arial" font-size="15px" x="310" y="198">Secondary 1</text><text fill="black" font-family="Arial" font-size="12px" x="310" y="346">#F9FEFE</text></g><g id="Secondary_1_Bottom_Swatch"><rect fill="#F9FEFE" height="120" rx="10" ry="10" width="120" x="300" y="2098.0" /><text fill="white" font-family="Arial" font-size="15px" x="310" y="2088.0">Secondary 1</text><text fill="white" font-family="Arial" font-size="12px" x="310" y="2236.0">#F9FEFE</text></g><g id="Secondary_2_Top_Swatch"><rect fill="#F3F9FA" height="120" rx="10" ry="10" width="120" x="440" y="208" /><text fill="black" font-family="Arial" font-size="15px" x="450" y="198">Secondary 2</text><text fill="black" font-family="Arial" font-size="12px" x="450" y="346">#F3F9FA</text></g><g id="Secondary_2_Bottom_Swatch"><rect fill="#F3F9FA" height="120" rx="10" ry="10" width="120" x="440" y="2098.0" /><text fill="white" font-family="Arial" font-size="15px" x="450" y="2088.0">Secondary 2</text><text fill="white" font-family="Arial" font-size="12px" x="450" y="2236.0">#F3F9FA</text></g><g id="Secondary_3_Top_Swatch"><rect fill="#C0E1E5" height="120" rx="10" ry="10" width="120" x="580" y="208" /><text fill="black" font-family="Arial" font-size="15px" x="590" y="198">Secondary 3</text><text fill="black" font-family="Arial" font-size="12px" x="590" y="346">#C0E1E5</text></g><g id="Secondary_3_Bottom_Swatch"><rect fill="#C0E1E5" height="120" rx="10" ry="10" width="120" x="580" y="2098.0" /><text fill="white" font-family="Arial" font-size="15px" x="590" y="2088.0">Secondary 3</text><text fill="white" font-family="Arial" font-size="12px" x="590" y="2236.0">#C0E1E5</text></g><g id="Secondary_4_Main__Top_Swatch"><rect fill="#63B4BF" height="120" rx="10" ry="10" width="120" x="20" y="396" /><text fill="black" font-family="Arial" font-size="15px" x="30" y="386">Secondary 4 (Main)</text><text fill="black" font-family="Arial" font-size="12px" x="30" y="534">#63B4BF</text></g><g id="Secondary_4_Main__Bottom_Swatch"><rect fill="#63B4BF" height="120" rx="10" ry="10" width="120" x="20" y="2286.0" /><text fill="white" font-family="Arial" font-size="15px" x="30" y="2276.0">Secondary 4 (Main)</text><text fill="white" font-family="Arial" font-size="12px" x="30" y="2424.0">#63B4BF</text></g><g id="Secondary_5_Top_Swatch"><rect fill="#38767F" height="120" rx="10" ry="10" width="120" x="160" y="396" /><text fill="black" font-family="Arial" font-size="15px" x="170" y="386">Secondary 5</text><text fill="black" font-family="Arial" font-size="12px" x="170" y="534">#38767F</text></g><g id="Secondary_5_Bottom_Swatch"><rect fill="#38767F" height="120" rx="10" ry="10" width="120" x="160" y="2286.0" /><text fill="white" font-family="Arial" font-size="15px" x="170" y="2276.0">Secondary 5</text><text fill="white" font-family="Arial" font-size="12px" x="170" y="2424.0">#38767F</text></g><g id="Secondary_6_Top_Swatch"><rect fill="#193130" height="120" rx="10" ry="10" width="120" x="300" y="396" /><text fill="black" font-family="Arial" font-size="15px" x="310" y="386">Secondary 6</text><text fill="black" font-family="Arial" font-size="12px" x="310" y="534">#193130</text></g><g id="Secondary_6_Bottom_Swatch"><rect fill="#193130" height="120" rx="10" ry="10" width="120" x="300" y="2286.0" /><text fill="white" font-family="Arial" font-size="15px" x="310" y="2276.0">Secondary 6</text><text fill="white" font-family="Arial" font-size="12px" x="310" y="2424.0">#193130</text></g><g id="Secondary_7_Darker__Top_Swatch"><rect fill="#0E1A1C" height="120" rx="10" ry="10" width="120" x="440" y="396" /><text fill="black" font-family="Arial" font-size="15px" x="450" y="386">Secondary 7 (Darker)</text><text fill="black" font-family="Arial" font-size="12px" x="450" y="534">#0E1A1C</text></g><g id="Secondary_7_Darker__Bottom_Swatch"><rect fill="#0E1A1C" height="120" rx="10" ry="10" width="120" x="440" y="2286.0" /><text fill="white" font-family="Arial" font-size="15px" x="450" y="2276.0">Secondary 7 (Darker)</text><text fill="white" font-family="Arial" font-size="12px" x="450" y="2424.0">#0E1A1C</text></g><g id="Accent_1_Top_Swatch"><rect fill="#FFF8F3" height="120" rx="10" ry="10" width="120" x="580" y="396" /><text fill="black" font-family="Arial" font-size="15px" x="590" y="386">Accent 1</text><text fill="black" font-family="Arial" font-size="12px" x="590" y="534">#FFF8F3</text></g><g id="Accent_1_Bottom_Swatch"><rect fill="#FFF8F3" height="120" rx="10" ry="10" width="120" x="580" y="2286.0" /><text fill="white" font-family="Arial" font-size="15px" x="590" y="2276.0">Accent 1</text><text fill="white" font-family="Arial" font-size="12px" x="590" y="2424.0">#FFF8F3</text></g><g id="Accent_2_Top_Swatch"><rect fill="#FFE3E6" height="120" rx="10" ry="10" width="120" x="20" y="584" /><text fill="black" font-family="Arial" font-size="15px" x="30" y="574">Accent 2</text><text fill="black" font-family="Arial" font-size="12px" x="30" y="722">#FFE3E6</text></g><g id="Accent_2_Bottom_Swatch"><rect fill="#FFE3E6" height="120" rx="10" ry="10" width="120" x="20" y="2474.0" /><text fill="white" font-family="Arial" font-size="15px" x="30" y="2464.0">Accent 2</text><text fill="white" font-family="Arial" font-size="12px" x="30" y="2612.0">#FFE3E6</text></g><g id="Accent_3_Top_Swatch"><rect fill="#FFB3B6" height="120" rx="10" ry="10" width="120" x="160" y="584" /><text fill="black" font-family="Arial" font-size="15px" x="170" y="574">Accent 3</text><text fill="black" font-family="Arial" font-size="12px" x="170" y="722">#FFB3B6</text></g><g id="Accent_3_Bottom_Swatch"><rect fill="#FFB3B6" height="120" rx="10" ry="10" width="120" x="160" y="2474.0" /><text fill="white" font-family="Arial" font-size="15px" x="170" y="2464.0">Accent 3</text><text fill="white" font-family="Arial" font-size="12px" x="170" y="2612.0">#FFB3B6</text></g><g id="Accent_4_Main__Top_Swatch"><rect fill="#FF9340" height="120" rx="10" ry="10" width="120" x="300" y="584" /><text fill="black" font-family="Arial" font-size="15px" x="310" y="574">Accent 4 (Main)</text><text fill="black" font-family="Arial" font-size="12px" x="310" y="722">#FF9340</text></g><g id="Accent_4_Main__Bottom_Swatch"><rect fill="#FF9340" height="120" rx="10" ry="10" width="120" x="300" y="2474.0" /><text fill="white" font-family="Arial" font-size="15px" x="310" y="2464.0">Accent 4 (Main)</text><text fill="white" font-family="Arial" font-size="12px" x="310" y="2612.0">#FF9340</text></g><g id="Accent_5_Top_Swatch"><rect fill="#B52835" height="120" rx="10" ry="10" width="120" x="440" y="584" /><text fill="black" font-family="Arial" font-size="15px" x="450" y="574">Accent 5</text><text fill="black" font-family="Arial" font-size="12px" x="450" y="722">#B52835</text></g><g id="Accent_5_Bottom_Swatch"><rect fill="#B52835" height="120" rx="10" ry="10" width="120" x="440" y="2474.0" /><text fill="white" font-family="Arial" font-size="15px" x="450" y="2464.0">Accent 5</text><text fill="white" font-family="Arial" font-size="12px" x="450" y="2612.0">#B52835</text></g><g id="Accent_6_Top_Swatch"><rect fill="#3F240F" height="120" rx="10" ry="10" width="120" x="580" y="584" /><text fill="black" font-family="Arial" font-size="15px" x="590" y="574">Accent 6</text><text fill="black" font-family="Arial" font-size="12px" x="590" y="722">#3F240F</text></g><g id="Accent_6_Bottom_Swatch"><rect fill="#3F240F" height="120" rx="10" ry="10" width="120" x="580" y="2474.0" /><text fill="white" font-family="Arial" font-size="15px" x="590" y="2464.0">Accent 6</text><text fill="white" font-family="Arial" font-size="12px" x="590" y="2612.0">#3F240F</text></g><g id="Accent_7_Darker__Top_Swatch"><rect fill="#251409" height="120" rx="10" ry="10" width="120" x="20" y="772" /><text fill="black" font-family="Arial" font-size="15px" x="30" y="762">Accent 7 (Darker)</text><text fill="black" font-family="Arial" font-size="12px" x="30" y="910">#251409</text></g><g id="Accent_7_Darker__Bottom_Swatch"><rect fill="#251409" height="120" rx="10" ry="10" width="120" x="20" y="2662.0" /><text fill="white" font-family="Arial" font-size="15px" x="30" y="2652.0">Accent 7 (Darker)</text><text fill="white" font-family="Arial" font-size="12px" x="30" y="2800.0">#251409</text></g><g id="Highlight_1_Top_Swatch"><rect fill="#FFFDF8" height="120" rx="10" ry="10" width="120" x="160" y="772" /><text fill="black" font-family="Arial" font-size="15px" x="170" y="762">Highlight 1</text><text fill="black" font-family="Arial" font-size="12px" x="170" y="910">#FFFDF8</text></g><g id="Highlight_1_Bottom_Swatch"><rect fill="#FFFDF8" height="120" rx="10" ry="10" width="120" x="160" y="2662.0" /><text fill="white" font-family="Arial" font-size="15px" x="170" y="2652.0">Highlight 1</text><text fill="white" font-family="Arial" font-size="12px" x="170" y="2800.0">#FFFDF8</text></g><g id="Highlight_2_Top_Swatch"><rect fill="#FFF5E6" height="120" rx="10" ry="10" width="120" x="300" y="772" /><text fill="black" font-family="Arial" font-size="15px" x="310" y="762">Highlight 2</text><text fill="black" font-family="Arial" font-size="12px" x="310" y="910">#FFF5E6</text></g><g id="Highlight_2_Bottom_Swatch"><rect fill="#FFF5E6" height="120" rx="10" ry="10" width="120" x="300" y="2662.0" /><text fill="white" font-family="Arial" font-size="15px" x="310" y="2652.0">Highlight 2</text><text fill="white" font-family="Arial" font-size="12px" x="310" y="2800.0">#FFF5E6</text></g><g id="Highlight_3_Top_Swatch"><rect fill="#FFE1B3" height="120" rx="10" ry="10" width="120" x="440" y="772" /><text fill="black" font-family="Arial" font-size="15px" x="450" y="762">Highlight 3</text><text fill="black" font-family="Arial" font-size="12px" x="450" y="910">#FFE1B3</text></g><g id="Highlight_3_Bottom_Swatch"><rect fill="#FFE1B3" height="120" rx="10" ry="10" width="120" x="440" y="2662.0" /><text fill="white" font-family="Arial" font-size="15px" x="450" y="2652.0">Highlight 3</text><text fill="white" font-family="Arial" font-size="12px" x="450" y="2800.0">#FFE1B3</text></g><g id="Highlight_4_Main__Top_Swatch"><rect fill="#F5B041" height="120" rx="10" ry="10" width="120" x="580" y="772" /><text fill="black" font-family="Arial" font-size="15px" x="590" y="762">Highlight 4 (Main)</text><text fill="black" font-family="Arial" font-size="12px" x="590" y="910">#F5B041</text></g><g id="Highlight_4_Main__Bottom_Swatch"><rect fill="#F5B041" height="120" rx="10" ry="10" width="120" x="580" y="2662.0" /><text fill="white" font-family="Arial" font-size="15px" x="590" y="2652.0">Highlight 4 (Main)</text><text fill="white" font-family="Arial" font-size="12px" x="590" y="2800.0">#F5B041</text></g><g id="Highlight_5_Top_Swatch"><rect fill="#C99033" height="120" rx="10" ry="10" width="120" x="20" y="960" /><text fill="black" font-family="Arial" font-size="15px" x="30" y="950">Highlight 5</text><text fill="black" font-family="Arial" font-size="12px" x="30" y="1098">#C99033</text></g><g id="Highlight_5_Bottom_Swatch"><rect fill="#C99033" height="120" rx="10" ry="10" width="120" x="20" y="2850.0" /><text fill="white" font-family="Arial" font-size="15px" x="30" y="2840.0">Highlight 5</text><text fill="white" font-family="Arial" font-size="12px" x="30" y="2988.0">#C99033</text></g><g id="Highlight_6_Top_Swatch"><rect fill="#996B26" height="120" rx="10" ry="10" width="120" x="160" y="960" /><text fill="black" font-family="Arial" font-size="15px" x="170" y="950">Highlight 6</text><text fill="black" font-family="Arial" font-size="12px" x="170" y="1098">#996B26</text></g><g id="Highlight_6_Bottom_Swatch"><rect fill="#996B26" height="120" rx="10" ry="10" width="120" x="160" y="2850.0" /><text fill="white" font-family="Arial" font-size="15px" x="170" y="2840.0">Highlight 6</text><text fill="white" font-family="Arial" font-size="12px" x="170" y="2988.0">#996B26</text></g><g id="Highlight_7_Darker__Top_Swatch"><rect fill="#5C4015" height="120" rx="10" ry="10" width="120" x="300" y="960" /><text fill="black" font-family="Arial" font-size="15px" x="310" y="950">Highlight 7 (Darker)</text><text fill="black" font-family="Arial" font-size="12px" x="310" y="1098">#5C4015</text></g><g id="Highlight_7_Darker__Bottom_Swatch"><rect fill="#5C4015" height="120" rx="10" ry="10" width="120" x="300" y="2850.0" /><text fill="white" font-family="Arial" font-size="15px" x="310" y="2840.0">Highlight 7 (Darker)</text><text fill="white" font-family="Arial" font-size="12px" x="310" y="2988.0">#5C4015</text></g><g id="Secondary_Highlight_1_Top_Swatch"><rect fill="#FEF9F9" height="120" rx="10" ry="10" width="120" x="440" y="960" /><text fill="black" font-family="Arial" font-size="15px" x="450" y="950">Secondary Highlight 1</text><text fill="black" font-family="Arial" font-size="12px" x="450" y="1098">#FEF9F9</text></g><g id="Secondary_Highlight_1_Bottom_Swatch"><rect fill="#FEF9F9" height="120" rx="10" ry="10" width="120" x="440" y="2850.0" /><text fill="white" font-family="Arial" font-size="15px" x="450" y="2840.0">Secondary Highlight 1</text><text fill="white" font-family="Arial" font-size="12px" x="450" y="2988.0">#FEF9F9</text></g><g id="Secondary_Highlight_2_Top_Swatch"><rect fill="#FDEEEF" height="120" rx="10" ry="10" width="120" x="580" y="960" /><text fill="black" font-family="Arial" font-size="15px" x="590" y="950">Secondary Highlight 2</text><text fill="black" font-family="Arial" font-size="12px" x="590" y="1098">#FDEEEF</text></g><g id="Secondary_Highlight_2_Bottom_Swatch"><rect fill="#FDEEEF" height="120" rx="10" ry="10" width="120" x="580" y="2850.0" /><text fill="white" font-family="Arial" font-size="15px" x="590" y="2840.0">Secondary Highlight 2</text><text fill="white" font-family="Arial" font-size="12px" x="590" y="2988.0">#FDEEEF</text></g><g id="Secondary_Highlight_3_Top_Swatch"><rect fill="#F7CACE" height="120" rx="10" ry="10" width="120" x="20" y="1148" /><text fill="black" font-family="Arial" font-size="15px" x="30" y="1138">Secondary Highlight 3</text><text fill="black" font-family="Arial" font-size="12px" x="30" y="1286">#F7CACE</text></g><g id="Secondary_Highlight_3_Bottom_Swatch"><rect fill="#F7CACE" height="120" rx="10" ry="10" width="120" x="20" y="3038.0" /><text fill="white" font-family="Arial" font-size="15px" x="30" y="3028.0">Secondary Highlight 3</text><text fill="white" font-family="Arial" font-size="12px" x="30" y="3176.0">#F7CACE</text></g><g id="Secondary_Highlight_4_Main__Top_Swatch"><rect fill="#C88389" height="120" rx="10" ry="10" width="120" x="160" y="1148" /><text fill="black" font-family="Arial" font-size="15px" x="170" y="1138">Secondary Highlight 4 (Main)</text><text fill="black" font-family="Arial" font-size="12px" x="170" y="1286">#C88389</text></g><g id="Secondary_Highlight_4_Main__Bottom_Swatch"><rect fill="#C88389" height="120" rx="10" ry="10" width="120" x="160" y="3038.0" /><text fill="white" font-family="Arial" font-size="15px" x="170" y="3028.0">Secondary Highlight 4 (Main)</text><text fill="white" font-family="Arial" font-size="12px" x="170" y="3176.0">#C88389</text></g><g id="Secondary_Highlight_5_Top_Swatch"><rect fill="#9A666A" height="120" rx="10" ry="10" width="120" x="300" y="1148" /><text fill="black" font-family="Arial" font-size="15px" x="310" y="1138">Secondary Highlight 5</text><text fill="black" font-family="Arial" font-size="12px" x="310" y="1286">#9A666A</text></g><g id="Secondary_Highlight_5_Bottom_Swatch"><rect fill="#9A666A" height="120" rx="10" ry="10" width="120" x="300" y="3038.0" /><text fill="white" font-family="Arial" font-size="15px" x="310" y="3028.0">Secondary Highlight 5</text><text fill="white" font-family="Arial" font-size="12px" x="310" y="3176.0">#9A666A</text></g><g id="Secondary_Highlight_6_Top_Swatch"><rect fill="#6F4A4D" height="120" rx="10" ry="10" width="120" x="440" y="1148" /><text fill="black" font-family="Arial" font-size="15px" x="450" y="1138">Secondary Highlight 6</text><text fill="black" font-family="Arial" font-size="12px" x="450" y="1286">#6F4A4D</text></g><g id="Secondary_Highlight_6_Bottom_Swatch"><rect fill="#6F4A4D" height="120" rx="10" ry="10" width="120" x="440" y="3038.0" /><text fill="white" font-family="Arial" font-size="15px" x="450" y="3028.0">Secondary Highlight 6</text><text fill="white" font-family="Arial" font-size="12px" x="450" y="3176.0">#6F4A4D</text></g><g id="Secondary_Highlight_7_Darker__Top_Swatch"><rect fill="#3F2A2C" height="120" rx="10" ry="10" width="120" x="580" y="1148" /><text fill="black" font-family="Arial" font-size="15px" x="590" y="1138">Secondary Highlight 7 (Darker)</text><text fill="black" font-family="Arial" font-size="12px" x="590" y="1286">#3F2A2C</text></g><g id="Secondary_Highlight_7_Darker__Bottom_Swatch"><rect fill="#3F2A2C" height="120" rx="10" ry="10" width="120" x="580" y="3038.0" /><text fill="white" font-family="Arial" font-size="15px" x="590" y="3028.0">Secondary Highlight 7 (Darker)</text><text fill="white" font-family="Arial" font-size="12px" x="590" y="3176.0">#3F2A2C</text></g><g id="Neutral_1_Top_Swatch"><rect fill="#FFFFFF" height="120" rx="10" ry="10" width="120" x="20" y="1336" /><text fill="black" font-family="Arial" font-size="15px" x="30" y="1326">Neutral 1</text><text fill="black" font-family="Arial" font-size="12px" x="30" y="1474">#FFFFFF</text></g><g id="Neutral_1_Bottom_Swatch"><rect fill="#FFFFFF" height="120" rx="10" ry="10" width="120" x="20" y="3226.0" /><text fill="white" font-family="Arial" font-size="15px" x="30" y="3216.0">Neutral 1</text><text fill="white" font-family="Arial" font-size="12px" x="30" y="3364.0">#FFFFFF</text></g><g id="Neutral_2_Top_Swatch"><rect fill="#F2F5F5" height="120" rx="10" ry="10" width="120" x="160" y="1336" /><text fill="black" font-family="Arial" font-size="15px" x="170" y="1326">Neutral 2</text><text fill="black" font-family="Arial" font-size="12px" x="170" y="1474">#F2F5F5</text></g><g id="Neutral_2_Bottom_Swatch"><rect fill="#F2F5F5" height="120" rx="10" ry="10" width="120" x="160" y="3226.0" /><text fill="white" font-family="Arial" font-size="15px" x="170" y="3216.0">Neutral 2</text><text fill="white" font-family="Arial" font-size="12px" x="170" y="3364.0">#F2F5F5</text></g><g id="Neutral_3_Top_Swatch"><rect fill="#CCD7D8" height="120" rx="10" ry="10" width="120" x="300" y="1336" /><text fill="black" font-family="Arial" font-size="15px" x="310" y="1326">Neutral 3</text><text fill="black" font-family="Arial" font-size="12px" x="310" y="1474">#CCD7D8</text></g><g id="Neutral_3_Bottom_Swatch"><rect fill="#CCD7D8" height="120" rx="10" ry="10" width="120" x="300" y="3226.0" /><text fill="white" font-family="Arial" font-size="15px" x="310" y="3216.0">Neutral 3</text><text fill="white" font-family="Arial" font-size="12px" x="310" y="3364.0">#CCD7D8</text></g><g id="Neutral_4_Main__Top_Swatch"><rect fill="#AAB7B8" height="120" rx="10" ry="10" width="120" x="440" y="1336" /><text fill="black" font-family="Arial" font-size="15px" x="450" y="1326">Neutral 4 (Main)</text><text fill="black" font-family="Arial" font-size="12px" x="450" y="1474">#AAB7B8</text></g><g id="Neutral_4_Main__Bottom_Swatch"><rect fill="#AAB7B8" height="120" rx="10" ry="10" width="120" x="440" y="3226.0" /><text fill="white" font-family="Arial" font-size="15px" x="450" y="3216.0">Neutral 4 (Main)</text><text fill="white" font-family="Arial" font-size="12px" x="450" y="3364.0">#AAB7B8</text></g><g id="Neutral_5_Top_Swatch"><rect fill="#889394" height="120" rx="10" ry="10" width="120" x="580" y="1336" /><text fill="black" font-family="Arial" font-size="15px" x="590" y="1326">Neutral 5</text><text fill="black" font-family="Arial" font-size="12px" x="590" y="1474">#889394</text></g><g id="Neutral_5_Bottom_Swatch"><rect fill="#889394" height="120" rx="10" ry="10" width="120" x="580" y="3226.0" /><text fill="white" font-family="Arial" font-size="15px" x="590" y="3216.0">Neutral 5</text><text fill="white" font-family="Arial" font-size="12px" x="590" y="3364.0">#889394</text></g><g id="Neutral_6_Top_Swatch"><rect fill="#656D6E" height="120" rx="10" ry="10" width="120" x="20" y="1524" /><text fill="black" font-family="Arial" font-size="15px" x="30" y="1514">Neutral 6</text><text fill="black" font-family="Arial" font-size="12px" x="30" y="1662">#656D6E</text></g><g id="Neutral_6_Bottom_Swatch"><rect fill="#656D6E" height="120" rx="10" ry="10" width="120" x="20" y="3414.0" /><text fill="white" font-family="Arial" font-size="15px" x="30" y="3404.0">Neutral 6</text><text fill="white" font-family="Arial" font-size="12px" x="30" y="3552.0">#656D6E</text></g><g id="Neutral_7_Top_Swatch"><rect fill="#000000" height="120" rx="10" ry="10" width="120" x="160" y="1524" /><text fill="black" font-family="Arial" font-size="15px" x="170" y="1514">Neutral 7</text><text fill="black" font-family="Arial" font-size="12px" x="170" y="1662">#000000</text></g><g id="Neutral_7_Bottom_Swatch"><rect fill="#000000" height="120" rx="10" ry="10" width="120" x="160" y="3414.0" /><text fill="white" font-family="Arial" font-size="15px" x="170" y="3404.0">Neutral 7</text><text fill="white" font-family="Arial" font-size="12px" x="170" y="3552.0">#000000</text></g><g id="Neutral_8_Darker__Top_Swatch"><rect fill="#242727" height="120" rx="10" ry="10" width="120" x="300" y="1524" /><text fill="black" font-family="Arial" font-size="15px" x="310" y="1514">Neutral 8 (Darker)</text><text fill="black" font-family="Arial" font-size="12px" x="310" y="1662">#242727</text></g><g id="Neutral_8_Darker__Bottom_Swatch"><rect fill="#242727" height="120" rx="10" ry="10" width="120" x="300" y="3414.0" /><text fill="white" font-family="Arial" font-size="15px" x="310" y="3404.0">Neutral 8 (Darker)</text><text fill="white" font-family="Arial" font-size="12px" x="310" y="3552.0">#242727</text></g><g id="Depth_1_Top_Swatch"><rect fill="#F9FAFA" height="120" rx="10" ry="10" width="120" x="440" y="1524" /><text fill="black" font-family="Arial" font-size="15px" x="450" y="1514">Depth 1</text><text fill="black" font-family="Arial" font-size="12px" x="450" y="1662">#F9FAFA</text></g><g id="Depth_1_Bottom_Swatch"><rect fill="#F9FAFA" height="120" rx="10" ry="10" width="120" x="440" y="3414.0" /><text fill="white" font-family="Arial" font-size="15px" x="450" y="3404.0">Depth 1</text><text fill="white" font-family="Arial" font-size="12px" x="450" y="3552.0">#F9FAFA</text></g><g id="Depth_2_Top_Swatch"><rect fill="#E6EAEA" height="120" rx="10" ry="10" width="120" x="580" y="1524" /><text fill="black" font-family="Arial" font-size="15px" x="590" y="1514">Depth 2</text><text fill="black" font-family="Arial" font-size="12px" x="590" y="1662">#E6EAEA</text></g><g id="Depth_2_Bottom_Swatch"><rect fill="#E6EAEA" height="120" rx="10" ry="10" width="120" x="580" y="3414.0" /><text fill="white" font-family="Arial" font-size="15px" x="590" y="3404.0">Depth 2</text><text fill="white" font-family="Arial" font-size="12px" x="590" y="3552.0">#E6EAEA</text></g><g id="Depth_3_Top_Swatch"><rect fill="#B0B7C0" height="120" rx="10" ry="10" width="120" x="20" y="1712" /><text fill="black" font-family="Arial" font-size="15px" x="30" y="1702">Depth 3</text><text fill="black" font-family="Arial" font-size="12px" x="30" y="1850">#B0B7C0</text></g><g id="Depth_3_Bottom_Swatch"><rect fill="#B0B7C0" height="120" rx="10" ry="10" width="120" x="20" y="3602.0" /><text fill="white" font-family="Arial" font-size="15px" x="30" y="3592.0">Depth 3</text><text fill="white" font-family="Arial" font-size="12px" x="30" y="3740.0">#B0B7C0</text></g><g id="Depth_4_Main__Top_Swatch"><rect fill="#2C3E50" height="120" rx="10" ry="10" width="120" x="160" y="1712" /><text fill="black" font-family="Arial" font-size="15px" x="170" y="1702">Depth 4 (Main)</text><text fill="black" font-family="Arial" font-size="12px" x="170" y="1850">#2C3E50</text></g><g id="Depth_4_Main__Bottom_Swatch"><rect fill="#2C3E50" height="120" rx="10" ry="10" width="120" x="160" y="3602.0" /><text fill="white" font-family="Arial" font-size="15px" x="170" y="3592.0">Depth 4 (Main)</text><text fill="white" font-family="Arial" font-size="12px" x="170" y="3740.0">#2C3E50</text></g><g id="Depth_5_Top_Swatch"><rect fill="#1E2B3C" height="120" rx="10" ry="10" width="120" x="300" y="1712" /><text fill="black" font-family="Arial" font-size="15px" x="310" y="1702">Depth 5</text><text fill="black" font-family="Arial" font-size="12px" x="310" y="1850">#1E2B3C</text></g><g id="Depth_5_Bottom_Swatch"><rect fill="#1E2B3C" height="120" rx="10" ry="10" width="120" x="300" y="3602.0" /><text fill="white" font-family="Arial" font-size="15px" x="310" y="3592.0">Depth 5</text><text fill="white" font-family="Arial" font-size="12px" x="310" y="3740.0">#1E2B3C</text></g><g id="Depth_6_Top_Swatch"><rect fill="#131D28" height="120" rx="10" ry="10" width="120" x="440" y="1712" /><text fill="black" font-family="Arial" font-size="15px" x="450" y="1702">Depth 6</text><text fill="black" font-family="Arial" font-size="12px" x="450" y="1850">#131D28</text></g><g id="Depth_6_Bottom_Swatch"><rect fill="#131D28" height="120" rx="10" ry="10" width="120" x="440" y="3602.0" /><text fill="white" font-family="Arial" font-size="15px" x="450" y="3592.0">Depth 6</text><text fill="white" font-family="Arial" font-size="12px" x="450" y="3740.0">#131D28</text></g><g id="Depth_7_Darker__Top_Swatch"><rect fill="#0B1118" height="120" rx="10" ry="10" width="120" x="580" y="1712" /><text fill="black" font-family="Arial" font-size="15px" x="590" y="1702">Depth 7 (Darker)</text><text fill="black" font-family="Arial" font-size="12px" x="590" y="1850">#0B1118</text></g><g id="Depth_7_Darker__Bottom_Swatch"><rect fill="#0B1118" height="120" rx="10" ry="10" width="120" x="580" y="3602.0" /><text fill="white" font-family="Arial" font-size="15px" x="590" y="3592.0">Depth 7 (Darker)</text><text fill="white" font-family="Arial" font-size="12px" x="590" y="3740.0">#0B1118</text></g></svg>