<?xml version="1.0" encoding="utf-8" ?>
<svg baseProfile="tiny" height="3000" version="1.2" width="1040" xmlns="http://www.w3.org/2000/svg" xmlns:ev="http://www.w3.org/2001/xml-events" xmlns:xlink="http://www.w3.org/1999/xlink"><defs /><g id="Backgrounds"><rect fill="white" height="1460" id="LightBackground" rx="10" ry="10" width="1000" x="40" y="40" /><rect fill="black" height="1460" id="DarkBackground" rx="10" ry="10" width="1000" x="40" y="1540" /></g><g id="LightModeSwatches"><g id="Primary_1_Light"><rect fill="#FAFFFD" height="120" rx="10" ry="10" width="120" x="60" y="60" /><text fill="black" font-family="Arial" font-size="16px" x="70" y="52">Primary 1</text><text fill="black" font-family="Arial" font-size="14px" x="70" y="195">#FAFFFD</text></g><g id="Primary_2_Light"><rect fill="#F2FAF7" height="120" rx="10" ry="10" width="120" x="200" y="60" /><text fill="black" font-family="Arial" font-size="16px" x="210" y="52">Primary 2</text><text fill="black" font-family="Arial" font-size="14px" x="210" y="195">#F2FAF7</text></g><g id="Primary_3_Light"><rect fill="#A4DBC4" height="120" rx="10" ry="10" width="120" x="340" y="60" /><text fill="black" font-family="Arial" font-size="16px" x="350" y="52">Primary 3</text><text fill="black" font-family="Arial" font-size="14px" x="350" y="195">#A4DBC4</text></g><g id="Primary_4_Main__Light"><rect fill="#2ECC71" height="120" rx="10" ry="10" width="120" x="480" y="60" /><text fill="black" font-family="Arial" font-size="16px" x="490" y="52">Primary 4 (Main)</text><text fill="black" font-family="Arial" font-size="14px" x="490" y="195">#2ECC71</text></g><g id="Primary_5_Light"><rect fill="#3B7C65" height="120" rx="10" ry="10" width="120" x="620" y="60" /><text fill="black" font-family="Arial" font-size="16px" x="630" y="52">Primary 5</text><text fill="black" font-family="Arial" font-size="14px" x="630" y="195">#3B7C65</text></g><g id="Primary_6_Light"><rect fill="#1A332A" height="120" rx="10" ry="10" width="120" x="760" y="60" /><text fill="black" font-family="Arial" font-size="16px" x="770" y="52">Primary 6</text><text fill="black" font-family="Arial" font-size="14px" x="770" y="195">#1A332A</text></g><g id="Primary_7_Darker__Light"><rect fill="#0F2118" height="120" rx="10" ry="10" width="120" x="900" y="60" /><text fill="black" font-family="Arial" font-size="16px" x="910" y="52">Primary 7 (Darker)</text><text fill="black" font-family="Arial" font-size="14px" x="910" y="195">#0F2118</text></g><g id="Secondary_1_Light"><rect fill="#F9FEFE" height="120" rx="10" ry="10" width="120" x="60" y="240" /><text fill="black" font-family="Arial" font-size="16px" x="70" y="232">Secondary 1</text><text fill="black" font-family="Arial" font-size="14px" x="70" y="375">#F9FEFE</text></g><g id="Secondary_2_Light"><rect fill="#F3F9FA" height="120" rx="10" ry="10" width="120" x="200" y="240" /><text fill="black" font-family="Arial" font-size="16px" x="210" y="232">Secondary 2</text><text fill="black" font-family="Arial" font-size="14px" x="210" y="375">#F3F9FA</text></g><g id="Secondary_3_Light"><rect fill="#C0E1E5" height="120" rx="10" ry="10" width="120" x="340" y="240" /><text fill="black" font-family="Arial" font-size="16px" x="350" y="232">Secondary 3</text><text fill="black" font-family="Arial" font-size="14px" x="350" y="375">#C0E1E5</text></g><g id="Secondary_4_Main__Light"><rect fill="#63B4BF" height="120" rx="10" ry="10" width="120" x="480" y="240" /><text fill="black" font-family="Arial" font-size="16px" x="490" y="232">Secondary 4 (Main)</text><text fill="black" font-family="Arial" font-size="14px" x="490" y="375">#63B4BF</text></g><g id="Secondary_5_Light"><rect fill="#38767F" height="120" rx="10" ry="10" width="120" x="620" y="240" /><text fill="black" font-family="Arial" font-size="16px" x="630" y="232">Secondary 5</text><text fill="black" font-family="Arial" font-size="14px" x="630" y="375">#38767F</text></g><g id="Secondary_6_Light"><rect fill="#193130" height="120" rx="10" ry="10" width="120" x="760" y="240" /><text fill="black" font-family="Arial" font-size="16px" x="770" y="232">Secondary 6</text><text fill="black" font-family="Arial" font-size="14px" x="770" y="375">#193130</text></g><g id="Secondary_7_Darker__Light"><rect fill="#0E1A1C" height="120" rx="10" ry="10" width="120" x="900" y="240" /><text fill="black" font-family="Arial" font-size="16px" x="910" y="232">Secondary 7 (Darker)</text><text fill="black" font-family="Arial" font-size="14px" x="910" y="375">#0E1A1C</text></g><g id="Accent_1_Light"><rect fill="#FFF8F3" height="120" rx="10" ry="10" width="120" x="60" y="420" /><text fill="black" font-family="Arial" font-size="16px" x="70" y="412">Accent 1</text><text fill="black" font-family="Arial" font-size="14px" x="70" y="555">#FFF8F3</text></g><g id="Accent_2_Light"><rect fill="#FFE3E6" height="120" rx="10" ry="10" width="120" x="200" y="420" /><text fill="black" font-family="Arial" font-size="16px" x="210" y="412">Accent 2</text><text fill="black" font-family="Arial" font-size="14px" x="210" y="555">#FFE3E6</text></g><g id="Accent_3_Light"><rect fill="#FFB3B6" height="120" rx="10" ry="10" width="120" x="340" y="420" /><text fill="black" font-family="Arial" font-size="16px" x="350" y="412">Accent 3</text><text fill="black" font-family="Arial" font-size="14px" x="350" y="555">#FFB3B6</text></g><g id="Accent_4_Main__Light"><rect fill="#FF9340" height="120" rx="10" ry="10" width="120" x="480" y="420" /><text fill="black" font-family="Arial" font-size="16px" x="490" y="412">Accent 4 (Main)</text><text fill="black" font-family="Arial" font-size="14px" x="490" y="555">#FF9340</text></g><g id="Accent_5_Light"><rect fill="#B52835" height="120" rx="10" ry="10" width="120" x="620" y="420" /><text fill="black" font-family="Arial" font-size="16px" x="630" y="412">Accent 5</text><text fill="black" font-family="Arial" font-size="14px" x="630" y="555">#B52835</text></g><g id="Accent_6_Light"><rect fill="#3F240F" height="120" rx="10" ry="10" width="120" x="760" y="420" /><text fill="black" font-family="Arial" font-size="16px" x="770" y="412">Accent 6</text><text fill="black" font-family="Arial" font-size="14px" x="770" y="555">#3F240F</text></g><g id="Accent_7_Darker__Light"><rect fill="#251409" height="120" rx="10" ry="10" width="120" x="900" y="420" /><text fill="black" font-family="Arial" font-size="16px" x="910" y="412">Accent 7 (Darker)</text><text fill="black" font-family="Arial" font-size="14px" x="910" y="555">#251409</text></g><g id="Highlight_1_Light"><rect fill="#FFFDF8" height="120" rx="10" ry="10" width="120" x="60" y="600" /><text fill="black" font-family="Arial" font-size="16px" x="70" y="592">Highlight 1</text><text fill="black" font-family="Arial" font-size="14px" x="70" y="735">#FFFDF8</text></g><g id="Highlight_2_Light"><rect fill="#FFF5E6" height="120" rx="10" ry="10" width="120" x="200" y="600" /><text fill="black" font-family="Arial" font-size="16px" x="210" y="592">Highlight 2</text><text fill="black" font-family="Arial" font-size="14px" x="210" y="735">#FFF5E6</text></g><g id="Highlight_3_Light"><rect fill="#FFE1B3" height="120" rx="10" ry="10" width="120" x="340" y="600" /><text fill="black" font-family="Arial" font-size="16px" x="350" y="592">Highlight 3</text><text fill="black" font-family="Arial" font-size="14px" x="350" y="735">#FFE1B3</text></g><g id="Highlight_4_Main__Light"><rect fill="#F5B041" height="120" rx="10" ry="10" width="120" x="480" y="600" /><text fill="black" font-family="Arial" font-size="16px" x="490" y="592">Highlight 4 (Main)</text><text fill="black" font-family="Arial" font-size="14px" x="490" y="735">#F5B041</text></g><g id="Highlight_5_Light"><rect fill="#C99033" height="120" rx="10" ry="10" width="120" x="620" y="600" /><text fill="black" font-family="Arial" font-size="16px" x="630" y="592">Highlight 5</text><text fill="black" font-family="Arial" font-size="14px" x="630" y="735">#C99033</text></g><g id="Highlight_6_Light"><rect fill="#996B26" height="120" rx="10" ry="10" width="120" x="760" y="600" /><text fill="black" font-family="Arial" font-size="16px" x="770" y="592">Highlight 6</text><text fill="black" font-family="Arial" font-size="14px" x="770" y="735">#996B26</text></g><g id="Highlight_7_Darker__Light"><rect fill="#5C4015" height="120" rx="10" ry="10" width="120" x="900" y="600" /><text fill="black" font-family="Arial" font-size="16px" x="910" y="592">Highlight 7 (Darker)</text><text fill="black" font-family="Arial" font-size="14px" x="910" y="735">#5C4015</text></g><g id="Secondary_Highlight_1_Light"><rect fill="#FEF9F9" height="120" rx="10" ry="10" width="120" x="60" y="780" /><text fill="black" font-family="Arial" font-size="16px" x="70" y="772">Secondary Highlight 1</text><text fill="black" font-family="Arial" font-size="14px" x="70" y="915">#FEF9F9</text></g><g id="Secondary_Highlight_2_Light"><rect fill="#FDEEEF" height="120" rx="10" ry="10" width="120" x="200" y="780" /><text fill="black" font-family="Arial" font-size="16px" x="210" y="772">Secondary Highlight 2</text><text fill="black" font-family="Arial" font-size="14px" x="210" y="915">#FDEEEF</text></g><g id="Secondary_Highlight_3_Light"><rect fill="#F7CACE" height="120" rx="10" ry="10" width="120" x="340" y="780" /><text fill="black" font-family="Arial" font-size="16px" x="350" y="772">Secondary Highlight 3</text><text fill="black" font-family="Arial" font-size="14px" x="350" y="915">#F7CACE</text></g><g id="Secondary_Highlight_4_Main__Light"><rect fill="#C88389" height="120" rx="10" ry="10" width="120" x="480" y="780" /><text fill="black" font-family="Arial" font-size="16px" x="490" y="772">Secondary Highlight 4 (Main)</text><text fill="black" font-family="Arial" font-size="14px" x="490" y="915">#C88389</text></g><g id="Secondary_Highlight_5_Light"><rect fill="#9A666A" height="120" rx="10" ry="10" width="120" x="620" y="780" /><text fill="black" font-family="Arial" font-size="16px" x="630" y="772">Secondary Highlight 5</text><text fill="black" font-family="Arial" font-size="14px" x="630" y="915">#9A666A</text></g><g id="Secondary_Highlight_6_Light"><rect fill="#6F4A4D" height="120" rx="10" ry="10" width="120" x="760" y="780" /><text fill="black" font-family="Arial" font-size="16px" x="770" y="772">Secondary Highlight 6</text><text fill="black" font-family="Arial" font-size="14px" x="770" y="915">#6F4A4D</text></g><g id="Secondary_Highlight_7_Darker__Light"><rect fill="#3F2A2C" height="120" rx="10" ry="10" width="120" x="900" y="780" /><text fill="black" font-family="Arial" font-size="16px" x="910" y="772">Secondary Highlight 7 (Darker)</text><text fill="black" font-family="Arial" font-size="14px" x="910" y="915">#3F2A2C</text></g><g id="Neutral_1_Light"><rect fill="#FFFFFF" height="120" rx="10" ry="10" width="120" x="60" y="960" /><text fill="black" font-family="Arial" font-size="16px" x="70" y="952">Neutral 1</text><text fill="black" font-family="Arial" font-size="14px" x="70" y="1095">#FFFFFF</text></g><g id="Neutral_2_Light"><rect fill="#F2F5F5" height="120" rx="10" ry="10" width="120" x="200" y="960" /><text fill="black" font-family="Arial" font-size="16px" x="210" y="952">Neutral 2</text><text fill="black" font-family="Arial" font-size="14px" x="210" y="1095">#F2F5F5</text></g><g id="Neutral_3_Light"><rect fill="#CCD7D8" height="120" rx="10" ry="10" width="120" x="340" y="960" /><text fill="black" font-family="Arial" font-size="16px" x="350" y="952">Neutral 3</text><text fill="black" font-family="Arial" font-size="14px" x="350" y="1095">#CCD7D8</text></g><g id="Neutral_4_Main__Light"><rect fill="#AAB7B8" height="120" rx="10" ry="10" width="120" x="480" y="960" /><text fill="black" font-family="Arial" font-size="16px" x="490" y="952">Neutral 4 (Main)</text><text fill="black" font-family="Arial" font-size="14px" x="490" y="1095">#AAB7B8</text></g><g id="Neutral_5_Light"><rect fill="#889394" height="120" rx="10" ry="10" width="120" x="620" y="960" /><text fill="black" font-family="Arial" font-size="16px" x="630" y="952">Neutral 5</text><text fill="black" font-family="Arial" font-size="14px" x="630" y="1095">#889394</text></g><g id="Neutral_6_Light"><rect fill="#656D6E" height="120" rx="10" ry="10" width="120" x="760" y="960" /><text fill="black" font-family="Arial" font-size="16px" x="770" y="952">Neutral 6</text><text fill="black" font-family="Arial" font-size="14px" x="770" y="1095">#656D6E</text></g><g id="Neutral_7_Light"><rect fill="#000000" height="120" rx="10" ry="10" width="120" x="900" y="960" /><text fill="black" font-family="Arial" font-size="16px" x="910" y="952">Neutral 7</text><text fill="black" font-family="Arial" font-size="14px" x="910" y="1095">#000000</text></g><g id="Neutral_8_Darker__Light"><rect fill="#242727" height="120" rx="10" ry="10" width="120" x="60" y="1140" /><text fill="black" font-family="Arial" font-size="16px" x="70" y="1132">Neutral 8 (Darker)</text><text fill="black" font-family="Arial" font-size="14px" x="70" y="1275">#242727</text></g><g id="Depth_1_Light"><rect fill="#F9FAFA" height="120" rx="10" ry="10" width="120" x="200" y="1140" /><text fill="black" font-family="Arial" font-size="16px" x="210" y="1132">Depth 1</text><text fill="black" font-family="Arial" font-size="14px" x="210" y="1275">#F9FAFA</text></g><g id="Depth_2_Light"><rect fill="#E6EAEA" height="120" rx="10" ry="10" width="120" x="340" y="1140" /><text fill="black" font-family="Arial" font-size="16px" x="350" y="1132">Depth 2</text><text fill="black" font-family="Arial" font-size="14px" x="350" y="1275">#E6EAEA</text></g><g id="Depth_3_Light"><rect fill="#B0B7C0" height="120" rx="10" ry="10" width="120" x="480" y="1140" /><text fill="black" font-family="Arial" font-size="16px" x="490" y="1132">Depth 3</text><text fill="black" font-family="Arial" font-size="14px" x="490" y="1275">#B0B7C0</text></g><g id="Depth_4_Main__Light"><rect fill="#2C3E50" height="120" rx="10" ry="10" width="120" x="620" y="1140" /><text fill="black" font-family="Arial" font-size="16px" x="630" y="1132">Depth 4 (Main)</text><text fill="black" font-family="Arial" font-size="14px" x="630" y="1275">#2C3E50</text></g><g id="Depth_5_Light"><rect fill="#1E2B3C" height="120" rx="10" ry="10" width="120" x="760" y="1140" /><text fill="black" font-family="Arial" font-size="16px" x="770" y="1132">Depth 5</text><text fill="black" font-family="Arial" font-size="14px" x="770" y="1275">#1E2B3C</text></g><g id="Depth_6_Light"><rect fill="#131D28" height="120" rx="10" ry="10" width="120" x="900" y="1140" /><text fill="black" font-family="Arial" font-size="16px" x="910" y="1132">Depth 6</text><text fill="black" font-family="Arial" font-size="14px" x="910" y="1275">#131D28</text></g><g id="Depth_7_Darker__Light"><rect fill="#0B1118" height="120" rx="10" ry="10" width="120" x="60" y="1320" /><text fill="black" font-family="Arial" font-size="16px" x="70" y="1312">Depth 7 (Darker)</text><text fill="black" font-family="Arial" font-size="14px" x="70" y="1455">#0B1118</text></g></g><g id="DarkModeSwatches"><g id="Primary_1_Dark"><rect fill="#FAFFFD" height="120" rx="10" ry="10" width="120" x="60" y="1560" /><text fill="white" font-family="Arial" font-size="16px" x="70" y="1552">Primary 1</text><text fill="white" font-family="Arial" font-size="14px" x="70" y="1695">#FAFFFD</text></g><g id="Primary_2_Dark"><rect fill="#F2FAF7" height="120" rx="10" ry="10" width="120" x="200" y="1560" /><text fill="white" font-family="Arial" font-size="16px" x="210" y="1552">Primary 2</text><text fill="white" font-family="Arial" font-size="14px" x="210" y="1695">#F2FAF7</text></g><g id="Primary_3_Dark"><rect fill="#A4DBC4" height="120" rx="10" ry="10" width="120" x="340" y="1560" /><text fill="white" font-family="Arial" font-size="16px" x="350" y="1552">Primary 3</text><text fill="white" font-family="Arial" font-size="14px" x="350" y="1695">#A4DBC4</text></g><g id="Primary_4_Main__Dark"><rect fill="#2ECC71" height="120" rx="10" ry="10" width="120" x="480" y="1560" /><text fill="white" font-family="Arial" font-size="16px" x="490" y="1552">Primary 4 (Main)</text><text fill="white" font-family="Arial" font-size="14px" x="490" y="1695">#2ECC71</text></g><g id="Primary_5_Dark"><rect fill="#3B7C65" height="120" rx="10" ry="10" width="120" x="620" y="1560" /><text fill="white" font-family="Arial" font-size="16px" x="630" y="1552">Primary 5</text><text fill="white" font-family="Arial" font-size="14px" x="630" y="1695">#3B7C65</text></g><g id="Primary_6_Dark"><rect fill="#1A332A" height="120" rx="10" ry="10" width="120" x="760" y="1560" /><text fill="white" font-family="Arial" font-size="16px" x="770" y="1552">Primary 6</text><text fill="white" font-family="Arial" font-size="14px" x="770" y="1695">#1A332A</text></g><g id="Primary_7_Darker__Dark"><rect fill="#0F2118" height="120" rx="10" ry="10" width="120" x="900" y="1560" /><text fill="white" font-family="Arial" font-size="16px" x="910" y="1552">Primary 7 (Darker)</text><text fill="white" font-family="Arial" font-size="14px" x="910" y="1695">#0F2118</text></g><g id="Secondary_1_Dark"><rect fill="#F9FEFE" height="120" rx="10" ry="10" width="120" x="60" y="1740" /><text fill="white" font-family="Arial" font-size="16px" x="70" y="1732">Secondary 1</text><text fill="white" font-family="Arial" font-size="14px" x="70" y="1875">#F9FEFE</text></g><g id="Secondary_2_Dark"><rect fill="#F3F9FA" height="120" rx="10" ry="10" width="120" x="200" y="1740" /><text fill="white" font-family="Arial" font-size="16px" x="210" y="1732">Secondary 2</text><text fill="white" font-family="Arial" font-size="14px" x="210" y="1875">#F3F9FA</text></g><g id="Secondary_3_Dark"><rect fill="#C0E1E5" height="120" rx="10" ry="10" width="120" x="340" y="1740" /><text fill="white" font-family="Arial" font-size="16px" x="350" y="1732">Secondary 3</text><text fill="white" font-family="Arial" font-size="14px" x="350" y="1875">#C0E1E5</text></g><g id="Secondary_4_Main__Dark"><rect fill="#63B4BF" height="120" rx="10" ry="10" width="120" x="480" y="1740" /><text fill="white" font-family="Arial" font-size="16px" x="490" y="1732">Secondary 4 (Main)</text><text fill="white" font-family="Arial" font-size="14px" x="490" y="1875">#63B4BF</text></g><g id="Secondary_5_Dark"><rect fill="#38767F" height="120" rx="10" ry="10" width="120" x="620" y="1740" /><text fill="white" font-family="Arial" font-size="16px" x="630" y="1732">Secondary 5</text><text fill="white" font-family="Arial" font-size="14px" x="630" y="1875">#38767F</text></g><g id="Secondary_6_Dark"><rect fill="#193130" height="120" rx="10" ry="10" width="120" x="760" y="1740" /><text fill="white" font-family="Arial" font-size="16px" x="770" y="1732">Secondary 6</text><text fill="white" font-family="Arial" font-size="14px" x="770" y="1875">#193130</text></g><g id="Secondary_7_Darker__Dark"><rect fill="#0E1A1C" height="120" rx="10" ry="10" width="120" x="900" y="1740" /><text fill="white" font-family="Arial" font-size="16px" x="910" y="1732">Secondary 7 (Darker)</text><text fill="white" font-family="Arial" font-size="14px" x="910" y="1875">#0E1A1C</text></g><g id="Accent_1_Dark"><rect fill="#FFF8F3" height="120" rx="10" ry="10" width="120" x="60" y="1920" /><text fill="white" font-family="Arial" font-size="16px" x="70" y="1912">Accent 1</text><text fill="white" font-family="Arial" font-size="14px" x="70" y="2055">#FFF8F3</text></g><g id="Accent_2_Dark"><rect fill="#FFE3E6" height="120" rx="10" ry="10" width="120" x="200" y="1920" /><text fill="white" font-family="Arial" font-size="16px" x="210" y="1912">Accent 2</text><text fill="white" font-family="Arial" font-size="14px" x="210" y="2055">#FFE3E6</text></g><g id="Accent_3_Dark"><rect fill="#FFB3B6" height="120" rx="10" ry="10" width="120" x="340" y="1920" /><text fill="white" font-family="Arial" font-size="16px" x="350" y="1912">Accent 3</text><text fill="white" font-family="Arial" font-size="14px" x="350" y="2055">#FFB3B6</text></g><g id="Accent_4_Main__Dark"><rect fill="#FF9340" height="120" rx="10" ry="10" width="120" x="480" y="1920" /><text fill="white" font-family="Arial" font-size="16px" x="490" y="1912">Accent 4 (Main)</text><text fill="white" font-family="Arial" font-size="14px" x="490" y="2055">#FF9340</text></g><g id="Accent_5_Dark"><rect fill="#B52835" height="120" rx="10" ry="10" width="120" x="620" y="1920" /><text fill="white" font-family="Arial" font-size="16px" x="630" y="1912">Accent 5</text><text fill="white" font-family="Arial" font-size="14px" x="630" y="2055">#B52835</text></g><g id="Accent_6_Dark"><rect fill="#3F240F" height="120" rx="10" ry="10" width="120" x="760" y="1920" /><text fill="white" font-family="Arial" font-size="16px" x="770" y="1912">Accent 6</text><text fill="white" font-family="Arial" font-size="14px" x="770" y="2055">#3F240F</text></g><g id="Accent_7_Darker__Dark"><rect fill="#251409" height="120" rx="10" ry="10" width="120" x="900" y="1920" /><text fill="white" font-family="Arial" font-size="16px" x="910" y="1912">Accent 7 (Darker)</text><text fill="white" font-family="Arial" font-size="14px" x="910" y="2055">#251409</text></g><g id="Highlight_1_Dark"><rect fill="#FFFDF8" height="120" rx="10" ry="10" width="120" x="60" y="2100" /><text fill="white" font-family="Arial" font-size="16px" x="70" y="2092">Highlight 1</text><text fill="white" font-family="Arial" font-size="14px" x="70" y="2235">#FFFDF8</text></g><g id="Highlight_2_Dark"><rect fill="#FFF5E6" height="120" rx="10" ry="10" width="120" x="200" y="2100" /><text fill="white" font-family="Arial" font-size="16px" x="210" y="2092">Highlight 2</text><text fill="white" font-family="Arial" font-size="14px" x="210" y="2235">#FFF5E6</text></g><g id="Highlight_3_Dark"><rect fill="#FFE1B3" height="120" rx="10" ry="10" width="120" x="340" y="2100" /><text fill="white" font-family="Arial" font-size="16px" x="350" y="2092">Highlight 3</text><text fill="white" font-family="Arial" font-size="14px" x="350" y="2235">#FFE1B3</text></g><g id="Highlight_4_Main__Dark"><rect fill="#F5B041" height="120" rx="10" ry="10" width="120" x="480" y="2100" /><text fill="white" font-family="Arial" font-size="16px" x="490" y="2092">Highlight 4 (Main)</text><text fill="white" font-family="Arial" font-size="14px" x="490" y="2235">#F5B041</text></g><g id="Highlight_5_Dark"><rect fill="#C99033" height="120" rx="10" ry="10" width="120" x="620" y="2100" /><text fill="white" font-family="Arial" font-size="16px" x="630" y="2092">Highlight 5</text><text fill="white" font-family="Arial" font-size="14px" x="630" y="2235">#C99033</text></g><g id="Highlight_6_Dark"><rect fill="#996B26" height="120" rx="10" ry="10" width="120" x="760" y="2100" /><text fill="white" font-family="Arial" font-size="16px" x="770" y="2092">Highlight 6</text><text fill="white" font-family="Arial" font-size="14px" x="770" y="2235">#996B26</text></g><g id="Highlight_7_Darker__Dark"><rect fill="#5C4015" height="120" rx="10" ry="10" width="120" x="900" y="2100" /><text fill="white" font-family="Arial" font-size="16px" x="910" y="2092">Highlight 7 (Darker)</text><text fill="white" font-family="Arial" font-size="14px" x="910" y="2235">#5C4015</text></g><g id="Secondary_Highlight_1_Dark"><rect fill="#FEF9F9" height="120" rx="10" ry="10" width="120" x="60" y="2280" /><text fill="white" font-family="Arial" font-size="16px" x="70" y="2272">Secondary Highlight 1</text><text fill="white" font-family="Arial" font-size="14px" x="70" y="2415">#FEF9F9</text></g><g id="Secondary_Highlight_2_Dark"><rect fill="#FDEEEF" height="120" rx="10" ry="10" width="120" x="200" y="2280" /><text fill="white" font-family="Arial" font-size="16px" x="210" y="2272">Secondary Highlight 2</text><text fill="white" font-family="Arial" font-size="14px" x="210" y="2415">#FDEEEF</text></g><g id="Secondary_Highlight_3_Dark"><rect fill="#F7CACE" height="120" rx="10" ry="10" width="120" x="340" y="2280" /><text fill="white" font-family="Arial" font-size="16px" x="350" y="2272">Secondary Highlight 3</text><text fill="white" font-family="Arial" font-size="14px" x="350" y="2415">#F7CACE</text></g><g id="Secondary_Highlight_4_Main__Dark"><rect fill="#C88389" height="120" rx="10" ry="10" width="120" x="480" y="2280" /><text fill="white" font-family="Arial" font-size="16px" x="490" y="2272">Secondary Highlight 4 (Main)</text><text fill="white" font-family="Arial" font-size="14px" x="490" y="2415">#C88389</text></g><g id="Secondary_Highlight_5_Dark"><rect fill="#9A666A" height="120" rx="10" ry="10" width="120" x="620" y="2280" /><text fill="white" font-family="Arial" font-size="16px" x="630" y="2272">Secondary Highlight 5</text><text fill="white" font-family="Arial" font-size="14px" x="630" y="2415">#9A666A</text></g><g id="Secondary_Highlight_6_Dark"><rect fill="#6F4A4D" height="120" rx="10" ry="10" width="120" x="760" y="2280" /><text fill="white" font-family="Arial" font-size="16px" x="770" y="2272">Secondary Highlight 6</text><text fill="white" font-family="Arial" font-size="14px" x="770" y="2415">#6F4A4D</text></g><g id="Secondary_Highlight_7_Darker__Dark"><rect fill="#3F2A2C" height="120" rx="10" ry="10" width="120" x="900" y="2280" /><text fill="white" font-family="Arial" font-size="16px" x="910" y="2272">Secondary Highlight 7 (Darker)</text><text fill="white" font-family="Arial" font-size="14px" x="910" y="2415">#3F2A2C</text></g><g id="Neutral_1_Dark"><rect fill="#FFFFFF" height="120" rx="10" ry="10" width="120" x="60" y="2460" /><text fill="white" font-family="Arial" font-size="16px" x="70" y="2452">Neutral 1</text><text fill="white" font-family="Arial" font-size="14px" x="70" y="2595">#FFFFFF</text></g><g id="Neutral_2_Dark"><rect fill="#F2F5F5" height="120" rx="10" ry="10" width="120" x="200" y="2460" /><text fill="white" font-family="Arial" font-size="16px" x="210" y="2452">Neutral 2</text><text fill="white" font-family="Arial" font-size="14px" x="210" y="2595">#F2F5F5</text></g><g id="Neutral_3_Dark"><rect fill="#CCD7D8" height="120" rx="10" ry="10" width="120" x="340" y="2460" /><text fill="white" font-family="Arial" font-size="16px" x="350" y="2452">Neutral 3</text><text fill="white" font-family="Arial" font-size="14px" x="350" y="2595">#CCD7D8</text></g><g id="Neutral_4_Main__Dark"><rect fill="#AAB7B8" height="120" rx="10" ry="10" width="120" x="480" y="2460" /><text fill="white" font-family="Arial" font-size="16px" x="490" y="2452">Neutral 4 (Main)</text><text fill="white" font-family="Arial" font-size="14px" x="490" y="2595">#AAB7B8</text></g><g id="Neutral_5_Dark"><rect fill="#889394" height="120" rx="10" ry="10" width="120" x="620" y="2460" /><text fill="white" font-family="Arial" font-size="16px" x="630" y="2452">Neutral 5</text><text fill="white" font-family="Arial" font-size="14px" x="630" y="2595">#889394</text></g><g id="Neutral_6_Dark"><rect fill="#656D6E" height="120" rx="10" ry="10" width="120" x="760" y="2460" /><text fill="white" font-family="Arial" font-size="16px" x="770" y="2452">Neutral 6</text><text fill="white" font-family="Arial" font-size="14px" x="770" y="2595">#656D6E</text></g><g id="Neutral_7_Dark"><rect fill="#000000" height="120" rx="10" ry="10" width="120" x="900" y="2460" /><text fill="white" font-family="Arial" font-size="16px" x="910" y="2452">Neutral 7</text><text fill="white" font-family="Arial" font-size="14px" x="910" y="2595">#000000</text></g><g id="Neutral_8_Darker__Dark"><rect fill="#242727" height="120" rx="10" ry="10" width="120" x="60" y="2640" /><text fill="white" font-family="Arial" font-size="16px" x="70" y="2632">Neutral 8 (Darker)</text><text fill="white" font-family="Arial" font-size="14px" x="70" y="2775">#242727</text></g><g id="Depth_1_Dark"><rect fill="#F9FAFA" height="120" rx="10" ry="10" width="120" x="200" y="2640" /><text fill="white" font-family="Arial" font-size="16px" x="210" y="2632">Depth 1</text><text fill="white" font-family="Arial" font-size="14px" x="210" y="2775">#F9FAFA</text></g><g id="Depth_2_Dark"><rect fill="#E6EAEA" height="120" rx="10" ry="10" width="120" x="340" y="2640" /><text fill="white" font-family="Arial" font-size="16px" x="350" y="2632">Depth 2</text><text fill="white" font-family="Arial" font-size="14px" x="350" y="2775">#E6EAEA</text></g><g id="Depth_3_Dark"><rect fill="#B0B7C0" height="120" rx="10" ry="10" width="120" x="480" y="2640" /><text fill="white" font-family="Arial" font-size="16px" x="490" y="2632">Depth 3</text><text fill="white" font-family="Arial" font-size="14px" x="490" y="2775">#B0B7C0</text></g><g id="Depth_4_Main__Dark"><rect fill="#2C3E50" height="120" rx="10" ry="10" width="120" x="620" y="2640" /><text fill="white" font-family="Arial" font-size="16px" x="630" y="2632">Depth 4 (Main)</text><text fill="white" font-family="Arial" font-size="14px" x="630" y="2775">#2C3E50</text></g><g id="Depth_5_Dark"><rect fill="#1E2B3C" height="120" rx="10" ry="10" width="120" x="760" y="2640" /><text fill="white" font-family="Arial" font-size="16px" x="770" y="2632">Depth 5</text><text fill="white" font-family="Arial" font-size="14px" x="770" y="2775">#1E2B3C</text></g><g id="Depth_6_Dark"><rect fill="#131D28" height="120" rx="10" ry="10" width="120" x="900" y="2640" /><text fill="white" font-family="Arial" font-size="16px" x="910" y="2632">Depth 6</text><text fill="white" font-family="Arial" font-size="14px" x="910" y="2775">#131D28</text></g><g id="Depth_7_Darker__Dark"><rect fill="#0B1118" height="120" rx="10" ry="10" width="120" x="60" y="2820" /><text fill="white" font-family="Arial" font-size="16px" x="70" y="2812">Depth 7 (Darker)</text><text fill="white" font-family="Arial" font-size="14px" x="70" y="2955">#0B1118</text></g></g></svg>