<?xml version="1.0" encoding="utf-8" ?>
<svg baseProfile="tiny" height="3836" version="1.2" width="1290" xmlns="http://www.w3.org/2000/svg" xmlns:ev="http://www.w3.org/2001/xml-events" xmlns:xlink="http://www.w3.org/1999/xlink"><defs /><rect fill="white" height="1888.0" rx="12" ry="12" width="1230" x="30" y="30" /><rect fill="black" height="1888.0" rx="12" ry="12" width="1230" x="30" y="1933.0" /><rect fill="#FAFFFD" height="150" rx="12" ry="12" width="150" x="30" y="30" /><text fill="black" font-family="Arial" font-size="16px" x="40" y="22">Primary 1</text><text fill="black" font-family="Arial" font-size="14px" x="40" y="200">#FAFFFD</text><rect fill="#FAFFFD" height="150" rx="12" ry="12" width="150" x="30" y="1948.0" /><text fill="white" font-family="Arial" font-size="16px" x="40" y="1940.0">Primary 1</text><text fill="white" font-family="Arial" font-size="14px" x="40" y="2118.0">#FAFFFD</text><rect fill="#F2FAF7" height="150" rx="12" ry="12" width="150" x="210" y="30" /><text fill="black" font-family="Arial" font-size="16px" x="220" y="22">Primary 2</text><text fill="black" font-family="Arial" font-size="14px" x="220" y="200">#F2FAF7</text><rect fill="#F2FAF7" height="150" rx="12" ry="12" width="150" x="210" y="1948.0" /><text fill="white" font-family="Arial" font-size="16px" x="220" y="1940.0">Primary 2</text><text fill="white" font-family="Arial" font-size="14px" x="220" y="2118.0">#F2FAF7</text><rect fill="#A4DBC4" height="150" rx="12" ry="12" width="150" x="390" y="30" /><text fill="black" font-family="Arial" font-size="16px" x="400" y="22">Primary 3</text><text fill="black" font-family="Arial" font-size="14px" x="400" y="200">#A4DBC4</text><rect fill="#A4DBC4" height="150" rx="12" ry="12" width="150" x="390" y="1948.0" /><text fill="white" font-family="Arial" font-size="16px" x="400" y="1940.0">Primary 3</text><text fill="white" font-family="Arial" font-size="14px" x="400" y="2118.0">#A4DBC4</text><rect fill="#2ECC71" height="150" rx="12" ry="12" width="150" x="570" y="30" /><text fill="black" font-family="Arial" font-size="16px" x="580" y="22">Primary 4 (Main)</text><text fill="black" font-family="Arial" font-size="14px" x="580" y="200">#2ECC71</text><rect fill="#2ECC71" height="150" rx="12" ry="12" width="150" x="570" y="1948.0" /><text fill="white" font-family="Arial" font-size="16px" x="580" y="1940.0">Primary 4 (Main)</text><text fill="white" font-family="Arial" font-size="14px" x="580" y="2118.0">#2ECC71</text><rect fill="#3B7C65" height="150" rx="12" ry="12" width="150" x="750" y="30" /><text fill="black" font-family="Arial" font-size="16px" x="760" y="22">Primary 5</text><text fill="black" font-family="Arial" font-size="14px" x="760" y="200">#3B7C65</text><rect fill="#3B7C65" height="150" rx="12" ry="12" width="150" x="750" y="1948.0" /><text fill="white" font-family="Arial" font-size="16px" x="760" y="1940.0">Primary 5</text><text fill="white" font-family="Arial" font-size="14px" x="760" y="2118.0">#3B7C65</text><rect fill="#1A332A" height="150" rx="12" ry="12" width="150" x="930" y="30" /><text fill="black" font-family="Arial" font-size="16px" x="940" y="22">Primary 6</text><text fill="black" font-family="Arial" font-size="14px" x="940" y="200">#1A332A</text><rect fill="#1A332A" height="150" rx="12" ry="12" width="150" x="930" y="1948.0" /><text fill="white" font-family="Arial" font-size="16px" x="940" y="1940.0">Primary 6</text><text fill="white" font-family="Arial" font-size="14px" x="940" y="2118.0">#1A332A</text><rect fill="#0F2118" height="150" rx="12" ry="12" width="150" x="1110" y="30" /><text fill="black" font-family="Arial" font-size="16px" x="1120" y="22">Primary 7 (Darker)</text><text fill="black" font-family="Arial" font-size="14px" x="1120" y="200">#0F2118</text><rect fill="#0F2118" height="150" rx="12" ry="12" width="150" x="1110" y="1948.0" /><text fill="white" font-family="Arial" font-size="16px" x="1120" y="1940.0">Primary 7 (Darker)</text><text fill="white" font-family="Arial" font-size="14px" x="1120" y="2118.0">#0F2118</text><rect fill="#F9FEFE" height="150" rx="12" ry="12" width="150" x="30" y="266" /><text fill="black" font-family="Arial" font-size="16px" x="40" y="258">Secondary 1</text><text fill="black" font-family="Arial" font-size="14px" x="40" y="436">#F9FEFE</text><rect fill="#F9FEFE" height="150" rx="12" ry="12" width="150" x="30" y="2184.0" /><text fill="white" font-family="Arial" font-size="16px" x="40" y="2176.0">Secondary 1</text><text fill="white" font-family="Arial" font-size="14px" x="40" y="2354.0">#F9FEFE</text><rect fill="#F3F9FA" height="150" rx="12" ry="12" width="150" x="210" y="266" /><text fill="black" font-family="Arial" font-size="16px" x="220" y="258">Secondary 2</text><text fill="black" font-family="Arial" font-size="14px" x="220" y="436">#F3F9FA</text><rect fill="#F3F9FA" height="150" rx="12" ry="12" width="150" x="210" y="2184.0" /><text fill="white" font-family="Arial" font-size="16px" x="220" y="2176.0">Secondary 2</text><text fill="white" font-family="Arial" font-size="14px" x="220" y="2354.0">#F3F9FA</text><rect fill="#C0E1E5" height="150" rx="12" ry="12" width="150" x="390" y="266" /><text fill="black" font-family="Arial" font-size="16px" x="400" y="258">Secondary 3</text><text fill="black" font-family="Arial" font-size="14px" x="400" y="436">#C0E1E5</text><rect fill="#C0E1E5" height="150" rx="12" ry="12" width="150" x="390" y="2184.0" /><text fill="white" font-family="Arial" font-size="16px" x="400" y="2176.0">Secondary 3</text><text fill="white" font-family="Arial" font-size="14px" x="400" y="2354.0">#C0E1E5</text><rect fill="#63B4BF" height="150" rx="12" ry="12" width="150" x="570" y="266" /><text fill="black" font-family="Arial" font-size="16px" x="580" y="258">Secondary 4 (Main)</text><text fill="black" font-family="Arial" font-size="14px" x="580" y="436">#63B4BF</text><rect fill="#63B4BF" height="150" rx="12" ry="12" width="150" x="570" y="2184.0" /><text fill="white" font-family="Arial" font-size="16px" x="580" y="2176.0">Secondary 4 (Main)</text><text fill="white" font-family="Arial" font-size="14px" x="580" y="2354.0">#63B4BF</text><rect fill="#38767F" height="150" rx="12" ry="12" width="150" x="750" y="266" /><text fill="black" font-family="Arial" font-size="16px" x="760" y="258">Secondary 5</text><text fill="black" font-family="Arial" font-size="14px" x="760" y="436">#38767F</text><rect fill="#38767F" height="150" rx="12" ry="12" width="150" x="750" y="2184.0" /><text fill="white" font-family="Arial" font-size="16px" x="760" y="2176.0">Secondary 5</text><text fill="white" font-family="Arial" font-size="14px" x="760" y="2354.0">#38767F</text><rect fill="#193130" height="150" rx="12" ry="12" width="150" x="930" y="266" /><text fill="black" font-family="Arial" font-size="16px" x="940" y="258">Secondary 6</text><text fill="black" font-family="Arial" font-size="14px" x="940" y="436">#193130</text><rect fill="#193130" height="150" rx="12" ry="12" width="150" x="930" y="2184.0" /><text fill="white" font-family="Arial" font-size="16px" x="940" y="2176.0">Secondary 6</text><text fill="white" font-family="Arial" font-size="14px" x="940" y="2354.0">#193130</text><rect fill="#0E1A1C" height="150" rx="12" ry="12" width="150" x="1110" y="266" /><text fill="black" font-family="Arial" font-size="16px" x="1120" y="258">Secondary 7 (Darker)</text><text fill="black" font-family="Arial" font-size="14px" x="1120" y="436">#0E1A1C</text><rect fill="#0E1A1C" height="150" rx="12" ry="12" width="150" x="1110" y="2184.0" /><text fill="white" font-family="Arial" font-size="16px" x="1120" y="2176.0">Secondary 7 (Darker)</text><text fill="white" font-family="Arial" font-size="14px" x="1120" y="2354.0">#0E1A1C</text><rect fill="#FFF8F3" height="150" rx="12" ry="12" width="150" x="30" y="502" /><text fill="black" font-family="Arial" font-size="16px" x="40" y="494">Accent 1</text><text fill="black" font-family="Arial" font-size="14px" x="40" y="672">#FFF8F3</text><rect fill="#FFF8F3" height="150" rx="12" ry="12" width="150" x="30" y="2420.0" /><text fill="white" font-family="Arial" font-size="16px" x="40" y="2412.0">Accent 1</text><text fill="white" font-family="Arial" font-size="14px" x="40" y="2590.0">#FFF8F3</text><rect fill="#FFE3E6" height="150" rx="12" ry="12" width="150" x="210" y="502" /><text fill="black" font-family="Arial" font-size="16px" x="220" y="494">Accent 2</text><text fill="black" font-family="Arial" font-size="14px" x="220" y="672">#FFE3E6</text><rect fill="#FFE3E6" height="150" rx="12" ry="12" width="150" x="210" y="2420.0" /><text fill="white" font-family="Arial" font-size="16px" x="220" y="2412.0">Accent 2</text><text fill="white" font-family="Arial" font-size="14px" x="220" y="2590.0">#FFE3E6</text><rect fill="#FFB3B6" height="150" rx="12" ry="12" width="150" x="390" y="502" /><text fill="black" font-family="Arial" font-size="16px" x="400" y="494">Accent 3</text><text fill="black" font-family="Arial" font-size="14px" x="400" y="672">#FFB3B6</text><rect fill="#FFB3B6" height="150" rx="12" ry="12" width="150" x="390" y="2420.0" /><text fill="white" font-family="Arial" font-size="16px" x="400" y="2412.0">Accent 3</text><text fill="white" font-family="Arial" font-size="14px" x="400" y="2590.0">#FFB3B6</text><rect fill="#FF9340" height="150" rx="12" ry="12" width="150" x="570" y="502" /><text fill="black" font-family="Arial" font-size="16px" x="580" y="494">Accent 4 (Main)</text><text fill="black" font-family="Arial" font-size="14px" x="580" y="672">#FF9340</text><rect fill="#FF9340" height="150" rx="12" ry="12" width="150" x="570" y="2420.0" /><text fill="white" font-family="Arial" font-size="16px" x="580" y="2412.0">Accent 4 (Main)</text><text fill="white" font-family="Arial" font-size="14px" x="580" y="2590.0">#FF9340</text><rect fill="#B52835" height="150" rx="12" ry="12" width="150" x="750" y="502" /><text fill="black" font-family="Arial" font-size="16px" x="760" y="494">Accent 5</text><text fill="black" font-family="Arial" font-size="14px" x="760" y="672">#B52835</text><rect fill="#B52835" height="150" rx="12" ry="12" width="150" x="750" y="2420.0" /><text fill="white" font-family="Arial" font-size="16px" x="760" y="2412.0">Accent 5</text><text fill="white" font-family="Arial" font-size="14px" x="760" y="2590.0">#B52835</text><rect fill="#3F240F" height="150" rx="12" ry="12" width="150" x="930" y="502" /><text fill="black" font-family="Arial" font-size="16px" x="940" y="494">Accent 6</text><text fill="black" font-family="Arial" font-size="14px" x="940" y="672">#3F240F</text><rect fill="#3F240F" height="150" rx="12" ry="12" width="150" x="930" y="2420.0" /><text fill="white" font-family="Arial" font-size="16px" x="940" y="2412.0">Accent 6</text><text fill="white" font-family="Arial" font-size="14px" x="940" y="2590.0">#3F240F</text><rect fill="#251409" height="150" rx="12" ry="12" width="150" x="1110" y="502" /><text fill="black" font-family="Arial" font-size="16px" x="1120" y="494">Accent 7 (Darker)</text><text fill="black" font-family="Arial" font-size="14px" x="1120" y="672">#251409</text><rect fill="#251409" height="150" rx="12" ry="12" width="150" x="1110" y="2420.0" /><text fill="white" font-family="Arial" font-size="16px" x="1120" y="2412.0">Accent 7 (Darker)</text><text fill="white" font-family="Arial" font-size="14px" x="1120" y="2590.0">#251409</text><rect fill="#FFFDF8" height="150" rx="12" ry="12" width="150" x="30" y="738" /><text fill="black" font-family="Arial" font-size="16px" x="40" y="730">Highlight 1</text><text fill="black" font-family="Arial" font-size="14px" x="40" y="908">#FFFDF8</text><rect fill="#FFFDF8" height="150" rx="12" ry="12" width="150" x="30" y="2656.0" /><text fill="white" font-family="Arial" font-size="16px" x="40" y="2648.0">Highlight 1</text><text fill="white" font-family="Arial" font-size="14px" x="40" y="2826.0">#FFFDF8</text><rect fill="#FFF5E6" height="150" rx="12" ry="12" width="150" x="210" y="738" /><text fill="black" font-family="Arial" font-size="16px" x="220" y="730">Highlight 2</text><text fill="black" font-family="Arial" font-size="14px" x="220" y="908">#FFF5E6</text><rect fill="#FFF5E6" height="150" rx="12" ry="12" width="150" x="210" y="2656.0" /><text fill="white" font-family="Arial" font-size="16px" x="220" y="2648.0">Highlight 2</text><text fill="white" font-family="Arial" font-size="14px" x="220" y="2826.0">#FFF5E6</text><rect fill="#FFE1B3" height="150" rx="12" ry="12" width="150" x="390" y="738" /><text fill="black" font-family="Arial" font-size="16px" x="400" y="730">Highlight 3</text><text fill="black" font-family="Arial" font-size="14px" x="400" y="908">#FFE1B3</text><rect fill="#FFE1B3" height="150" rx="12" ry="12" width="150" x="390" y="2656.0" /><text fill="white" font-family="Arial" font-size="16px" x="400" y="2648.0">Highlight 3</text><text fill="white" font-family="Arial" font-size="14px" x="400" y="2826.0">#FFE1B3</text><rect fill="#F5B041" height="150" rx="12" ry="12" width="150" x="570" y="738" /><text fill="black" font-family="Arial" font-size="16px" x="580" y="730">Highlight 4 (Main)</text><text fill="black" font-family="Arial" font-size="14px" x="580" y="908">#F5B041</text><rect fill="#F5B041" height="150" rx="12" ry="12" width="150" x="570" y="2656.0" /><text fill="white" font-family="Arial" font-size="16px" x="580" y="2648.0">Highlight 4 (Main)</text><text fill="white" font-family="Arial" font-size="14px" x="580" y="2826.0">#F5B041</text><rect fill="#C99033" height="150" rx="12" ry="12" width="150" x="750" y="738" /><text fill="black" font-family="Arial" font-size="16px" x="760" y="730">Highlight 5</text><text fill="black" font-family="Arial" font-size="14px" x="760" y="908">#C99033</text><rect fill="#C99033" height="150" rx="12" ry="12" width="150" x="750" y="2656.0" /><text fill="white" font-family="Arial" font-size="16px" x="760" y="2648.0">Highlight 5</text><text fill="white" font-family="Arial" font-size="14px" x="760" y="2826.0">#C99033</text><rect fill="#996B26" height="150" rx="12" ry="12" width="150" x="930" y="738" /><text fill="black" font-family="Arial" font-size="16px" x="940" y="730">Highlight 6</text><text fill="black" font-family="Arial" font-size="14px" x="940" y="908">#996B26</text><rect fill="#996B26" height="150" rx="12" ry="12" width="150" x="930" y="2656.0" /><text fill="white" font-family="Arial" font-size="16px" x="940" y="2648.0">Highlight 6</text><text fill="white" font-family="Arial" font-size="14px" x="940" y="2826.0">#996B26</text><rect fill="#5C4015" height="150" rx="12" ry="12" width="150" x="1110" y="738" /><text fill="black" font-family="Arial" font-size="16px" x="1120" y="730">Highlight 7 (Darker)</text><text fill="black" font-family="Arial" font-size="14px" x="1120" y="908">#5C4015</text><rect fill="#5C4015" height="150" rx="12" ry="12" width="150" x="1110" y="2656.0" /><text fill="white" font-family="Arial" font-size="16px" x="1120" y="2648.0">Highlight 7 (Darker)</text><text fill="white" font-family="Arial" font-size="14px" x="1120" y="2826.0">#5C4015</text><rect fill="#FEF9F9" height="150" rx="12" ry="12" width="150" x="30" y="974" /><text fill="black" font-family="Arial" font-size="16px" x="40" y="966">Secondary Highlight 1</text><text fill="black" font-family="Arial" font-size="14px" x="40" y="1144">#FEF9F9</text><rect fill="#FEF9F9" height="150" rx="12" ry="12" width="150" x="30" y="2892.0" /><text fill="white" font-family="Arial" font-size="16px" x="40" y="2884.0">Secondary Highlight 1</text><text fill="white" font-family="Arial" font-size="14px" x="40" y="3062.0">#FEF9F9</text><rect fill="#FDEEEF" height="150" rx="12" ry="12" width="150" x="210" y="974" /><text fill="black" font-family="Arial" font-size="16px" x="220" y="966">Secondary Highlight 2</text><text fill="black" font-family="Arial" font-size="14px" x="220" y="1144">#FDEEEF</text><rect fill="#FDEEEF" height="150" rx="12" ry="12" width="150" x="210" y="2892.0" /><text fill="white" font-family="Arial" font-size="16px" x="220" y="2884.0">Secondary Highlight 2</text><text fill="white" font-family="Arial" font-size="14px" x="220" y="3062.0">#FDEEEF</text><rect fill="#F7CACE" height="150" rx="12" ry="12" width="150" x="390" y="974" /><text fill="black" font-family="Arial" font-size="16px" x="400" y="966">Secondary Highlight 3</text><text fill="black" font-family="Arial" font-size="14px" x="400" y="1144">#F7CACE</text><rect fill="#F7CACE" height="150" rx="12" ry="12" width="150" x="390" y="2892.0" /><text fill="white" font-family="Arial" font-size="16px" x="400" y="2884.0">Secondary Highlight 3</text><text fill="white" font-family="Arial" font-size="14px" x="400" y="3062.0">#F7CACE</text><rect fill="#C88389" height="150" rx="12" ry="12" width="150" x="570" y="974" /><text fill="black" font-family="Arial" font-size="16px" x="580" y="966">Secondary Highlight 4 (Main)</text><text fill="black" font-family="Arial" font-size="14px" x="580" y="1144">#C88389</text><rect fill="#C88389" height="150" rx="12" ry="12" width="150" x="570" y="2892.0" /><text fill="white" font-family="Arial" font-size="16px" x="580" y="2884.0">Secondary Highlight 4 (Main)</text><text fill="white" font-family="Arial" font-size="14px" x="580" y="3062.0">#C88389</text><rect fill="#9A666A" height="150" rx="12" ry="12" width="150" x="750" y="974" /><text fill="black" font-family="Arial" font-size="16px" x="760" y="966">Secondary Highlight 5</text><text fill="black" font-family="Arial" font-size="14px" x="760" y="1144">#9A666A</text><rect fill="#9A666A" height="150" rx="12" ry="12" width="150" x="750" y="2892.0" /><text fill="white" font-family="Arial" font-size="16px" x="760" y="2884.0">Secondary Highlight 5</text><text fill="white" font-family="Arial" font-size="14px" x="760" y="3062.0">#9A666A</text><rect fill="#6F4A4D" height="150" rx="12" ry="12" width="150" x="930" y="974" /><text fill="black" font-family="Arial" font-size="16px" x="940" y="966">Secondary Highlight 6</text><text fill="black" font-family="Arial" font-size="14px" x="940" y="1144">#6F4A4D</text><rect fill="#6F4A4D" height="150" rx="12" ry="12" width="150" x="930" y="2892.0" /><text fill="white" font-family="Arial" font-size="16px" x="940" y="2884.0">Secondary Highlight 6</text><text fill="white" font-family="Arial" font-size="14px" x="940" y="3062.0">#6F4A4D</text><rect fill="#3F2A2C" height="150" rx="12" ry="12" width="150" x="1110" y="974" /><text fill="black" font-family="Arial" font-size="16px" x="1120" y="966">Secondary Highlight 7 (Darker)</text><text fill="black" font-family="Arial" font-size="14px" x="1120" y="1144">#3F2A2C</text><rect fill="#3F2A2C" height="150" rx="12" ry="12" width="150" x="1110" y="2892.0" /><text fill="white" font-family="Arial" font-size="16px" x="1120" y="2884.0">Secondary Highlight 7 (Darker)</text><text fill="white" font-family="Arial" font-size="14px" x="1120" y="3062.0">#3F2A2C</text><rect fill="#FFFFFF" height="150" rx="12" ry="12" width="150" x="30" y="1210" /><text fill="black" font-family="Arial" font-size="16px" x="40" y="1202">Neutral 1</text><text fill="black" font-family="Arial" font-size="14px" x="40" y="1380">#FFFFFF</text><rect fill="#FFFFFF" height="150" rx="12" ry="12" width="150" x="30" y="3128.0" /><text fill="white" font-family="Arial" font-size="16px" x="40" y="3120.0">Neutral 1</text><text fill="white" font-family="Arial" font-size="14px" x="40" y="3298.0">#FFFFFF</text><rect fill="#F2F5F5" height="150" rx="12" ry="12" width="150" x="210" y="1210" /><text fill="black" font-family="Arial" font-size="16px" x="220" y="1202">Neutral 2</text><text fill="black" font-family="Arial" font-size="14px" x="220" y="1380">#F2F5F5</text><rect fill="#F2F5F5" height="150" rx="12" ry="12" width="150" x="210" y="3128.0" /><text fill="white" font-family="Arial" font-size="16px" x="220" y="3120.0">Neutral 2</text><text fill="white" font-family="Arial" font-size="14px" x="220" y="3298.0">#F2F5F5</text><rect fill="#CCD7D8" height="150" rx="12" ry="12" width="150" x="390" y="1210" /><text fill="black" font-family="Arial" font-size="16px" x="400" y="1202">Neutral 3</text><text fill="black" font-family="Arial" font-size="14px" x="400" y="1380">#CCD7D8</text><rect fill="#CCD7D8" height="150" rx="12" ry="12" width="150" x="390" y="3128.0" /><text fill="white" font-family="Arial" font-size="16px" x="400" y="3120.0">Neutral 3</text><text fill="white" font-family="Arial" font-size="14px" x="400" y="3298.0">#CCD7D8</text><rect fill="#AAB7B8" height="150" rx="12" ry="12" width="150" x="570" y="1210" /><text fill="black" font-family="Arial" font-size="16px" x="580" y="1202">Neutral 4 (Main)</text><text fill="black" font-family="Arial" font-size="14px" x="580" y="1380">#AAB7B8</text><rect fill="#AAB7B8" height="150" rx="12" ry="12" width="150" x="570" y="3128.0" /><text fill="white" font-family="Arial" font-size="16px" x="580" y="3120.0">Neutral 4 (Main)</text><text fill="white" font-family="Arial" font-size="14px" x="580" y="3298.0">#AAB7B8</text><rect fill="#889394" height="150" rx="12" ry="12" width="150" x="750" y="1210" /><text fill="black" font-family="Arial" font-size="16px" x="760" y="1202">Neutral 5</text><text fill="black" font-family="Arial" font-size="14px" x="760" y="1380">#889394</text><rect fill="#889394" height="150" rx="12" ry="12" width="150" x="750" y="3128.0" /><text fill="white" font-family="Arial" font-size="16px" x="760" y="3120.0">Neutral 5</text><text fill="white" font-family="Arial" font-size="14px" x="760" y="3298.0">#889394</text><rect fill="#656D6E" height="150" rx="12" ry="12" width="150" x="930" y="1210" /><text fill="black" font-family="Arial" font-size="16px" x="940" y="1202">Neutral 6</text><text fill="black" font-family="Arial" font-size="14px" x="940" y="1380">#656D6E</text><rect fill="#656D6E" height="150" rx="12" ry="12" width="150" x="930" y="3128.0" /><text fill="white" font-family="Arial" font-size="16px" x="940" y="3120.0">Neutral 6</text><text fill="white" font-family="Arial" font-size="14px" x="940" y="3298.0">#656D6E</text><rect fill="#000000" height="150" rx="12" ry="12" width="150" x="1110" y="1210" /><text fill="black" font-family="Arial" font-size="16px" x="1120" y="1202">Neutral 7</text><text fill="black" font-family="Arial" font-size="14px" x="1120" y="1380">#000000</text><rect fill="#000000" height="150" rx="12" ry="12" width="150" x="1110" y="3128.0" /><text fill="white" font-family="Arial" font-size="16px" x="1120" y="3120.0">Neutral 7</text><text fill="white" font-family="Arial" font-size="14px" x="1120" y="3298.0">#000000</text><rect fill="#242727" height="150" rx="12" ry="12" width="150" x="30" y="1446" /><text fill="black" font-family="Arial" font-size="16px" x="40" y="1438">Neutral 8 (Darker)</text><text fill="black" font-family="Arial" font-size="14px" x="40" y="1616">#242727</text><rect fill="#242727" height="150" rx="12" ry="12" width="150" x="30" y="3364.0" /><text fill="white" font-family="Arial" font-size="16px" x="40" y="3356.0">Neutral 8 (Darker)</text><text fill="white" font-family="Arial" font-size="14px" x="40" y="3534.0">#242727</text><rect fill="#F9FAFA" height="150" rx="12" ry="12" width="150" x="210" y="1446" /><text fill="black" font-family="Arial" font-size="16px" x="220" y="1438">Depth 1</text><text fill="black" font-family="Arial" font-size="14px" x="220" y="1616">#F9FAFA</text><rect fill="#F9FAFA" height="150" rx="12" ry="12" width="150" x="210" y="3364.0" /><text fill="white" font-family="Arial" font-size="16px" x="220" y="3356.0">Depth 1</text><text fill="white" font-family="Arial" font-size="14px" x="220" y="3534.0">#F9FAFA</text><rect fill="#E6EAEA" height="150" rx="12" ry="12" width="150" x="390" y="1446" /><text fill="black" font-family="Arial" font-size="16px" x="400" y="1438">Depth 2</text><text fill="black" font-family="Arial" font-size="14px" x="400" y="1616">#E6EAEA</text><rect fill="#E6EAEA" height="150" rx="12" ry="12" width="150" x="390" y="3364.0" /><text fill="white" font-family="Arial" font-size="16px" x="400" y="3356.0">Depth 2</text><text fill="white" font-family="Arial" font-size="14px" x="400" y="3534.0">#E6EAEA</text><rect fill="#B0B7C0" height="150" rx="12" ry="12" width="150" x="570" y="1446" /><text fill="black" font-family="Arial" font-size="16px" x="580" y="1438">Depth 3</text><text fill="black" font-family="Arial" font-size="14px" x="580" y="1616">#B0B7C0</text><rect fill="#B0B7C0" height="150" rx="12" ry="12" width="150" x="570" y="3364.0" /><text fill="white" font-family="Arial" font-size="16px" x="580" y="3356.0">Depth 3</text><text fill="white" font-family="Arial" font-size="14px" x="580" y="3534.0">#B0B7C0</text><rect fill="#2C3E50" height="150" rx="12" ry="12" width="150" x="750" y="1446" /><text fill="black" font-family="Arial" font-size="16px" x="760" y="1438">Depth 4 (Main)</text><text fill="black" font-family="Arial" font-size="14px" x="760" y="1616">#2C3E50</text><rect fill="#2C3E50" height="150" rx="12" ry="12" width="150" x="750" y="3364.0" /><text fill="white" font-family="Arial" font-size="16px" x="760" y="3356.0">Depth 4 (Main)</text><text fill="white" font-family="Arial" font-size="14px" x="760" y="3534.0">#2C3E50</text><rect fill="#1E2B3C" height="150" rx="12" ry="12" width="150" x="930" y="1446" /><text fill="black" font-family="Arial" font-size="16px" x="940" y="1438">Depth 5</text><text fill="black" font-family="Arial" font-size="14px" x="940" y="1616">#1E2B3C</text><rect fill="#1E2B3C" height="150" rx="12" ry="12" width="150" x="930" y="3364.0" /><text fill="white" font-family="Arial" font-size="16px" x="940" y="3356.0">Depth 5</text><text fill="white" font-family="Arial" font-size="14px" x="940" y="3534.0">#1E2B3C</text><rect fill="#131D28" height="150" rx="12" ry="12" width="150" x="1110" y="1446" /><text fill="black" font-family="Arial" font-size="16px" x="1120" y="1438">Depth 6</text><text fill="black" font-family="Arial" font-size="14px" x="1120" y="1616">#131D28</text><rect fill="#131D28" height="150" rx="12" ry="12" width="150" x="1110" y="3364.0" /><text fill="white" font-family="Arial" font-size="16px" x="1120" y="3356.0">Depth 6</text><text fill="white" font-family="Arial" font-size="14px" x="1120" y="3534.0">#131D28</text><rect fill="#0B1118" height="150" rx="12" ry="12" width="150" x="30" y="1682" /><text fill="black" font-family="Arial" font-size="16px" x="40" y="1674">Depth 7 (Darker)</text><text fill="black" font-family="Arial" font-size="14px" x="40" y="1852">#0B1118</text><rect fill="#0B1118" height="150" rx="12" ry="12" width="150" x="30" y="3600.0" /><text fill="white" font-family="Arial" font-size="16px" x="40" y="3592.0">Depth 7 (Darker)</text><text fill="white" font-family="Arial" font-size="14px" x="40" y="3770.0">#0B1118</text></svg>