<?xml version="1.0" encoding="utf-8" ?>
<svg baseProfile="tiny" height="3040" version="1.2" width="1040" xmlns="http://www.w3.org/2000/svg" xmlns:ev="http://www.w3.org/2001/xml-events" xmlns:xlink="http://www.w3.org/1999/xlink"><defs /><g id="Backgrounds"><rect fill="white" height="1460" id="LightBackground" rx="10" ry="10" width="1000" x="40" y="80" /><rect fill="black" height="1460" id="DarkBackground" rx="10" ry="10" width="1000" x="40" y="1580" /></g><g id="LightModeSwatches"><g id="Primary_1_Light"><rect fill="#FAFFFD" height="120" rx="10" ry="10" width="120" x="60" y="100" /><text fill="black" font-family="Arial" font-size="16px" x="70" y="92">Primary 1</text><text fill="black" font-family="Arial" font-size="14px" x="70" y="235">#FAFFFD</text></g><g id="Primary_2_Light"><rect fill="#F2FAF7" height="120" rx="10" ry="10" width="120" x="200" y="100" /><text fill="black" font-family="Arial" font-size="16px" x="210" y="92">Primary 2</text><text fill="black" font-family="Arial" font-size="14px" x="210" y="235">#F2FAF7</text></g><g id="Primary_3_Light"><rect fill="#A4DBC4" height="120" rx="10" ry="10" width="120" x="340" y="100" /><text fill="black" font-family="Arial" font-size="16px" x="350" y="92">Primary 3</text><text fill="black" font-family="Arial" font-size="14px" x="350" y="235">#A4DBC4</text></g><g id="Primary_4_Main__Light"><rect fill="#2ECC71" height="120" rx="10" ry="10" width="120" x="480" y="100" /><text fill="black" font-family="Arial" font-size="16px" x="490" y="92">Primary 4 (Main)</text><text fill="black" font-family="Arial" font-size="14px" x="490" y="235">#2ECC71</text></g><g id="Primary_5_Light"><rect fill="#3B7C65" height="120" rx="10" ry="10" width="120" x="620" y="100" /><text fill="black" font-family="Arial" font-size="16px" x="630" y="92">Primary 5</text><text fill="black" font-family="Arial" font-size="14px" x="630" y="235">#3B7C65</text></g><g id="Primary_6_Light"><rect fill="#1A332A" height="120" rx="10" ry="10" width="120" x="760" y="100" /><text fill="black" font-family="Arial" font-size="16px" x="770" y="92">Primary 6</text><text fill="black" font-family="Arial" font-size="14px" x="770" y="235">#1A332A</text></g><g id="Primary_7_Darker__Light"><rect fill="#0F2118" height="120" rx="10" ry="10" width="120" x="900" y="100" /><text fill="black" font-family="Arial" font-size="16px" x="910" y="92">Primary 7 (Darker)</text><text fill="black" font-family="Arial" font-size="14px" x="910" y="235">#0F2118</text></g><g id="Secondary_1_Light"><rect fill="#F9FEFE" height="120" rx="10" ry="10" width="120" x="60" y="280" /><text fill="black" font-family="Arial" font-size="16px" x="70" y="272">Secondary 1</text><text fill="black" font-family="Arial" font-size="14px" x="70" y="415">#F9FEFE</text></g><g id="Secondary_2_Light"><rect fill="#F3F9FA" height="120" rx="10" ry="10" width="120" x="200" y="280" /><text fill="black" font-family="Arial" font-size="16px" x="210" y="272">Secondary 2</text><text fill="black" font-family="Arial" font-size="14px" x="210" y="415">#F3F9FA</text></g><g id="Secondary_3_Light"><rect fill="#C0E1E5" height="120" rx="10" ry="10" width="120" x="340" y="280" /><text fill="black" font-family="Arial" font-size="16px" x="350" y="272">Secondary 3</text><text fill="black" font-family="Arial" font-size="14px" x="350" y="415">#C0E1E5</text></g><g id="Secondary_4_Main__Light"><rect fill="#63B4BF" height="120" rx="10" ry="10" width="120" x="480" y="280" /><text fill="black" font-family="Arial" font-size="16px" x="490" y="272">Secondary 4 (Main)</text><text fill="black" font-family="Arial" font-size="14px" x="490" y="415">#63B4BF</text></g><g id="Secondary_5_Light"><rect fill="#38767F" height="120" rx="10" ry="10" width="120" x="620" y="280" /><text fill="black" font-family="Arial" font-size="16px" x="630" y="272">Secondary 5</text><text fill="black" font-family="Arial" font-size="14px" x="630" y="415">#38767F</text></g><g id="Secondary_6_Light"><rect fill="#193130" height="120" rx="10" ry="10" width="120" x="760" y="280" /><text fill="black" font-family="Arial" font-size="16px" x="770" y="272">Secondary 6</text><text fill="black" font-family="Arial" font-size="14px" x="770" y="415">#193130</text></g><g id="Secondary_7_Darker__Light"><rect fill="#0E1A1C" height="120" rx="10" ry="10" width="120" x="900" y="280" /><text fill="black" font-family="Arial" font-size="16px" x="910" y="272">Secondary 7 (Darker)</text><text fill="black" font-family="Arial" font-size="14px" x="910" y="415">#0E1A1C</text></g><g id="Accent_1_Light"><rect fill="#FFF8F3" height="120" rx="10" ry="10" width="120" x="60" y="460" /><text fill="black" font-family="Arial" font-size="16px" x="70" y="452">Accent 1</text><text fill="black" font-family="Arial" font-size="14px" x="70" y="595">#FFF8F3</text></g><g id="Accent_2_Light"><rect fill="#FFE3E6" height="120" rx="10" ry="10" width="120" x="200" y="460" /><text fill="black" font-family="Arial" font-size="16px" x="210" y="452">Accent 2</text><text fill="black" font-family="Arial" font-size="14px" x="210" y="595">#FFE3E6</text></g><g id="Accent_3_Light"><rect fill="#FFB3B6" height="120" rx="10" ry="10" width="120" x="340" y="460" /><text fill="black" font-family="Arial" font-size="16px" x="350" y="452">Accent 3</text><text fill="black" font-family="Arial" font-size="14px" x="350" y="595">#FFB3B6</text></g><g id="Accent_4_Main__Light"><rect fill="#FF9340" height="120" rx="10" ry="10" width="120" x="480" y="460" /><text fill="black" font-family="Arial" font-size="16px" x="490" y="452">Accent 4 (Main)</text><text fill="black" font-family="Arial" font-size="14px" x="490" y="595">#FF9340</text></g><g id="Accent_5_Light"><rect fill="#B52835" height="120" rx="10" ry="10" width="120" x="620" y="460" /><text fill="black" font-family="Arial" font-size="16px" x="630" y="452">Accent 5</text><text fill="black" font-family="Arial" font-size="14px" x="630" y="595">#B52835</text></g><g id="Accent_6_Light"><rect fill="#3F240F" height="120" rx="10" ry="10" width="120" x="760" y="460" /><text fill="black" font-family="Arial" font-size="16px" x="770" y="452">Accent 6</text><text fill="black" font-family="Arial" font-size="14px" x="770" y="595">#3F240F</text></g><g id="Accent_7_Darker__Light"><rect fill="#251409" height="120" rx="10" ry="10" width="120" x="900" y="460" /><text fill="black" font-family="Arial" font-size="16px" x="910" y="452">Accent 7 (Darker)</text><text fill="black" font-family="Arial" font-size="14px" x="910" y="595">#251409</text></g><g id="Highlight_1_Light"><rect fill="#FFFDF8" height="120" rx="10" ry="10" width="120" x="60" y="640" /><text fill="black" font-family="Arial" font-size="16px" x="70" y="632">Highlight 1</text><text fill="black" font-family="Arial" font-size="14px" x="70" y="775">#FFFDF8</text></g><g id="Highlight_2_Light"><rect fill="#FFF5E6" height="120" rx="10" ry="10" width="120" x="200" y="640" /><text fill="black" font-family="Arial" font-size="16px" x="210" y="632">Highlight 2</text><text fill="black" font-family="Arial" font-size="14px" x="210" y="775">#FFF5E6</text></g><g id="Highlight_3_Light"><rect fill="#FFE1B3" height="120" rx="10" ry="10" width="120" x="340" y="640" /><text fill="black" font-family="Arial" font-size="16px" x="350" y="632">Highlight 3</text><text fill="black" font-family="Arial" font-size="14px" x="350" y="775">#FFE1B3</text></g><g id="Highlight_4_Main__Light"><rect fill="#F5B041" height="120" rx="10" ry="10" width="120" x="480" y="640" /><text fill="black" font-family="Arial" font-size="16px" x="490" y="632">Highlight 4 (Main)</text><text fill="black" font-family="Arial" font-size="14px" x="490" y="775">#F5B041</text></g><g id="Highlight_5_Light"><rect fill="#C99033" height="120" rx="10" ry="10" width="120" x="620" y="640" /><text fill="black" font-family="Arial" font-size="16px" x="630" y="632">Highlight 5</text><text fill="black" font-family="Arial" font-size="14px" x="630" y="775">#C99033</text></g><g id="Highlight_6_Light"><rect fill="#996B26" height="120" rx="10" ry="10" width="120" x="760" y="640" /><text fill="black" font-family="Arial" font-size="16px" x="770" y="632">Highlight 6</text><text fill="black" font-family="Arial" font-size="14px" x="770" y="775">#996B26</text></g><g id="Highlight_7_Darker__Light"><rect fill="#5C4015" height="120" rx="10" ry="10" width="120" x="900" y="640" /><text fill="black" font-family="Arial" font-size="16px" x="910" y="632">Highlight 7 (Darker)</text><text fill="black" font-family="Arial" font-size="14px" x="910" y="775">#5C4015</text></g><g id="Secondary_Highlight_1_Light"><rect fill="#FEF9F9" height="120" rx="10" ry="10" width="120" x="60" y="820" /><text fill="black" font-family="Arial" font-size="16px" x="70" y="812">Secondary Highlight 1</text><text fill="black" font-family="Arial" font-size="14px" x="70" y="955">#FEF9F9</text></g><g id="Secondary_Highlight_2_Light"><rect fill="#FDEEEF" height="120" rx="10" ry="10" width="120" x="200" y="820" /><text fill="black" font-family="Arial" font-size="16px" x="210" y="812">Secondary Highlight 2</text><text fill="black" font-family="Arial" font-size="14px" x="210" y="955">#FDEEEF</text></g><g id="Secondary_Highlight_3_Light"><rect fill="#F7CACE" height="120" rx="10" ry="10" width="120" x="340" y="820" /><text fill="black" font-family="Arial" font-size="16px" x="350" y="812">Secondary Highlight 3</text><text fill="black" font-family="Arial" font-size="14px" x="350" y="955">#F7CACE</text></g><g id="Secondary_Highlight_4_Main__Light"><rect fill="#C88389" height="120" rx="10" ry="10" width="120" x="480" y="820" /><text fill="black" font-family="Arial" font-size="16px" x="490" y="812">Secondary Highlight 4 (Main)</text><text fill="black" font-family="Arial" font-size="14px" x="490" y="955">#C88389</text></g><g id="Secondary_Highlight_5_Light"><rect fill="#9A666A" height="120" rx="10" ry="10" width="120" x="620" y="820" /><text fill="black" font-family="Arial" font-size="16px" x="630" y="812">Secondary Highlight 5</text><text fill="black" font-family="Arial" font-size="14px" x="630" y="955">#9A666A</text></g><g id="Secondary_Highlight_6_Light"><rect fill="#6F4A4D" height="120" rx="10" ry="10" width="120" x="760" y="820" /><text fill="black" font-family="Arial" font-size="16px" x="770" y="812">Secondary Highlight 6</text><text fill="black" font-family="Arial" font-size="14px" x="770" y="955">#6F4A4D</text></g><g id="Secondary_Highlight_7_Darker__Light"><rect fill="#3F2A2C" height="120" rx="10" ry="10" width="120" x="900" y="820" /><text fill="black" font-family="Arial" font-size="16px" x="910" y="812">Secondary Highlight 7 (Darker)</text><text fill="black" font-family="Arial" font-size="14px" x="910" y="955">#3F2A2C</text></g><g id="Neutral_1_Light"><rect fill="#FFFFFF" height="120" rx="10" ry="10" width="120" x="60" y="1000" /><text fill="black" font-family="Arial" font-size="16px" x="70" y="992">Neutral 1</text><text fill="black" font-family="Arial" font-size="14px" x="70" y="1135">#FFFFFF</text></g><g id="Neutral_2_Light"><rect fill="#F2F5F5" height="120" rx="10" ry="10" width="120" x="200" y="1000" /><text fill="black" font-family="Arial" font-size="16px" x="210" y="992">Neutral 2</text><text fill="black" font-family="Arial" font-size="14px" x="210" y="1135">#F2F5F5</text></g><g id="Neutral_3_Light"><rect fill="#CCD7D8" height="120" rx="10" ry="10" width="120" x="340" y="1000" /><text fill="black" font-family="Arial" font-size="16px" x="350" y="992">Neutral 3</text><text fill="black" font-family="Arial" font-size="14px" x="350" y="1135">#CCD7D8</text></g><g id="Neutral_4_Main__Light"><rect fill="#AAB7B8" height="120" rx="10" ry="10" width="120" x="480" y="1000" /><text fill="black" font-family="Arial" font-size="16px" x="490" y="992">Neutral 4 (Main)</text><text fill="black" font-family="Arial" font-size="14px" x="490" y="1135">#AAB7B8</text></g><g id="Neutral_5_Light"><rect fill="#889394" height="120" rx="10" ry="10" width="120" x="620" y="1000" /><text fill="black" font-family="Arial" font-size="16px" x="630" y="992">Neutral 5</text><text fill="black" font-family="Arial" font-size="14px" x="630" y="1135">#889394</text></g><g id="Neutral_6_Light"><rect fill="#656D6E" height="120" rx="10" ry="10" width="120" x="760" y="1000" /><text fill="black" font-family="Arial" font-size="16px" x="770" y="992">Neutral 6</text><text fill="black" font-family="Arial" font-size="14px" x="770" y="1135">#656D6E</text></g><g id="Neutral_7_Light"><rect fill="#000000" height="120" rx="10" ry="10" width="120" x="900" y="1000" /><text fill="black" font-family="Arial" font-size="16px" x="910" y="992">Neutral 7</text><text fill="black" font-family="Arial" font-size="14px" x="910" y="1135">#000000</text></g><g id="Neutral_8_Darker__Light"><rect fill="#242727" height="120" rx="10" ry="10" width="120" x="60" y="1180" /><text fill="black" font-family="Arial" font-size="16px" x="70" y="1172">Neutral 8 (Darker)</text><text fill="black" font-family="Arial" font-size="14px" x="70" y="1315">#242727</text></g><g id="Depth_1_Light"><rect fill="#F9FAFA" height="120" rx="10" ry="10" width="120" x="200" y="1180" /><text fill="black" font-family="Arial" font-size="16px" x="210" y="1172">Depth 1</text><text fill="black" font-family="Arial" font-size="14px" x="210" y="1315">#F9FAFA</text></g><g id="Depth_2_Light"><rect fill="#E6EAEA" height="120" rx="10" ry="10" width="120" x="340" y="1180" /><text fill="black" font-family="Arial" font-size="16px" x="350" y="1172">Depth 2</text><text fill="black" font-family="Arial" font-size="14px" x="350" y="1315">#E6EAEA</text></g><g id="Depth_3_Light"><rect fill="#B0B7C0" height="120" rx="10" ry="10" width="120" x="480" y="1180" /><text fill="black" font-family="Arial" font-size="16px" x="490" y="1172">Depth 3</text><text fill="black" font-family="Arial" font-size="14px" x="490" y="1315">#B0B7C0</text></g><g id="Depth_4_Main__Light"><rect fill="#2C3E50" height="120" rx="10" ry="10" width="120" x="620" y="1180" /><text fill="black" font-family="Arial" font-size="16px" x="630" y="1172">Depth 4 (Main)</text><text fill="black" font-family="Arial" font-size="14px" x="630" y="1315">#2C3E50</text></g><g id="Depth_5_Light"><rect fill="#1E2B3C" height="120" rx="10" ry="10" width="120" x="760" y="1180" /><text fill="black" font-family="Arial" font-size="16px" x="770" y="1172">Depth 5</text><text fill="black" font-family="Arial" font-size="14px" x="770" y="1315">#1E2B3C</text></g><g id="Depth_6_Light"><rect fill="#131D28" height="120" rx="10" ry="10" width="120" x="900" y="1180" /><text fill="black" font-family="Arial" font-size="16px" x="910" y="1172">Depth 6</text><text fill="black" font-family="Arial" font-size="14px" x="910" y="1315">#131D28</text></g><g id="Depth_7_Darker__Light"><rect fill="#0B1118" height="120" rx="10" ry="10" width="120" x="60" y="1360" /><text fill="black" font-family="Arial" font-size="16px" x="70" y="1352">Depth 7 (Darker)</text><text fill="black" font-family="Arial" font-size="14px" x="70" y="1495">#0B1118</text></g></g><g id="DarkModeSwatches"><g id="Primary_1_Dark"><rect fill="#FAFFFD" height="120" rx="10" ry="10" width="120" x="60" y="1600" /><text fill="white" font-family="Arial" font-size="16px" x="70" y="1592">Primary 1</text><text fill="white" font-family="Arial" font-size="14px" x="70" y="1735">#FAFFFD</text></g><g id="Primary_2_Dark"><rect fill="#F2FAF7" height="120" rx="10" ry="10" width="120" x="200" y="1600" /><text fill="white" font-family="Arial" font-size="16px" x="210" y="1592">Primary 2</text><text fill="white" font-family="Arial" font-size="14px" x="210" y="1735">#F2FAF7</text></g><g id="Primary_3_Dark"><rect fill="#A4DBC4" height="120" rx="10" ry="10" width="120" x="340" y="1600" /><text fill="white" font-family="Arial" font-size="16px" x="350" y="1592">Primary 3</text><text fill="white" font-family="Arial" font-size="14px" x="350" y="1735">#A4DBC4</text></g><g id="Primary_4_Main__Dark"><rect fill="#2ECC71" height="120" rx="10" ry="10" width="120" x="480" y="1600" /><text fill="white" font-family="Arial" font-size="16px" x="490" y="1592">Primary 4 (Main)</text><text fill="white" font-family="Arial" font-size="14px" x="490" y="1735">#2ECC71</text></g><g id="Primary_5_Dark"><rect fill="#3B7C65" height="120" rx="10" ry="10" width="120" x="620" y="1600" /><text fill="white" font-family="Arial" font-size="16px" x="630" y="1592">Primary 5</text><text fill="white" font-family="Arial" font-size="14px" x="630" y="1735">#3B7C65</text></g><g id="Primary_6_Dark"><rect fill="#1A332A" height="120" rx="10" ry="10" width="120" x="760" y="1600" /><text fill="white" font-family="Arial" font-size="16px" x="770" y="1592">Primary 6</text><text fill="white" font-family="Arial" font-size="14px" x="770" y="1735">#1A332A</text></g><g id="Primary_7_Darker__Dark"><rect fill="#0F2118" height="120" rx="10" ry="10" width="120" x="900" y="1600" /><text fill="white" font-family="Arial" font-size="16px" x="910" y="1592">Primary 7 (Darker)</text><text fill="white" font-family="Arial" font-size="14px" x="910" y="1735">#0F2118</text></g><g id="Secondary_1_Dark"><rect fill="#F9FEFE" height="120" rx="10" ry="10" width="120" x="60" y="1780" /><text fill="white" font-family="Arial" font-size="16px" x="70" y="1772">Secondary 1</text><text fill="white" font-family="Arial" font-size="14px" x="70" y="1915">#F9FEFE</text></g><g id="Secondary_2_Dark"><rect fill="#F3F9FA" height="120" rx="10" ry="10" width="120" x="200" y="1780" /><text fill="white" font-family="Arial" font-size="16px" x="210" y="1772">Secondary 2</text><text fill="white" font-family="Arial" font-size="14px" x="210" y="1915">#F3F9FA</text></g><g id="Secondary_3_Dark"><rect fill="#C0E1E5" height="120" rx="10" ry="10" width="120" x="340" y="1780" /><text fill="white" font-family="Arial" font-size="16px" x="350" y="1772">Secondary 3</text><text fill="white" font-family="Arial" font-size="14px" x="350" y="1915">#C0E1E5</text></g><g id="Secondary_4_Main__Dark"><rect fill="#63B4BF" height="120" rx="10" ry="10" width="120" x="480" y="1780" /><text fill="white" font-family="Arial" font-size="16px" x="490" y="1772">Secondary 4 (Main)</text><text fill="white" font-family="Arial" font-size="14px" x="490" y="1915">#63B4BF</text></g><g id="Secondary_5_Dark"><rect fill="#38767F" height="120" rx="10" ry="10" width="120" x="620" y="1780" /><text fill="white" font-family="Arial" font-size="16px" x="630" y="1772">Secondary 5</text><text fill="white" font-family="Arial" font-size="14px" x="630" y="1915">#38767F</text></g><g id="Secondary_6_Dark"><rect fill="#193130" height="120" rx="10" ry="10" width="120" x="760" y="1780" /><text fill="white" font-family="Arial" font-size="16px" x="770" y="1772">Secondary 6</text><text fill="white" font-family="Arial" font-size="14px" x="770" y="1915">#193130</text></g><g id="Secondary_7_Darker__Dark"><rect fill="#0E1A1C" height="120" rx="10" ry="10" width="120" x="900" y="1780" /><text fill="white" font-family="Arial" font-size="16px" x="910" y="1772">Secondary 7 (Darker)</text><text fill="white" font-family="Arial" font-size="14px" x="910" y="1915">#0E1A1C</text></g><g id="Accent_1_Dark"><rect fill="#FFF8F3" height="120" rx="10" ry="10" width="120" x="60" y="1960" /><text fill="white" font-family="Arial" font-size="16px" x="70" y="1952">Accent 1</text><text fill="white" font-family="Arial" font-size="14px" x="70" y="2095">#FFF8F3</text></g><g id="Accent_2_Dark"><rect fill="#FFE3E6" height="120" rx="10" ry="10" width="120" x="200" y="1960" /><text fill="white" font-family="Arial" font-size="16px" x="210" y="1952">Accent 2</text><text fill="white" font-family="Arial" font-size="14px" x="210" y="2095">#FFE3E6</text></g><g id="Accent_3_Dark"><rect fill="#FFB3B6" height="120" rx="10" ry="10" width="120" x="340" y="1960" /><text fill="white" font-family="Arial" font-size="16px" x="350" y="1952">Accent 3</text><text fill="white" font-family="Arial" font-size="14px" x="350" y="2095">#FFB3B6</text></g><g id="Accent_4_Main__Dark"><rect fill="#FF9340" height="120" rx="10" ry="10" width="120" x="480" y="1960" /><text fill="white" font-family="Arial" font-size="16px" x="490" y="1952">Accent 4 (Main)</text><text fill="white" font-family="Arial" font-size="14px" x="490" y="2095">#FF9340</text></g><g id="Accent_5_Dark"><rect fill="#B52835" height="120" rx="10" ry="10" width="120" x="620" y="1960" /><text fill="white" font-family="Arial" font-size="16px" x="630" y="1952">Accent 5</text><text fill="white" font-family="Arial" font-size="14px" x="630" y="2095">#B52835</text></g><g id="Accent_6_Dark"><rect fill="#3F240F" height="120" rx="10" ry="10" width="120" x="760" y="1960" /><text fill="white" font-family="Arial" font-size="16px" x="770" y="1952">Accent 6</text><text fill="white" font-family="Arial" font-size="14px" x="770" y="2095">#3F240F</text></g><g id="Accent_7_Darker__Dark"><rect fill="#251409" height="120" rx="10" ry="10" width="120" x="900" y="1960" /><text fill="white" font-family="Arial" font-size="16px" x="910" y="1952">Accent 7 (Darker)</text><text fill="white" font-family="Arial" font-size="14px" x="910" y="2095">#251409</text></g><g id="Highlight_1_Dark"><rect fill="#FFFDF8" height="120" rx="10" ry="10" width="120" x="60" y="2140" /><text fill="white" font-family="Arial" font-size="16px" x="70" y="2132">Highlight 1</text><text fill="white" font-family="Arial" font-size="14px" x="70" y="2275">#FFFDF8</text></g><g id="Highlight_2_Dark"><rect fill="#FFF5E6" height="120" rx="10" ry="10" width="120" x="200" y="2140" /><text fill="white" font-family="Arial" font-size="16px" x="210" y="2132">Highlight 2</text><text fill="white" font-family="Arial" font-size="14px" x="210" y="2275">#FFF5E6</text></g><g id="Highlight_3_Dark"><rect fill="#FFE1B3" height="120" rx="10" ry="10" width="120" x="340" y="2140" /><text fill="white" font-family="Arial" font-size="16px" x="350" y="2132">Highlight 3</text><text fill="white" font-family="Arial" font-size="14px" x="350" y="2275">#FFE1B3</text></g><g id="Highlight_4_Main__Dark"><rect fill="#F5B041" height="120" rx="10" ry="10" width="120" x="480" y="2140" /><text fill="white" font-family="Arial" font-size="16px" x="490" y="2132">Highlight 4 (Main)</text><text fill="white" font-family="Arial" font-size="14px" x="490" y="2275">#F5B041</text></g><g id="Highlight_5_Dark"><rect fill="#C99033" height="120" rx="10" ry="10" width="120" x="620" y="2140" /><text fill="white" font-family="Arial" font-size="16px" x="630" y="2132">Highlight 5</text><text fill="white" font-family="Arial" font-size="14px" x="630" y="2275">#C99033</text></g><g id="Highlight_6_Dark"><rect fill="#996B26" height="120" rx="10" ry="10" width="120" x="760" y="2140" /><text fill="white" font-family="Arial" font-size="16px" x="770" y="2132">Highlight 6</text><text fill="white" font-family="Arial" font-size="14px" x="770" y="2275">#996B26</text></g><g id="Highlight_7_Darker__Dark"><rect fill="#5C4015" height="120" rx="10" ry="10" width="120" x="900" y="2140" /><text fill="white" font-family="Arial" font-size="16px" x="910" y="2132">Highlight 7 (Darker)</text><text fill="white" font-family="Arial" font-size="14px" x="910" y="2275">#5C4015</text></g><g id="Secondary_Highlight_1_Dark"><rect fill="#FEF9F9" height="120" rx="10" ry="10" width="120" x="60" y="2320" /><text fill="white" font-family="Arial" font-size="16px" x="70" y="2312">Secondary Highlight 1</text><text fill="white" font-family="Arial" font-size="14px" x="70" y="2455">#FEF9F9</text></g><g id="Secondary_Highlight_2_Dark"><rect fill="#FDEEEF" height="120" rx="10" ry="10" width="120" x="200" y="2320" /><text fill="white" font-family="Arial" font-size="16px" x="210" y="2312">Secondary Highlight 2</text><text fill="white" font-family="Arial" font-size="14px" x="210" y="2455">#FDEEEF</text></g><g id="Secondary_Highlight_3_Dark"><rect fill="#F7CACE" height="120" rx="10" ry="10" width="120" x="340" y="2320" /><text fill="white" font-family="Arial" font-size="16px" x="350" y="2312">Secondary Highlight 3</text><text fill="white" font-family="Arial" font-size="14px" x="350" y="2455">#F7CACE</text></g><g id="Secondary_Highlight_4_Main__Dark"><rect fill="#C88389" height="120" rx="10" ry="10" width="120" x="480" y="2320" /><text fill="white" font-family="Arial" font-size="16px" x="490" y="2312">Secondary Highlight 4 (Main)</text><text fill="white" font-family="Arial" font-size="14px" x="490" y="2455">#C88389</text></g><g id="Secondary_Highlight_5_Dark"><rect fill="#9A666A" height="120" rx="10" ry="10" width="120" x="620" y="2320" /><text fill="white" font-family="Arial" font-size="16px" x="630" y="2312">Secondary Highlight 5</text><text fill="white" font-family="Arial" font-size="14px" x="630" y="2455">#9A666A</text></g><g id="Secondary_Highlight_6_Dark"><rect fill="#6F4A4D" height="120" rx="10" ry="10" width="120" x="760" y="2320" /><text fill="white" font-family="Arial" font-size="16px" x="770" y="2312">Secondary Highlight 6</text><text fill="white" font-family="Arial" font-size="14px" x="770" y="2455">#6F4A4D</text></g><g id="Secondary_Highlight_7_Darker__Dark"><rect fill="#3F2A2C" height="120" rx="10" ry="10" width="120" x="900" y="2320" /><text fill="white" font-family="Arial" font-size="16px" x="910" y="2312">Secondary Highlight 7 (Darker)</text><text fill="white" font-family="Arial" font-size="14px" x="910" y="2455">#3F2A2C</text></g><g id="Neutral_1_Dark"><rect fill="#FFFFFF" height="120" rx="10" ry="10" width="120" x="60" y="2500" /><text fill="white" font-family="Arial" font-size="16px" x="70" y="2492">Neutral 1</text><text fill="white" font-family="Arial" font-size="14px" x="70" y="2635">#FFFFFF</text></g><g id="Neutral_2_Dark"><rect fill="#F2F5F5" height="120" rx="10" ry="10" width="120" x="200" y="2500" /><text fill="white" font-family="Arial" font-size="16px" x="210" y="2492">Neutral 2</text><text fill="white" font-family="Arial" font-size="14px" x="210" y="2635">#F2F5F5</text></g><g id="Neutral_3_Dark"><rect fill="#CCD7D8" height="120" rx="10" ry="10" width="120" x="340" y="2500" /><text fill="white" font-family="Arial" font-size="16px" x="350" y="2492">Neutral 3</text><text fill="white" font-family="Arial" font-size="14px" x="350" y="2635">#CCD7D8</text></g><g id="Neutral_4_Main__Dark"><rect fill="#AAB7B8" height="120" rx="10" ry="10" width="120" x="480" y="2500" /><text fill="white" font-family="Arial" font-size="16px" x="490" y="2492">Neutral 4 (Main)</text><text fill="white" font-family="Arial" font-size="14px" x="490" y="2635">#AAB7B8</text></g><g id="Neutral_5_Dark"><rect fill="#889394" height="120" rx="10" ry="10" width="120" x="620" y="2500" /><text fill="white" font-family="Arial" font-size="16px" x="630" y="2492">Neutral 5</text><text fill="white" font-family="Arial" font-size="14px" x="630" y="2635">#889394</text></g><g id="Neutral_6_Dark"><rect fill="#656D6E" height="120" rx="10" ry="10" width="120" x="760" y="2500" /><text fill="white" font-family="Arial" font-size="16px" x="770" y="2492">Neutral 6</text><text fill="white" font-family="Arial" font-size="14px" x="770" y="2635">#656D6E</text></g><g id="Neutral_7_Dark"><rect fill="#000000" height="120" rx="10" ry="10" width="120" x="900" y="2500" /><text fill="white" font-family="Arial" font-size="16px" x="910" y="2492">Neutral 7</text><text fill="white" font-family="Arial" font-size="14px" x="910" y="2635">#000000</text></g><g id="Neutral_8_Darker__Dark"><rect fill="#242727" height="120" rx="10" ry="10" width="120" x="60" y="2680" /><text fill="white" font-family="Arial" font-size="16px" x="70" y="2672">Neutral 8 (Darker)</text><text fill="white" font-family="Arial" font-size="14px" x="70" y="2815">#242727</text></g><g id="Depth_1_Dark"><rect fill="#F9FAFA" height="120" rx="10" ry="10" width="120" x="200" y="2680" /><text fill="white" font-family="Arial" font-size="16px" x="210" y="2672">Depth 1</text><text fill="white" font-family="Arial" font-size="14px" x="210" y="2815">#F9FAFA</text></g><g id="Depth_2_Dark"><rect fill="#E6EAEA" height="120" rx="10" ry="10" width="120" x="340" y="2680" /><text fill="white" font-family="Arial" font-size="16px" x="350" y="2672">Depth 2</text><text fill="white" font-family="Arial" font-size="14px" x="350" y="2815">#E6EAEA</text></g><g id="Depth_3_Dark"><rect fill="#B0B7C0" height="120" rx="10" ry="10" width="120" x="480" y="2680" /><text fill="white" font-family="Arial" font-size="16px" x="490" y="2672">Depth 3</text><text fill="white" font-family="Arial" font-size="14px" x="490" y="2815">#B0B7C0</text></g><g id="Depth_4_Main__Dark"><rect fill="#2C3E50" height="120" rx="10" ry="10" width="120" x="620" y="2680" /><text fill="white" font-family="Arial" font-size="16px" x="630" y="2672">Depth 4 (Main)</text><text fill="white" font-family="Arial" font-size="14px" x="630" y="2815">#2C3E50</text></g><g id="Depth_5_Dark"><rect fill="#1E2B3C" height="120" rx="10" ry="10" width="120" x="760" y="2680" /><text fill="white" font-family="Arial" font-size="16px" x="770" y="2672">Depth 5</text><text fill="white" font-family="Arial" font-size="14px" x="770" y="2815">#1E2B3C</text></g><g id="Depth_6_Dark"><rect fill="#131D28" height="120" rx="10" ry="10" width="120" x="900" y="2680" /><text fill="white" font-family="Arial" font-size="16px" x="910" y="2672">Depth 6</text><text fill="white" font-family="Arial" font-size="14px" x="910" y="2815">#131D28</text></g><g id="Depth_7_Darker__Dark"><rect fill="#0B1118" height="120" rx="10" ry="10" width="120" x="60" y="2860" /><text fill="white" font-family="Arial" font-size="16px" x="70" y="2852">Depth 7 (Darker)</text><text fill="white" font-family="Arial" font-size="14px" x="70" y="2995">#0B1118</text></g></g></svg>